SplineFontDB: 3.0
FontName: Smythe
FullName: Smythe
FamilyName: Smythe
Weight: Book
Copyright: Copyright (c) 2011 by Vernon Adams. All rights reserved.
Version: 1.000
ItalicAngle: 0
UnderlinePosition: -103
UnderlineWidth: 102
Ascent: 1638
Descent: 410
sfntRevision: 0x00010000
LayerCount: 2
Layer: 0 1 "Back"  1
Layer: 1 1 "Fore"  0
XUID: [1021 759 1887733602 1793157]
FSType: 0
OS2Version: 2
OS2_WeightWidthSlopeOnly: 0
OS2_UseTypoMetrics: 1
CreationTime: 1301655180
ModificationTime: 1302730721
PfmFamily: 17
TTFWeight: 400
TTFWidth: 5
LineGap: 0
VLineGap: 0
Panose: 2 0 0 0 0 0 0 0 0 0
OS2TypoAscent: 245
OS2TypoAOffset: 1
OS2TypoDescent: -70
OS2TypoDOffset: 1
OS2TypoLinegap: 0
OS2WinAscent: 0
OS2WinAOffset: 1
OS2WinDescent: -47
OS2WinDOffset: 1
HheadAscent: 0
HheadAOffset: 1
HheadDescent: 47
HheadDOffset: 1
OS2SubXSize: 1434
OS2SubYSize: 1331
OS2SubXOff: 0
OS2SubYOff: 287
OS2SupXSize: 1434
OS2SupYSize: 1331
OS2SupXOff: 0
OS2SupYOff: 977
OS2StrikeYSize: 102
OS2StrikeYPos: 512
OS2Vendor: 'pyrs'
OS2CodePages: 00000001.00000000
OS2UnicodeRanges: 8000002f.4000004b.00000000.00000000
Lookup: 258 0 0 "'kern' Horizontal Kerning in Latin lookup 0"  {"'kern' Horizontal Kerning in Latin lookup 0 per glyph data 0"  "'kern' Horizontal Kerning in Latin lookup 0 kerning class 1"  } ['kern' ('latn' <'dflt' > ) ]
MarkAttachClasses: 1
DEI: 91125
KernClass2: 86+ 67 "'kern' Horizontal Kerning in Latin lookup 0 kerning class 1" 
 28 hyphen endash emdash uni00AD
 6 period
 5 seven
 3 one
 5 slash
 3 two
 5 three
 4 five
 4 zero
 3 six
 4 nine
 5 eight
 8 asterisk
 20 quotesingle quotedbl
 4 four
 5 comma
 9 backslash
 24 quoteright quotedblright
 22 quotedblleft quoteleft
 27 quotedblbase quotesinglbase
 12 questiondown
 10 exclamdown
 9 trademark
 2 at
 9 ampersand
 10 registered
 13 guilsinglleft
 14 guilsinglright
 14 guillemotright
 13 guillemotleft
 7 H H.alt
 9 T uni021A
 10 C Ccedilla
 51 O Oslash Ograve Oacute Ocircumflex Otilde Odieresis
 37 U Ugrave Uacute Ucircumflex Udieresis

StartChar: H
Encoding: 72 72 4
Width: 930
Flags: W
HStem: -170 118<65 123.875> 0 5<509 516.801 882.184 890> 706 77<296.723 633.215> 1322 5<37 44.0624 410.184 418 509 516.209 882.184 890>
VStem: 165 131<-15.4459 702.301 786.062 1218.35> 628 151<47.5057 703.351 785.08 1281.09>
LayerCount: 2
Fore
SplineSet
890 1322 m 1,0,1
 839 1309 839 1309 813 1282 c 128,-1,2
 787 1255 787 1255 779 1214 c 1,3,4
 773 1080 773 1080 770.5 948 c 128,-1,5
 768 816 768 816 768 684 c 0,6,7
 768 540 768 540 771 399 c 128,-1,8
 774 258 774 258 779 117 c 1,9,10
 787 76 787 76 813 47.5 c 128,-1,11
 839 19 839 19 890 5 c 1,12,-1
 890 0 l 1,13,-1
 509 0 l 1,14,-1
 509 5 l 1,15,16
 560 19 560 19 583.5 47.5 c 128,-1,17
 607 76 607 76 615 117 c 1,18,19
 623 283 623 283 628 425.5 c 128,-1,20
 633 568 633 568 634 699 c 1,21,22
 611 702 611 702 572 704 c 128,-1,23
 533 706 533 706 470 706 c 0,24,25
 400 706 400 706 359 703.5 c 128,-1,26
 318 701 318 701 296 698 c 1,27,-1
 296 684 l 2,28,29
 296 619 296 619 296 545.5 c 128,-1,30
 296 472 296 472 295.5 397 c 128,-1,31
 295 322 295 322 294.5 250 c 128,-1,32
 294 178 294 178 293 117 c 0,33,34
 292 68 292 68 288.5 17 c 128,-1,35
 285 -34 285 -34 264 -75.5 c 128,-1,36
 243 -117 243 -117 197 -143.5 c 128,-1,37
 151 -170 151 -170 65 -170 c 1,38,-1
 -15 -44 l 1,39,-1
 -12 -40 l 1,40,41
 10 -45 10 -45 28 -48.5 c 128,-1,42
 46 -52 46 -52 60 -52 c 0,43,44
 81 -52 81 -52 95 -44.5 c 128,-1,45
 109 -37 109 -37 119 -18 c 128,-1,46
 129 1 129 1 134.5 32.5 c 128,-1,47
 140 64 140 64 144 111 c 0,48,49
 149 172 149 172 153 244 c 128,-1,50
 157 316 157 316 159.5 390.5 c 128,-1,51
 162 465 162 465 163.5 537 c 128,-1,52
 165 609 165 609 165 671 c 0,53,54
 165 808 165 808 159.5 941 c 128,-1,55
 154 1074 154 1074 144 1223 c 1,56,57
 134 1258 134 1258 108.5 1283.5 c 128,-1,58
 83 1309 83 1309 37 1322 c 1,59,-1
 37 1327 l 1,60,-1
 418 1327 l 1,61,-1
 418 1322 l 1,62,63
 367 1309 367 1309 341 1282.5 c 128,-1,64
 315 1256 315 1256 307 1215 c 1,65,66
 302 1107 302 1107 299.5 1001 c 128,-1,67
 297 895 297 895 296 789 c 1,68,69
 319 787 319 787 361 785 c 128,-1,70
 403 783 403 783 471 783 c 0,71,72
 530 783 530 783 569.5 784.5 c 128,-1,73
 609 786 609 786 634 788 c 1,74,75
 632 894 632 894 628 1000.5 c 128,-1,76
 624 1107 624 1107 616 1222 c 1,77,78
 606 1258 606 1258 581 1283.5 c 128,-1,79
 556 1309 556 1309 509 1322 c 1,80,-1
 509 1327 l 1,81,-1
 890 1327 l 1,82,-1
 890 1322 l 1,0,1
EndSplineSet
EndChar

StartChar: T
Encoding: 84 84 5
Width: 726
Flags: W
HStem: 0 5<183 189.264 537.729 544> 1221 96<75.9799 288.905 440 651.621>
VStem: 34 5<1114 1133.4> 297.5 134.5<55.121 1221> 686 6<1114 1135.21>
LayerCount: 2
Fore
SplineSet
31 1327 m 1,0,1
 116 1322 116 1322 198.5 1319.5 c 128,-1,2
 281 1317 281 1317 365 1317 c 256,3,4
 449 1317 449 1317 530.5 1319.5 c 128,-1,5
 612 1322 612 1322 695 1327 c 1,6,-1
 695 1274 l 2,7,8
 695 1222 695 1222 692 1114 c 1,9,-1
 686 1114 l 1,10,11
 686 1147 686 1147 662.5 1167.5 c 128,-1,12
 639 1188 639 1188 603 1199 c 128,-1,13
 567 1210 567 1210 523.5 1214.5 c 128,-1,14
 480 1219 480 1219 440 1221 c 1,15,16
 439 1192 439 1192 438 1141.5 c 128,-1,17
 437 1091 437 1091 436.5 1028.5 c 128,-1,18
 436 966 436 966 435 896.5 c 128,-1,19
 434 827 434 827 433.5 760.5 c 128,-1,20
 433 694 433 694 432.5 636.5 c 128,-1,21
 432 579 432 579 432 540 c 0,22,23
 432 441 432 441 433 343.5 c 128,-1,24
 434 246 434 246 441 149 c 0,25,26
 444 95 444 95 468.5 58.5 c 128,-1,27
 493 22 493 22 544 5 c 1,28,-1
 544 0 l 1,29,-1
 183 0 l 1,30,-1
 183 5 l 1,31,32
 234 22 234 22 256.5 61 c 128,-1,33
 279 100 279 100 282 153 c 0,34,35
 287 234 287 234 290 308 c 128,-1,36
 293 382 293 382 295 452 c 128,-1,37
 297 522 297 522 297.5 589 c 128,-1,38
 298 656 298 656 298 721 c 0,39,40
 298 844 298 844 297 965.5 c 128,-1,41
 296 1087 296 1087 286 1221 c 1,42,43
 247 1219 247 1219 203.5 1214.5 c 128,-1,44
 160 1210 160 1210 123.5 1199 c 128,-1,45
 87 1188 87 1188 63 1167.5 c 128,-1,46
 39 1147 39 1147 39 1114 c 1,47,-1
 34 1114 l 1,48,49
 32 1168 32 1168 31.5 1208 c 128,-1,50
 31 1248 31 1248 31 1274 c 2,51,-1
 31 1327 l 1,0,1
EndSplineSet
EndChar

StartChar: C
Encoding: 67 67 6
Width: 841
Flags: W
HStem: -18 109<356.261 579.044> 1207 110<389.595 618.317>
VStem: 66 156<316.006 955.808> 680 126<989.4 1143.83>
LayerCount: 2
Fore
SplineSet
716 385 m 1,0,-1
 808 191 l 1,1,2
 748 88 748 88 658.5 35 c 128,-1,3
 569 -18 569 -18 469 -18 c 0,4,5
 382 -18 382 -18 308.5 27.5 c 128,-1,6
 235 73 235 73 181 158.5 c 128,-1,7
 127 244 127 244 96.5 368 c 128,-1,8
 66 492 66 492 66 649 c 0,9,10
 66 809 66 809 100.5 933.5 c 128,-1,11
 135 1058 135 1058 196 1143 c 128,-1,12
 257 1228 257 1228 340 1272.5 c 128,-1,13
 423 1317 423 1317 519 1317 c 0,14,15
 578 1317 578 1317 630 1294 c 128,-1,16
 682 1271 682 1271 721 1236 c 128,-1,17
 760 1201 760 1201 783 1158 c 128,-1,18
 806 1115 806 1115 806 1076 c 0,19,20
 806 1025 806 1025 766 992 c 1,21,-1
 637 906 l 1,22,-1
 634 911 l 1,23,24
 658 934 658 934 669 963 c 128,-1,25
 680 992 680 992 680 1022 c 0,26,27
 680 1056 680 1056 667 1089 c 128,-1,28
 654 1122 654 1122 631.5 1148.5 c 128,-1,29
 609 1175 609 1175 577 1191 c 128,-1,30
 545 1207 545 1207 508 1207 c 0,31,32
 461 1207 461 1207 421 1184.5 c 128,-1,33
 381 1162 381 1162 349.5 1122 c 128,-1,34
 318 1082 318 1082 294 1028 c 128,-1,35
 270 974 270 974 254 911 c 128,-1,36
 238 848 238 848 230 778 c 128,-1,37
 222 708 222 708 222 638 c 0,38,39
 222 534 222 534 236.5 436 c 128,-1,40
 251 338 251 338 280.5 261 c 128,-1,41
 310 184 310 184 354 137.5 c 128,-1,42
 398 91 398 91 458 91 c 0,43,44
 507 91 507 91 548 114 c 128,-1,45
 589 137 589 137 621.5 176.5 c 128,-1,46
 654 216 654 216 676.5 269.5 c 128,-1,47
 699 323 699 323 713 385 c 1,48,-1
 716 385 l 1,0,-1
EndSplineSet
EndChar

StartChar: O
Encoding: 79 79 7
Width: 935
Flags: W
HStem: -18 118<358.215 567.404> 1200 117<362.368 565.297>
VStem: 69 156<316.122 978.811> 708 159<327.24 979.296>
LayerCount: 2
Fore
SplineSet
867 649 m 0,0,1
 867 493 867 493 834.5 369.5 c 128,-1,2
 802 246 802 246 747 160 c 128,-1,3
 692 74 692 74 621 28 c 128,-1,4
 550 -18 550 -18 472 -18 c 0,5,6
 385 -18 385 -18 311.5 27.5 c 128,-1,7
 238 73 238 73 184 158.5 c 128,-1,8
 130 244 130 244 99.5 368 c 128,-1,9
 69 492 69 492 69 649 c 0,10,11
 69 809 69 809 100 933.5 c 128,-1,12
 131 1058 131 1058 185.5 1143 c 128,-1,13
 240 1228 240 1228 313.5 1272.5 c 128,-1,14
 387 1317 387 1317 472 1317 c 0,15,16
 553 1317 553 1317 625 1272.5 c 128,-1,17
 697 1228 697 1228 751 1143 c 128,-1,18
 805 1058 805 1058 836 933.5 c 128,-1,19
 867 809 867 809 867 649 c 0,0,1
461 100 m 0,20,21
 523 100 523 100 569.5 146 c 128,-1,22
 616 192 616 192 646.5 268.5 c 128,-1,23
 677 345 677 345 692.5 443.5 c 128,-1,24
 708 542 708 542 708 646 c 0,25,26
 708 751 708 751 692.5 850.5 c 128,-1,27
 677 950 677 950 646 1028 c 128,-1,28
 615 1106 615 1106 568.5 1153 c 128,-1,29
 522 1200 522 1200 461 1200 c 0,30,31
 403 1200 403 1200 359 1152 c 128,-1,32
 315 1104 315 1104 285 1025 c 128,-1,33
 255 946 255 946 240 845 c 128,-1,34
 225 744 225 744 225 638 c 0,35,36
 225 569 225 569 231.5 502.5 c 128,-1,37
 238 436 238 436 251 376 c 128,-1,38
 264 316 264 316 283.5 265.5 c 128,-1,39
 303 215 303 215 329 178 c 128,-1,40
 355 141 355 141 388 120.5 c 128,-1,41
 421 100 421 100 461 100 c 0,20,21
EndSplineSet
EndChar

StartChar: U
Encoding: 85 85 8
Width: 928
Flags: W
HStem: -18 117<359.214 588.183> 1322 5<29 35.4404 384.328 390 519 526.056 880.663 887>
VStem: 131.5 155.5<454.435 1282.57> 147 136<172.906 1190.16> 634 141<136.449 1273.7>
LayerCount: 2
Fore
SplineSet
887 1322 m 1,0,1
 784 1289 784 1289 784 1177 c 1,2,3
 781 1089 781 1089 779 1001 c 0,4,5
 778 963 778 963 777.5 922 c 128,-1,6
 777 881 777 881 776.5 840 c 128,-1,7
 776 799 776 799 775.5 759 c 128,-1,8
 775 719 775 719 775 684 c 0,9,10
 775 609 775 609 775.5 546 c 128,-1,11
 776 483 776 483 776.5 422 c 128,-1,12
 777 361 777 361 777 298.5 c 128,-1,13
 777 236 777 236 777 163 c 1,14,15
 780 128 780 128 805.5 104 c 128,-1,16
 831 80 831 80 887 69 c 1,17,-1
 887 64 l 1,18,-1
 639 -30 l 1,19,20
 634 -17 634 -17 631.5 3.5 c 128,-1,21
 629 24 629 24 628 50 c 1,22,23
 574 14 574 14 512.5 -2 c 128,-1,24
 451 -18 451 -18 394 -18 c 0,25,26
 347 -18 347 -18 304.5 0 c 128,-1,27
 262 18 262 18 228.5 54 c 128,-1,28
 195 90 195 90 173.5 144.5 c 128,-1,29
 152 199 152 199 147 272 c 0,30,31
 141 378 141 378 139 489 c 128,-1,32
 137 600 137 600 136 715.5 c 128,-1,33
 135 831 135 831 131.5 951 c 128,-1,34
 128 1071 128 1071 119 1194 c 0,35,36
 115 1241 115 1241 93 1274.5 c 128,-1,37
 71 1308 71 1308 29 1322 c 1,38,-1
 29 1327 l 1,39,-1
 390 1327 l 1,40,-1
 390 1322 l 1,41,42
 344 1305 344 1305 318 1269 c 128,-1,43
 292 1233 292 1233 292 1177 c 1,44,45
 289 1069 289 1069 287 962 c 0,46,47
 286 916 286 916 285.5 866 c 128,-1,48
 285 816 285 816 284.5 765.5 c 128,-1,49
 284 715 284 715 283.5 666 c 128,-1,50
 283 617 283 617 283 574 c 0,51,52
 283 423 283 423 292.5 330 c 128,-1,53
 302 237 302 237 322 185.5 c 128,-1,54
 342 134 342 134 373.5 116.5 c 128,-1,55
 405 99 405 99 449 99 c 0,56,57
 488 99 488 99 535.5 113.5 c 128,-1,58
 583 128 583 128 628 161 c 1,59,60
 631 319 631 319 632.5 455.5 c 128,-1,61
 634 592 634 592 634 721 c 0,62,63
 634 838 634 838 632.5 953 c 128,-1,64
 631 1068 631 1068 619 1194 c 0,65,66
 614 1241 614 1241 589.5 1274.5 c 128,-1,67
 565 1308 565 1308 519 1322 c 1,68,-1
 519 1327 l 1,69,-1
 887 1327 l 1,70,-1
 887 1322 l 1,0,1
EndSplineSet
EndChar

StartChar: G
Encoding: 71 71 9
Width: 930
Flags: W
HStem: -18 109<355.028 603.028> 0 5<891.732 898> 699 5<547 554.053 891.663 898> 1207 110<381.88 602.317>
VStem: 70 156<298.008 965.127> 664 126<147.317 646.75 989.4 1143.83>
LayerCount: 2
Fore
SplineSet
618 911 m 1,0,1
 642 934 642 934 653 963 c 128,-1,2
 664 992 664 992 664 1022 c 0,3,4
 664 1056 664 1056 651 1089 c 128,-1,5
 638 1122 638 1122 615.5 1148.5 c 128,-1,6
 593 1175 593 1175 561 1191 c 128,-1,7
 529 1207 529 1207 492 1207 c 0,8,9
 448 1207 448 1207 411 1184.5 c 128,-1,10
 374 1162 374 1162 344.5 1122 c 128,-1,11
 315 1082 315 1082 293 1028 c 128,-1,12
 271 974 271 974 256 911 c 128,-1,13
 241 848 241 848 233.5 778 c 128,-1,14
 226 708 226 708 226 638 c 0,15,16
 226 534 226 534 240 436 c 128,-1,17
 254 338 254 338 282 261 c 128,-1,18
 310 184 310 184 352.5 137.5 c 128,-1,19
 395 91 395 91 452 91 c 0,20,21
 518 91 518 91 567.5 114.5 c 128,-1,22
 617 138 617 138 651 177 c 1,23,24
 656 306 656 306 655.5 403.5 c 128,-1,25
 655 501 655 501 647 571 c 0,26,27
 641 618 641 618 617 651 c 128,-1,28
 593 684 593 684 547 699 c 1,29,-1
 547 704 l 1,30,-1
 898 704 l 1,31,-1
 898 699 l 1,32,33
 795 667 795 667 795 554 c 0,34,35
 795 514 795 514 793.5 461 c 128,-1,36
 792 408 792 408 791 352.5 c 128,-1,37
 790 297 790 297 790.5 244 c 128,-1,38
 791 191 791 191 795 149 c 0,39,40
 800 95 800 95 823.5 58.5 c 128,-1,41
 847 22 847 22 898 5 c 1,42,-1
 898 0 l 1,43,-1
 697 0 l 1,44,45
 668 14 668 14 657 45 c 1,46,47
 550 -18 550 -18 423 -18 c 0,48,49
 348 -18 348 -18 283 27.5 c 128,-1,50
 218 73 218 73 171 158.5 c 128,-1,51
 124 244 124 244 97 368 c 128,-1,52
 70 492 70 492 70 649 c 0,53,54
 70 809 70 809 103 933.5 c 128,-1,55
 136 1058 136 1058 194.5 1143 c 128,-1,56
 253 1228 253 1228 332 1272.5 c 128,-1,57
 411 1317 411 1317 503 1317 c 0,58,59
 562 1317 562 1317 614 1294 c 128,-1,60
 666 1271 666 1271 705 1236 c 128,-1,61
 744 1201 744 1201 767 1158 c 128,-1,62
 790 1115 790 1115 790 1076 c 0,63,64
 790 1025 790 1025 750 992 c 1,65,-1
 621 906 l 1,66,-1
 618 911 l 1,0,1
EndSplineSet
EndChar

StartChar: S
Encoding: 83 83 10
Width: 651
Flags: W
HStem: -18 106<199.438 378.135> 971 21G<475 491.314> 1219 107<257.757 445.852>
VStem: 67 151<906.067 1179.67> 418 164<126.724 416.713>
LayerCount: 2
Fore
SplineSet
283 88 m 0,0,1
 312 88 312 88 337 100.5 c 128,-1,2
 362 113 362 113 380 134 c 128,-1,3
 398 155 398 155 408 181 c 128,-1,4
 418 207 418 207 418 234 c 0,5,6
 418 308 418 308 392 374 c 128,-1,7
 366 440 366 440 327 502.5 c 128,-1,8
 288 565 288 565 242.5 627 c 128,-1,9
 197 689 197 689 158 753.5 c 128,-1,10
 119 818 119 818 93 888 c 128,-1,11
 67 958 67 958 67 1038 c 0,12,13
 67 1095 67 1095 88.5 1147 c 128,-1,14
 110 1199 110 1199 150 1239 c 128,-1,15
 190 1279 190 1279 247.5 1302.5 c 128,-1,16
 305 1326 305 1326 378 1326 c 0,17,18
 435 1326 435 1326 497 1293.5 c 128,-1,19
 559 1261 559 1261 620 1200 c 1,20,-1
 479 971 l 1,21,-1
 475 974 l 1,22,23
 485 1014 485 1014 485 1051 c 0,24,25
 485 1092 485 1092 473.5 1123.5 c 128,-1,26
 462 1155 462 1155 444.5 1176 c 128,-1,27
 427 1197 427 1197 406 1208 c 128,-1,28
 385 1219 385 1219 365 1219 c 0,29,30
 333 1219 333 1219 306 1207.5 c 128,-1,31
 279 1196 279 1196 259.5 1176.5 c 128,-1,32
 240 1157 240 1157 229 1130 c 128,-1,33
 218 1103 218 1103 218 1073 c 0,34,35
 218 1011 218 1011 245 945.5 c 128,-1,36
 272 880 272 880 312.5 813 c 128,-1,37
 353 746 353 746 400 677 c 128,-1,38
 447 608 447 608 487.5 539 c 128,-1,39
 528 470 528 470 555 401.5 c 128,-1,40
 582 333 582 333 582 266 c 0,41,42
 582 208 582 208 561.5 156.5 c 128,-1,43
 541 105 541 105 501.5 66 c 128,-1,44
 462 27 462 27 405 4.5 c 128,-1,45
 348 -18 348 -18 275 -18 c 0,46,47
 218 -18 218 -18 156 14.5 c 128,-1,48
 94 47 94 47 33 108 c 1,49,-1
 174 307 l 1,50,-1
 178 304 l 1,51,52
 170 286 170 286 167 268.5 c 128,-1,53
 164 251 164 251 164 234 c 0,54,55
 164 203 164 203 174.5 176 c 128,-1,56
 185 149 185 149 201.5 129.5 c 128,-1,57
 218 110 218 110 239.5 99 c 128,-1,58
 261 88 261 88 283 88 c 0,0,1
EndSplineSet
EndChar

StartChar: N
Encoding: 78 78 11
Width: 933
Flags: W
HStem: -170 118<64 122.875> 0 21G<691 869> 1322 5<22 27.5613 541 548.056 885.663 892>
VStem: 161.5 130.5<-19.9141 907> 654.5 115<383 1171.51>
LayerCount: 2
Fore
SplineSet
691 0 m 1,0,-1
 687 0 l 1,1,-1
 691 0 l 1,0,-1
143 111 m 0,2,3
 156 240 156 240 161.5 370 c 128,-1,4
 167 500 167 500 167 631 c 0,5,6
 167 750 167 750 164.5 866.5 c 128,-1,7
 162 983 162 983 152 1114 c 1,8,9
 144 1191 144 1191 113 1246.5 c 128,-1,10
 82 1302 82 1302 22 1322 c 1,11,-1
 22 1327 l 1,12,-1
 218 1327 l 1,13,14
 217 1323 217 1323 223 1308 c 0,15,16
 228 1295 228 1295 240.5 1269.5 c 128,-1,17
 253 1244 253 1244 277 1199 c 1,18,19
 308 1131 308 1131 347.5 1044.5 c 128,-1,20
 387 958 387 958 428.5 868 c 128,-1,21
 470 778 470 778 509.5 692 c 128,-1,22
 549 606 549 606 580.5 538 c 128,-1,23
 612 470 612 470 631 427.5 c 128,-1,24
 650 385 650 385 650 383 c 1,25,26
 653 469 653 469 654.5 556 c 128,-1,27
 656 643 656 643 656 721 c 0,28,29
 656 838 656 838 654 953 c 128,-1,30
 652 1068 652 1068 641 1194 c 0,31,32
 636 1241 636 1241 611.5 1274.5 c 128,-1,33
 587 1308 587 1308 541 1322 c 1,34,-1
 541 1327 l 1,35,-1
 892 1327 l 1,36,-1
 892 1322 l 1,37,38
 789 1289 789 1289 789 1177 c 0,39,40
 789 1134 789 1134 787 1062 c 128,-1,41
 785 990 785 990 781.5 901.5 c 128,-1,42
 778 813 778 813 775 716 c 128,-1,43
 772 619 772 619 769.5 527 c 128,-1,44
 767 435 767 435 766.5 355.5 c 128,-1,45
 766 276 766 276 769 223 c 1,46,47
 771 142 771 142 797 84 c 128,-1,48
 823 26 823 26 869 5 c 1,49,-1
 869 0 l 1,50,-1
 691 0 l 1,51,52
 693 1 693 1 693.5 5 c 128,-1,53
 694 9 694 9 690.5 20.5 c 128,-1,54
 687 32 687 32 678.5 52.5 c 128,-1,55
 670 73 670 73 653 107 c 1,56,57
 628 166 628 166 591.5 247 c 128,-1,58
 555 328 555 328 515 416 c 128,-1,59
 475 504 475 504 435.5 590.5 c 128,-1,60
 396 677 396 677 364 746.5 c 128,-1,61
 332 816 332 816 312.5 860 c 128,-1,62
 293 904 293 904 293 907 c 1,63,64
 291 843 291 843 291 784.5 c 128,-1,65
 291 726 291 726 291 684 c 0,66,67
 291 538 291 538 292.5 397 c 128,-1,68
 294 256 294 256 292 117 c 0,69,70
 291 68 291 68 287.5 17 c 128,-1,71
 284 -34 284 -34 263 -75.5 c 128,-1,72
 242 -117 242 -117 196 -143.5 c 128,-1,73
 150 -170 150 -170 64 -170 c 1,74,-1
 -16 -44 l 1,75,-1
 -13 -40 l 1,76,77
 9 -45 9 -45 27 -48.5 c 128,-1,78
 45 -52 45 -52 59 -52 c 0,79,80
 80 -52 80 -52 94 -44.5 c 128,-1,81
 108 -37 108 -37 118 -18 c 128,-1,82
 128 1 128 1 133.5 32.5 c 128,-1,83
 139 64 139 64 143 111 c 0,2,3
EndSplineSet
EndChar

StartChar: J
Encoding: 74 74 12
Width: 654
Flags: W
HStem: -66 130<166.659 318.375> 295 5<226.113 230> 1322 5<259 265.912 618.663 625>
VStem: 1 149<77.4112 248.394> 375 138<125.845 1273.45>
LayerCount: 2
Fore
SplineSet
234 64 m 0,0,1
 287 64 287 64 315.5 99 c 128,-1,2
 344 134 344 134 357.5 205 c 128,-1,3
 371 276 371 276 373 385 c 128,-1,4
 375 494 375 494 375 641 c 0,5,6
 375 775 375 775 373.5 910 c 128,-1,7
 372 1045 372 1045 359 1194 c 0,8,9
 355 1241 355 1241 329.5 1274.5 c 128,-1,10
 304 1308 304 1308 259 1322 c 1,11,-1
 259 1327 l 1,12,-1
 625 1327 l 1,13,-1
 625 1322 l 1,14,15
 522 1289 522 1289 522 1177 c 1,16,17
 519 1075 519 1075 517 973 c 0,18,19
 516 929 516 929 515.5 881.5 c 128,-1,20
 515 834 515 834 514.5 786 c 128,-1,21
 514 738 514 738 513.5 691.5 c 128,-1,22
 513 645 513 645 513 604 c 0,23,24
 513 523 513 523 511.5 441.5 c 128,-1,25
 510 360 510 360 501 285.5 c 128,-1,26
 492 211 492 211 474.5 147 c 128,-1,27
 457 83 457 83 424 35.5 c 128,-1,28
 391 -12 391 -12 341.5 -39 c 128,-1,29
 292 -66 292 -66 220 -66 c 0,30,31
 167 -66 167 -66 126 -51 c 128,-1,32
 85 -36 85 -36 57 -10.5 c 128,-1,33
 29 15 29 15 15 48.5 c 128,-1,34
 1 82 1 82 1 120 c 0,35,36
 1 152 1 152 11.5 184.5 c 128,-1,37
 22 217 22 217 45 249 c 1,38,-1
 227 300 l 1,39,-1
 230 295 l 1,40,41
 188 269 188 269 169 237 c 128,-1,42
 150 205 150 205 150 170 c 0,43,44
 150 151 150 151 156 132 c 128,-1,45
 162 113 162 113 173.5 98 c 128,-1,46
 185 83 185 83 200.5 73.5 c 128,-1,47
 216 64 216 64 234 64 c 0,0,1
EndSplineSet
EndChar

StartChar: D
Encoding: 68 68 13
Width: 827
Flags: W
HStem: 0 110<306 426.624> 0 5<48 54.2637> 1217 110<306 498.094> 1322 5<48 55.0563>
VStem: 163 134<110.773 1216.66> 610 149<421.92 1059.87>
LayerCount: 2
Fore
SplineSet
423 1327 m 2,0,1
 492 1327 492 1327 553 1291.5 c 128,-1,2
 614 1256 614 1256 660 1186.5 c 128,-1,3
 706 1117 706 1117 732.5 1014.5 c 128,-1,4
 759 912 759 912 759 779 c 0,5,6
 759 599 759 599 723 454.5 c 128,-1,7
 687 310 687 310 627.5 209 c 128,-1,8
 568 108 568 108 490.5 54 c 128,-1,9
 413 0 413 0 330 0 c 2,10,-1
 48 0 l 1,11,-1
 48 5 l 1,12,13
 99 22 99 22 121.5 61 c 128,-1,14
 144 100 144 100 147 153 c 0,15,16
 155 314 155 314 159 452 c 128,-1,17
 163 590 163 590 163 721 c 0,18,19
 163 838 163 838 161 953 c 128,-1,20
 159 1068 159 1068 148 1194 c 0,21,22
 143 1241 143 1241 118.5 1274.5 c 128,-1,23
 94 1308 94 1308 48 1322 c 1,24,-1
 48 1327 l 1,25,-1
 423 1327 l 2,0,1
306 110 m 1,26,27
 359 110 359 110 402 137 c 128,-1,28
 445 164 445 164 479 211 c 128,-1,29
 513 258 513 258 537.5 321.5 c 128,-1,30
 562 385 562 385 578 459 c 128,-1,31
 594 533 594 533 602 614 c 128,-1,32
 610 695 610 695 610 776 c 0,33,34
 610 855 610 855 597.5 933.5 c 128,-1,35
 585 1012 585 1012 559.5 1075 c 128,-1,36
 534 1138 534 1138 494 1177 c 128,-1,37
 454 1216 454 1216 400 1216 c 2,38,-1
 306 1217 l 1,39,40
 303 1122 303 1122 301 1027 c 0,41,42
 300 986 300 986 299.5 942 c 128,-1,43
 299 898 299 898 298.5 853 c 128,-1,44
 298 808 298 808 297.5 765 c 128,-1,45
 297 722 297 722 297 684 c 0,46,47
 297 548 297 548 301.5 415 c 128,-1,48
 306 282 306 282 306 149 c 2,49,-1
 306 110 l 1,26,27
EndSplineSet
EndChar

StartChar: V
Encoding: 86 86 14
Width: 739
Flags: W
HStem: 0 21G<188 552> 1322 5<314.119 319 421 425.881>
VStem: 268 204<21.9102 352.341>
LayerCount: 2
Fore
SplineSet
189 5 m 1,0,-1
 204 11 l 1,1,2
 240 27 240 27 255.5 59 c 128,-1,3
 271 91 271 91 268 133 c 0,4,5
 257 259 257 259 238.5 374 c 128,-1,6
 220 489 220 489 200 606 c 0,7,8
 177 736 177 736 148.5 874.5 c 128,-1,9
 120 1013 120 1013 84 1174 c 1,10,11
 71 1227 71 1227 42.5 1266 c 128,-1,12
 14 1305 14 1305 -40 1322 c 1,13,-1
 -41 1327 l 1,14,-1
 319 1327 l 1,15,-1
 320 1322 l 1,16,17
 272 1305 272 1305 254.5 1268.5 c 128,-1,18
 237 1232 237 1232 242 1178 c 1,19,20
 258 1045 258 1045 281 912 c 128,-1,21
 304 779 304 779 327 643 c 1,22,23
 336 579 336 579 347 502.5 c 128,-1,24
 358 426 358 426 370 354 c 1,25,26
 381 426 381 426 392.5 502.5 c 128,-1,27
 404 579 404 579 413 643 c 1,28,29
 436 779 436 779 459 912 c 128,-1,30
 482 1045 482 1045 498 1178 c 1,31,32
 503 1232 503 1232 485.5 1268.5 c 128,-1,33
 468 1305 468 1305 420 1322 c 1,34,-1
 421 1327 l 1,35,-1
 781 1327 l 1,36,-1
 780 1322 l 1,37,38
 726 1305 726 1305 697.5 1266 c 128,-1,39
 669 1227 669 1227 656 1174 c 1,40,41
 620 1013 620 1013 591.5 874.5 c 128,-1,42
 563 736 563 736 540 606 c 0,43,44
 520 489 520 489 501.5 374 c 128,-1,45
 483 259 483 259 472 133 c 0,46,47
 468 91 468 91 484 59 c 128,-1,48
 500 27 500 27 535 11 c 1,49,-1
 551 5 l 1,50,-1
 552 0 l 1,51,-1
 188 0 l 1,52,-1
 189 5 l 1,0,-1
EndSplineSet
EndChar

StartChar: F
Encoding: 70 70 15
Width: 649
Flags: W
HStem: 0 5<42 48.9941 416.234 423> 564 77<301 513.646> 1253 74<314 512.838> 1322 5<42 48.2812>
VStem: 564 4<1113 1119.44> 567 3<456 460.695 744.145 750>
LayerCount: 2
Fore
SplineSet
567 456 m 1,0,1
 557 494 557 494 525 518 c 128,-1,2
 493 542 493 542 449 550 c 0,3,4
 416 555 416 555 380 558 c 128,-1,5
 344 561 344 561 301 564 c 1,6,7
 302 464 302 464 303 366 c 128,-1,8
 304 268 304 268 310 169 c 0,9,10
 314 108 314 108 341 65.5 c 128,-1,11
 368 23 368 23 423 5 c 1,12,-1
 423 0 l 1,13,-1
 42 0 l 1,14,-1
 42 5 l 1,15,16
 99 24 99 24 122.5 68.5 c 128,-1,17
 146 113 146 113 151 173 c 1,18,19
 158 328 158 328 162.5 461.5 c 128,-1,20
 167 595 167 595 167 721 c 0,21,22
 167 833 167 833 165.5 943.5 c 128,-1,23
 164 1054 164 1054 152 1174 c 0,24,25
 147 1228 147 1228 120 1266.5 c 128,-1,26
 93 1305 93 1305 42 1322 c 1,27,-1
 42 1327 l 1,28,-1
 622 1327 l 1,29,30
 614 1288 614 1288 604 1249 c 0,31,32
 596 1216 596 1216 586 1179 c 128,-1,33
 576 1142 576 1142 568 1113 c 1,34,-1
 564 1113 l 1,35,36
 570 1159 570 1159 548.5 1186 c 128,-1,37
 527 1213 527 1213 490.5 1227 c 128,-1,38
 454 1241 454 1241 407 1246 c 128,-1,39
 360 1251 360 1251 314 1253 c 1,40,41
 307 1108 307 1108 304 967 c 128,-1,42
 301 826 301 826 301 684 c 2,43,-1
 301 641 l 1,44,45
 343 641 343 641 379 644.5 c 128,-1,46
 415 648 415 648 451 654 c 0,47,48
 502 663 502 663 530.5 687.5 c 128,-1,49
 559 712 559 712 567 750 c 1,50,-1
 570 750 l 1,51,-1
 570 456 l 1,52,-1
 567 456 l 1,0,1
EndSplineSet
EndChar

StartChar: L
Encoding: 76 76 16
Width: 754
Flags: W
HStem: 0 5<42 48.9961> 1322 5<42 48.2754 415.996 423>
VStem: 167 134<75.5477 1260.2> 470 129<115.626 544.025>
LayerCount: 2
Fore
SplineSet
517 95 m 1,0,1
 514 129 514 129 507.5 173.5 c 128,-1,2
 501 218 501 218 494 266 c 128,-1,3
 487 314 487 314 480.5 362.5 c 128,-1,4
 474 411 474 411 470 452 c 0,5,6
 459 561 459 561 494.5 642 c 128,-1,7
 530 723 530 723 618 769 c 1,8,-1
 758 573 l 1,9,-1
 755 569 l 1,10,11
 735 577 735 577 717 578.5 c 128,-1,12
 699 580 699 580 684 580 c 1,13,14
 643 576 643 576 620.5 545 c 128,-1,15
 598 514 598 514 599 458 c 0,16,17
 600 405 600 405 607.5 347 c 128,-1,18
 615 289 615 289 624 229.5 c 128,-1,19
 633 170 633 170 640 112 c 128,-1,20
 647 54 647 54 647 0 c 1,21,-1
 42 0 l 1,22,-1
 42 5 l 1,23,24
 99 24 99 24 123 68.5 c 128,-1,25
 147 113 147 113 151 173 c 0,26,27
 161 328 161 328 164 461.5 c 128,-1,28
 167 595 167 595 167 721 c 0,29,30
 167 833 167 833 163.5 943.5 c 128,-1,31
 160 1054 160 1054 152 1174 c 1,32,33
 144 1228 144 1228 118.5 1266.5 c 128,-1,34
 93 1305 93 1305 42 1322 c 1,35,-1
 42 1327 l 1,36,-1
 423 1327 l 1,37,-1
 423 1322 l 1,38,39
 366 1303 366 1303 340 1261.5 c 128,-1,40
 314 1220 314 1220 310 1157 c 0,41,42
 307 1115 307 1115 305.5 1061 c 128,-1,43
 304 1007 304 1007 303 945.5 c 128,-1,44
 302 884 302 884 301.5 817.5 c 128,-1,45
 301 751 301 751 301 684 c 0,46,47
 301 530 301 530 304 377.5 c 128,-1,48
 307 225 307 225 313 75 c 1,49,50
 329 76 329 76 353.5 78 c 128,-1,51
 378 80 378 80 405.5 82 c 128,-1,52
 433 84 433 84 462 87 c 128,-1,53
 491 90 491 90 517 95 c 1,0,1
EndSplineSet
EndChar

StartChar: E
Encoding: 69 69 17
Width: 653
Flags: W
HStem: 0 74<313 510.564> 0 5<41 47.2812> 688 77<300 503.543> 1253 74<313 510.564> 1322 5<41 47.2812>
VStem: 166 134<74.1923 688 765 1252.81> 537 3<589 594.864 857.136 863> 561 3<209.693 215 1112 1117.31>
LayerCount: 2
Fore
SplineSet
313 74 m 1,0,1
 370 76 370 76 417.5 82.5 c 128,-1,2
 465 89 465 89 507 109 c 0,3,4
 536 123 536 123 549.5 151.5 c 128,-1,5
 563 180 563 180 561 215 c 1,6,-1
 564 215 l 1,7,8
 577 158 577 158 586 117.5 c 128,-1,9
 595 77 595 77 601 51 c 0,10,11
 608 20 608 20 612 0 c 1,12,-1
 41 0 l 1,13,-1
 41 5 l 1,14,15
 92 22 92 22 119 60.5 c 128,-1,16
 146 99 146 99 151 153 c 1,17,18
 161 309 161 309 163.5 451.5 c 128,-1,19
 166 594 166 594 166 721 c 0,20,21
 166 833 166 833 164.5 943.5 c 128,-1,22
 163 1054 163 1054 151 1174 c 0,23,24
 146 1228 146 1228 119 1266.5 c 128,-1,25
 92 1305 92 1305 41 1322 c 1,26,-1
 41 1327 l 1,27,-1
 612 1327 l 1,28,29
 608 1307 608 1307 601 1276 c 0,30,31
 595 1250 595 1250 586 1209.5 c 128,-1,32
 577 1169 577 1169 564 1112 c 1,33,-1
 561 1112 l 1,34,35
 563 1147 563 1147 549.5 1175.5 c 128,-1,36
 536 1204 536 1204 507 1218 c 0,37,38
 465 1238 465 1238 417.5 1244.5 c 128,-1,39
 370 1251 370 1251 313 1253 c 1,40,41
 307 1129 307 1129 304 1007.5 c 128,-1,42
 301 886 301 886 300 765 c 1,43,44
 333 765 333 765 363.5 765 c 128,-1,45
 394 765 394 765 421 768 c 0,46,47
 473 773 473 773 501 799 c 128,-1,48
 529 825 529 825 537 863 c 1,49,-1
 540 863 l 1,50,-1
 540 589 l 1,51,-1
 537 589 l 1,52,53
 529 627 529 627 500 653 c 128,-1,54
 471 679 471 679 419 684 c 0,55,56
 393 687 393 687 364 687 c 128,-1,57
 335 687 335 687 300 688 c 1,58,-1
 300 684 l 2,59,60
 300 535 300 535 303.5 377.5 c 128,-1,61
 307 220 307 220 313 74 c 1,0,1
EndSplineSet
EndChar

StartChar: W
Encoding: 87 87 18
Width: 1197
Flags: W
HStem: 0 21G<187 551 646 1010> 1322 5<313.119 318 879 883.881>
VStem: 267 204<47.7827 280.822> 497 203<1004.19 1265.36> 726 204<47.7827 280.822>
CounterMasks: 1 38
LayerCount: 2
Fore
SplineSet
647 5 m 1,0,-1
 662 11 l 1,1,2
 698 22 698 22 713.5 47 c 128,-1,3
 729 72 729 72 726 103 c 0,4,5
 716 222 716 222 700 333.5 c 128,-1,6
 684 445 684 445 666 554.5 c 128,-1,7
 648 664 648 664 630 774.5 c 128,-1,8
 612 885 612 885 598 1002 c 1,9,10
 584 885 584 885 566 774.5 c 128,-1,11
 548 664 548 664 530 554.5 c 128,-1,12
 512 445 512 445 496.5 333.5 c 128,-1,13
 481 222 481 222 471 103 c 1,14,15
 467 72 467 72 483 47 c 128,-1,16
 499 22 499 22 534 11 c 1,17,-1
 550 5 l 1,18,-1
 551 0 l 1,19,-1
 187 0 l 1,20,-1
 188 5 l 1,21,-1
 203 11 l 1,22,23
 239 27 239 27 254.5 59 c 128,-1,24
 270 91 270 91 267 133 c 0,25,26
 256 259 256 259 237.5 374 c 128,-1,27
 219 489 219 489 199 606 c 0,28,29
 176 736 176 736 147.5 874.5 c 128,-1,30
 119 1013 119 1013 83 1174 c 1,31,32
 70 1227 70 1227 41.5 1266 c 128,-1,33
 13 1305 13 1305 -41 1322 c 1,34,-1
 -42 1327 l 1,35,-1
 318 1327 l 1,36,-1
 319 1322 l 1,37,38
 271 1305 271 1305 253.5 1268.5 c 128,-1,39
 236 1232 236 1232 241 1178 c 1,40,41
 257 1036 257 1036 280 892 c 128,-1,42
 303 748 303 748 326 603 c 1,43,44
 335 532 335 532 346 447.5 c 128,-1,45
 357 363 357 363 369 284 c 1,46,47
 380 363 380 363 391.5 447.5 c 128,-1,48
 403 532 403 532 412 603 c 1,49,50
 435 748 435 748 458 892 c 128,-1,51
 481 1036 481 1036 497 1178 c 0,52,53
 502 1230 502 1230 485 1266.5 c 128,-1,54
 468 1303 468 1303 423 1320 c 2,55,-1
 418 1322 l 1,56,-1
 417 1327 l 1,57,-1
 780 1327 l 1,58,-1
 779 1322 l 1,59,-1
 773 1320 l 1,60,61
 728 1303 728 1303 711.5 1266.5 c 128,-1,62
 695 1230 695 1230 700 1178 c 0,63,64
 716 1036 716 1036 739 892 c 128,-1,65
 762 748 762 748 785 603 c 1,66,67
 794 532 794 532 805 447.5 c 128,-1,68
 816 363 816 363 828 284 c 1,69,70
 839 363 839 363 850.5 447.5 c 128,-1,71
 862 532 862 532 871 603 c 1,72,73
 894 748 894 748 917 892 c 128,-1,74
 940 1036 940 1036 956 1178 c 1,75,76
 961 1232 961 1232 943.5 1268.5 c 128,-1,77
 926 1305 926 1305 878 1322 c 1,78,-1
 879 1327 l 1,79,-1
 1239 1327 l 1,80,-1
 1238 1322 l 1,81,82
 1184 1305 1184 1305 1155.5 1266 c 128,-1,83
 1127 1227 1127 1227 1114 1174 c 1,84,85
 1078 1013 1078 1013 1049.5 874.5 c 128,-1,86
 1021 736 1021 736 998 606 c 0,87,88
 978 489 978 489 959.5 374 c 128,-1,89
 941 259 941 259 930 133 c 0,90,91
 926 91 926 91 942 59 c 128,-1,92
 958 27 958 27 993 11 c 1,93,-1
 1009 5 l 1,94,-1
 1010 0 l 1,95,-1
 646 0 l 1,96,-1
 647 5 l 1,0,-1
EndSplineSet
EndChar

StartChar: Q
Encoding: 81 81 19
Width: 941
Flags: W
HStem: -18 109<358.484 565.026> 1207 110<363.104 564.76>
VStem: 69 156<315.467 982.544> 708 159<326.695 981.859> 891 4<-232 -226.807>
LayerCount: 2
Fore
SplineSet
891 -232 m 1,0,1
 883 -209 883 -209 861.5 -172.5 c 128,-1,2
 840 -136 840 -136 793.5 -101.5 c 128,-1,3
 747 -67 747 -67 670.5 -42.5 c 128,-1,4
 594 -18 594 -18 476 -18 c 0,5,6
 447 -18 447 -18 419 -22 c 128,-1,7
 391 -26 391 -26 367.5 -30 c 128,-1,8
 344 -34 344 -34 327 -35.5 c 128,-1,9
 310 -37 310 -37 302.5 -32.5 c 128,-1,10
 295 -28 295 -28 298.5 -15.5 c 128,-1,11
 302 -3 302 -3 320 22 c 1,12,13
 263 54 263 54 217 111 c 128,-1,14
 171 168 171 168 138 247.5 c 128,-1,15
 105 327 105 327 87 428 c 128,-1,16
 69 529 69 529 69 649 c 0,17,18
 69 809 69 809 100 933.5 c 128,-1,19
 131 1058 131 1058 185.5 1143 c 128,-1,20
 240 1228 240 1228 313.5 1272.5 c 128,-1,21
 387 1317 387 1317 472 1317 c 0,22,23
 553 1317 553 1317 625 1272.5 c 128,-1,24
 697 1228 697 1228 751 1143 c 128,-1,25
 805 1058 805 1058 836 933.5 c 128,-1,26
 867 809 867 809 867 649 c 0,27,28
 867 550 867 550 853.5 463 c 128,-1,29
 840 376 840 376 815 304 c 128,-1,30
 790 232 790 232 756 174.5 c 128,-1,31
 722 117 722 117 681 76 c 1,32,33
 726 69 726 69 757.5 61 c 128,-1,34
 789 53 789 53 810 45 c 0,35,36
 834 36 834 36 850 28 c 1,37,-1
 895 -230 l 1,38,-1
 891 -232 l 1,0,1
445 92 m 0,39,40
 450 91 450 91 462 91 c 0,41,42
 523 91 523 91 569.5 139 c 128,-1,43
 616 187 616 187 646.5 265 c 128,-1,44
 677 343 677 343 692.5 442.5 c 128,-1,45
 708 542 708 542 708 646 c 0,46,47
 708 716 708 716 701 785 c 128,-1,48
 694 854 694 854 680.5 916 c 128,-1,49
 667 978 667 978 646 1031.5 c 128,-1,50
 625 1085 625 1085 597.5 1124 c 128,-1,51
 570 1163 570 1163 536 1185 c 128,-1,52
 502 1207 502 1207 461 1207 c 0,53,54
 422 1207 422 1207 389.5 1184.5 c 128,-1,55
 357 1162 357 1162 331 1122 c 128,-1,56
 305 1082 305 1082 285 1028 c 128,-1,57
 265 974 265 974 251.5 911 c 128,-1,58
 238 848 238 848 231.5 778 c 128,-1,59
 225 708 225 708 225 638 c 0,60,61
 225 538 225 538 238.5 442.5 c 128,-1,62
 252 347 252 347 279.5 271 c 128,-1,63
 307 195 307 195 348 146.5 c 128,-1,64
 389 98 389 98 445 92 c 0,39,40
EndSplineSet
EndChar

StartChar: P
Encoding: 80 80 20
Width: 740
Flags: W
HStem: 0 5<48 54.2617 402.73 409> 307 115<299 414.08> 1220 107<306.626 472.403> 1322 5<48 55.0563>
VStem: 163 134<56.2378 153 840 922> 518 160<611.844 1160.33>
LayerCount: 2
Fore
SplineSet
48 1327 m 1,0,-1
 443 1327 l 2,1,2
 491 1327 491 1327 533.5 1302 c 128,-1,3
 576 1277 576 1277 608.5 1229 c 128,-1,4
 641 1181 641 1181 659.5 1110 c 128,-1,5
 678 1039 678 1039 678 947 c 0,6,7
 678 885 678 885 671 812 c 128,-1,8
 664 739 664 739 647.5 666 c 128,-1,9
 631 593 631 593 602.5 525.5 c 128,-1,10
 574 458 574 458 532 407.5 c 128,-1,11
 490 357 490 357 432.5 329 c 128,-1,12
 375 301 375 301 299 307 c 1,13,14
 301 267 301 267 302.5 227.5 c 128,-1,15
 304 188 304 188 306 149 c 0,16,17
 310 95 310 95 334 58.5 c 128,-1,18
 358 22 358 22 409 5 c 1,19,-1
 409 0 l 1,20,-1
 48 0 l 1,21,-1
 48 5 l 1,22,23
 99 22 99 22 121 61 c 128,-1,24
 143 100 143 100 147 153 c 1,25,26
 154 314 154 314 158.5 452 c 128,-1,27
 163 590 163 590 163 721 c 0,28,29
 163 838 163 838 161.5 953 c 128,-1,30
 160 1068 160 1068 148 1194 c 0,31,32
 143 1241 143 1241 118.5 1274.5 c 128,-1,33
 94 1308 94 1308 48 1322 c 1,34,-1
 48 1327 l 1,0,-1
297 684 m 0,35,36
 297 618 297 618 297.5 553 c 128,-1,37
 298 488 298 488 299 422 c 1,38,39
 419 422 419 422 468.5 553 c 128,-1,40
 518 684 518 684 518 947 c 0,41,42
 518 1079 518 1079 486.5 1149.5 c 128,-1,43
 455 1220 455 1220 392 1220 c 0,44,45
 372 1220 372 1220 349 1219.5 c 128,-1,46
 326 1219 326 1219 306 1217 c 1,47,-1
 306 1177 l 1,48,49
 303 1089 303 1089 301 1001 c 0,50,51
 300 963 300 963 299.5 922 c 128,-1,52
 299 881 299 881 298.5 840 c 128,-1,53
 298 799 298 799 297.5 759 c 128,-1,54
 297 719 297 719 297 684 c 0,35,36
EndSplineSet
EndChar

StartChar: K
Encoding: 75 75 21
Width: 772
Flags: W
HStem: -220 144<801.125 884> 0 5<48 54.2617 402.729 409> 1193 200<666.281 773> 1322 5<48 55.0563 402.663 409>
VStem: 163 134<56.2378 647.014 782 1273.7>
LayerCount: 2
Fore
SplineSet
409 1322 m 1,0,1
 306 1289 306 1289 306 1177 c 1,2,3
 304 1114 304 1114 302 1047 c 0,4,5
 300 990 300 990 299 920 c 128,-1,6
 298 850 298 850 297 782 c 1,7,8
 323 835 323 835 344.5 876.5 c 128,-1,9
 366 918 366 918 388.5 960 c 128,-1,10
 411 1002 411 1002 437 1051 c 128,-1,11
 463 1100 463 1100 499 1168 c 0,12,13
 524 1216 524 1216 550.5 1257 c 128,-1,14
 577 1298 577 1298 609 1327.5 c 128,-1,15
 641 1357 641 1357 681 1374 c 128,-1,16
 721 1391 721 1391 773 1393 c 1,17,-1
 831 1157 l 1,18,-1
 825 1154 l 1,19,20
 786 1193 786 1193 748 1193 c 0,21,22
 718 1193 718 1193 690 1171 c 128,-1,23
 662 1149 662 1149 638 1113 c 0,24,25
 591 1044 591 1044 541 968 c 128,-1,26
 491 892 491 892 446 820 c 1,27,28
 475 731 475 731 511 633.5 c 128,-1,29
 547 536 547 536 587 437.5 c 128,-1,30
 627 339 627 339 668.5 242 c 128,-1,31
 710 145 710 145 751 57 c 0,32,33
 763 32 763 32 775.5 8 c 128,-1,34
 788 -16 788 -16 803 -34.5 c 128,-1,35
 818 -53 818 -53 835.5 -64.5 c 128,-1,36
 853 -76 853 -76 876 -76 c 0,37,38
 892 -76 892 -76 910.5 -69.5 c 128,-1,39
 929 -63 929 -63 951 -47 c 1,40,-1
 956 -50 l 1,41,-1
 884 -220 l 1,42,43
 822 -220 822 -220 778 -200.5 c 128,-1,44
 734 -181 734 -181 702 -147.5 c 128,-1,45
 670 -114 670 -114 647 -70 c 128,-1,46
 624 -26 624 -26 606 23 c 0,47,48
 586 75 586 75 562.5 139.5 c 128,-1,49
 539 204 539 204 514 271 c 128,-1,50
 489 338 489 338 465 404 c 128,-1,51
 441 470 441 470 422 526 c 2,52,-1
 368 692 l 1,53,54
 344 651 344 651 326 620.5 c 128,-1,55
 308 590 308 590 297 570 c 1,56,57
 297 464 297 464 298 359 c 128,-1,58
 299 254 299 254 306 149 c 0,59,60
 309 95 309 95 333.5 58.5 c 128,-1,61
 358 22 358 22 409 5 c 1,62,-1
 409 0 l 1,63,-1
 48 0 l 1,64,-1
 48 5 l 1,65,66
 99 22 99 22 121 61 c 128,-1,67
 143 100 143 100 147 153 c 1,68,69
 154 314 154 314 158.5 452 c 128,-1,70
 163 590 163 590 163 721 c 0,71,72
 163 838 163 838 161.5 953 c 128,-1,73
 160 1068 160 1068 148 1194 c 0,74,75
 143 1241 143 1241 118.5 1274.5 c 128,-1,76
 94 1308 94 1308 48 1322 c 1,77,-1
 48 1327 l 1,78,-1
 409 1327 l 1,79,-1
 409 1322 l 1,0,1
EndSplineSet
EndChar

StartChar: I
Encoding: 73 73 22
Width: 457
Flags: W
HStem: 0 5<48 54.2617 402.73 409> 1322 5<48 55.0563 402.663 409>
VStem: 147 159<38.7734 447.682> 163 134<56.2378 1273.7>
LayerCount: 2
Fore
SplineSet
409 1322 m 1,0,1
 306 1289 306 1289 306 1177 c 1,2,3
 303 1089 303 1089 301 1001 c 0,4,5
 300 963 300 963 299.5 922 c 128,-1,6
 299 881 299 881 298.5 840 c 128,-1,7
 298 799 298 799 297.5 759 c 128,-1,8
 297 719 297 719 297 684 c 0,9,10
 297 548 297 548 297.5 415 c 128,-1,11
 298 282 298 282 306 149 c 0,12,13
 310 95 310 95 334 58.5 c 128,-1,14
 358 22 358 22 409 5 c 1,15,-1
 409 0 l 1,16,-1
 48 0 l 1,17,-1
 48 5 l 1,18,19
 99 22 99 22 121 61 c 128,-1,20
 143 100 143 100 147 153 c 1,21,22
 154 314 154 314 158.5 452 c 128,-1,23
 163 590 163 590 163 721 c 0,24,25
 163 838 163 838 161.5 953 c 128,-1,26
 160 1068 160 1068 148 1194 c 0,27,28
 143 1241 143 1241 118.5 1274.5 c 128,-1,29
 94 1308 94 1308 48 1322 c 1,30,-1
 48 1327 l 1,31,-1
 409 1327 l 1,32,-1
 409 1322 l 1,0,1
EndSplineSet
EndChar

StartChar: X
Encoding: 88 88 23
Width: 786
Flags: W
HStem: 0 21G<-10 351 459 820> 1322 5<-38 -31.0049 429 434.389 782.011 789>
LayerCount: 2
Fore
SplineSet
-40 1327 m 1,0,-1
 320 1327 l 1,1,-1
 322 1322 l 1,2,3
 281 1308 281 1308 269 1274.5 c 128,-1,4
 257 1241 257 1241 270 1194 c 0,5,6
 296 1103 296 1103 325 1018 c 128,-1,7
 354 933 354 933 385 848 c 1,8,9
 413 933 413 933 438.5 1018 c 128,-1,10
 464 1103 464 1103 486 1194 c 0,11,12
 497 1241 497 1241 483.5 1274.5 c 128,-1,13
 470 1308 470 1308 428 1322 c 1,14,-1
 429 1327 l 1,15,-1
 790 1327 l 1,16,-1
 789 1322 l 1,17,18
 676 1289 676 1289 638 1177 c 1,19,20
 606 1089 606 1089 575 1001 c 0,21,22
 561 963 561 963 546.5 922 c 128,-1,23
 532 881 532 881 518 840 c 128,-1,24
 504 799 504 799 490.5 759 c 128,-1,25
 477 719 477 719 465 684 c 0,26,27
 463 678 463 678 461 672 c 128,-1,28
 459 666 459 666 457 660 c 1,29,30
 502 543 502 543 552.5 419.5 c 128,-1,31
 603 296 603 296 664 153 c 0,32,33
 687 100 687 100 724.5 61 c 128,-1,34
 762 22 762 22 819 5 c 1,35,-1
 820 0 l 1,36,-1
 460 0 l 1,37,-1
 459 5 l 1,38,39
 504 22 504 22 514 58.5 c 128,-1,40
 524 95 524 95 507 149 c 0,41,42
 481 229 481 229 452.5 309.5 c 128,-1,43
 424 390 424 390 394 471 c 1,44,45
 368 390 368 390 343 309.5 c 128,-1,46
 318 229 318 229 296 149 c 0,47,48
 282 95 282 95 294 58.5 c 128,-1,49
 306 22 306 22 351 5 c 1,50,-1
 350 0 l 1,51,-1
 -10 0 l 1,52,-1
 -9 5 l 1,53,54
 48 22 48 22 83.5 61 c 128,-1,55
 119 100 119 100 140 153 c 0,56,57
 194 296 194 296 238.5 419.5 c 128,-1,58
 283 543 283 543 322 660 c 1,59,-1
 314 684 l 1,60,61
 301 719 301 719 285.5 759 c 128,-1,62
 270 799 270 799 254 840 c 128,-1,63
 238 881 238 881 221.5 922 c 128,-1,64
 205 963 205 963 190 1001 c 0,65,66
 155 1089 155 1089 119 1177 c 1,67,68
 75 1289 75 1289 -38 1322 c 1,69,-1
 -40 1327 l 1,0,-1
EndSplineSet
EndChar

StartChar: Y
Encoding: 89 89 24
Width: 730
Flags: W
HStem: 0 5<181 189.82> 1322 5<309.115 314 416 420.883>
VStem: 286 158.5<46.8125 577.777>
LayerCount: 2
Fore
SplineSet
181 5 m 1,0,1
 229 16 229 16 256.5 72 c 128,-1,2
 284 128 284 128 286 217 c 2,3,-1
 289 331 l 1,4,5
 279 404 279 404 264.5 473 c 128,-1,6
 250 542 250 542 233.5 609.5 c 128,-1,7
 217 677 217 677 199 743 c 128,-1,8
 181 809 181 809 165 876 c 1,9,10
 146 945 146 945 124 1019 c 128,-1,11
 102 1093 102 1093 79 1174 c 0,12,13
 64 1226 64 1226 36.5 1265.5 c 128,-1,14
 9 1305 9 1305 -45 1322 c 1,15,-1
 -46 1327 l 1,16,-1
 314 1327 l 1,17,-1
 315 1322 l 1,18,19
 267 1305 267 1305 248.5 1268.5 c 128,-1,20
 230 1232 230 1232 237 1178 c 0,21,22
 248 1102 248 1102 264.5 1031.5 c 128,-1,23
 281 961 281 961 298.5 892 c 128,-1,24
 316 823 316 823 333.5 752.5 c 128,-1,25
 351 682 351 682 365 606 c 1,26,27
 379 682 379 682 396.5 752.5 c 128,-1,28
 414 823 414 823 432 892 c 128,-1,29
 450 961 450 961 466 1031.5 c 128,-1,30
 482 1102 482 1102 493 1178 c 1,31,32
 499 1232 499 1232 481 1268.5 c 128,-1,33
 463 1305 463 1305 415 1322 c 1,34,-1
 416 1327 l 1,35,-1
 776 1327 l 1,36,-1
 775 1322 l 1,37,38
 721 1305 721 1305 693.5 1265.5 c 128,-1,39
 666 1226 666 1226 651 1174 c 0,40,41
 628 1093 628 1093 606 1019 c 128,-1,42
 584 945 584 945 565 876 c 1,43,44
 549 813 549 813 532 751.5 c 128,-1,45
 515 690 515 690 499 627.5 c 128,-1,46
 483 565 483 565 469 501 c 128,-1,47
 455 437 455 437 445 369 c 1,48,-1
 443 223 l 2,49,50
 443 185 443 185 444.5 152.5 c 128,-1,51
 446 120 446 120 455 93 c 128,-1,52
 464 66 464 66 483.5 43.5 c 128,-1,53
 503 21 503 21 539 5 c 1,54,-1
 539 0 l 1,55,-1
 181 0 l 1,56,-1
 181 5 l 1,0,1
EndSplineSet
EndChar

StartChar: Z
Encoding: 90 90 25
Width: 679
Flags: W
HStem: 0 114<296 568.516> 1213 114<114.637 401> 1322 5<693.078 700>
VStem: 43 9<1074 1107.04> 638 9<227.868 253>
LayerCount: 2
Fore
SplineSet
285 684 m 0,0,1
 318 817 318 817 346.5 947 c 128,-1,2
 375 1077 375 1077 401 1213 c 1,3,4
 341 1211 341 1211 279 1206.5 c 128,-1,5
 217 1202 217 1202 166 1188 c 128,-1,6
 115 1174 115 1174 83 1147 c 128,-1,7
 51 1120 51 1120 52 1074 c 1,8,-1
 43 1073 l 1,9,10
 43 1108 43 1108 43.5 1152 c 128,-1,11
 44 1196 44 1196 46 1235 c 0,12,13
 48 1281 48 1281 50 1327 c 1,14,-1
 700 1327 l 1,15,-1
 700 1322 l 1,16,17
 644 1305 644 1305 608 1266.5 c 128,-1,18
 572 1228 572 1228 553 1174 c 0,19,20
 512 1055 512 1055 484.5 943.5 c 128,-1,21
 457 832 457 832 429 721 c 0,22,23
 397 594 397 594 365.5 461 c 128,-1,24
 334 328 334 328 301 173 c 1,25,26
 295 139 295 139 296 114 c 1,27,28
 354 116 354 116 413.5 121 c 128,-1,29
 473 126 473 126 521.5 140 c 128,-1,30
 570 154 570 154 602.5 181 c 128,-1,31
 635 208 635 208 638 253 c 1,32,-1
 647 254 l 1,33,34
 644 219 644 219 639 175 c 128,-1,35
 634 131 634 131 629 92 c 0,36,37
 624 46 624 46 618 0 c 1,38,-1
 -13 0 l 1,39,-1
 -12 5 l 1,40,41
 47 23 47 23 84.5 65.5 c 128,-1,42
 122 108 122 108 140 169 c 1,43,44
 159 229 159 229 178.5 294.5 c 128,-1,45
 198 360 198 360 216.5 426 c 128,-1,46
 235 492 235 492 252.5 557.5 c 128,-1,47
 270 623 270 623 285 684 c 0,0,1
EndSplineSet
EndChar

StartChar: k
Encoding: 107 107 26
Width: 819
Flags: W
HStem: 0 5<25 31.2617 379.73 386> 897 179<601.859 711> 1262 5<-5 3.82812>
VStem: 140 134<56.2378 342 531 1236.3>
LayerCount: 2
Fore
SplineSet
286 1347 m 1,0,1
 275 1204 275 1204 274.5 1036.5 c 128,-1,2
 274 869 274 869 274 684 c 2,3,-1
 274 531 l 1,4,5
 298 577 298 577 325 630 c 0,6,7
 348 675 348 675 377 732.5 c 128,-1,8
 406 790 406 790 437 851 c 0,9,10
 462 900 462 900 488 940.5 c 128,-1,11
 514 981 514 981 546.5 1010.5 c 128,-1,12
 579 1040 579 1040 619 1057 c 128,-1,13
 659 1074 659 1074 711 1076 c 1,14,-1
 769 867 l 1,15,-1
 763 861 l 1,16,17
 740 885 740 885 715.5 891 c 128,-1,18
 691 897 691 897 675 897 c 0,19,20
 646 897 646 897 622.5 875.5 c 128,-1,21
 599 854 599 854 576 816 c 0,22,23
 551 775 551 775 524 731 c 128,-1,24
 497 687 497 687 474 650 c 0,25,26
 447 607 447 607 421 565 c 1,27,-1
 621 227 l 2,28,29
 649 179 649 179 672 154 c 128,-1,30
 695 129 695 129 727 129 c 0,31,32
 755 129 755 129 799 153 c 1,33,-1
 805 148 l 1,34,-1
 714 -60 l 1,35,36
 663 -51 663 -51 630.5 -29 c 128,-1,37
 598 -7 598 -7 574.5 24.5 c 128,-1,38
 551 56 551 56 531.5 96.5 c 128,-1,39
 512 137 512 137 485 184 c 1,40,-1
 343 457 l 1,41,-1
 276 342 l 1,42,43
 277 298 277 298 278.5 245 c 128,-1,44
 280 192 280 192 283 149 c 0,45,46
 287 95 287 95 311 58.5 c 128,-1,47
 335 22 335 22 386 5 c 1,48,-1
 386 0 l 1,49,-1
 25 0 l 1,50,-1
 25 5 l 1,51,52
 76 22 76 22 98 61 c 128,-1,53
 120 100 120 100 124 153 c 1,54,55
 131 314 131 314 135.5 452 c 128,-1,56
 140 590 140 590 140 721 c 0,57,58
 140 849 140 849 139.5 938.5 c 128,-1,59
 139 1028 139 1028 135 1088 c 128,-1,60
 131 1148 131 1148 122.5 1183 c 128,-1,61
 114 1218 114 1218 97.5 1235.5 c 128,-1,62
 81 1253 81 1253 56 1257.5 c 128,-1,63
 31 1262 31 1262 -5 1262 c 1,64,-1
 -5 1267 l 1,65,-1
 286 1347 l 1,0,1
EndSplineSet
EndChar

StartChar: question
Encoding: 63 63 27
Width: 739
Flags: W
HStem: -29 202<211.909 366.155> 1191 138<250.438 485.116>
VStem: 38 151<897.903 1128.24> 182 202<0.909424 155.155> 238 93<270 447.646> 552 146<804.833 1123.52>
LayerCount: 2
Fore
SplineSet
238 270 m 1,0,1
 238 356 238 356 261.5 422 c 128,-1,2
 285 488 285 488 319.5 542.5 c 128,-1,3
 354 597 354 597 395 644.5 c 128,-1,4
 436 692 436 692 470.5 742.5 c 128,-1,5
 505 793 505 793 528.5 850.5 c 128,-1,6
 552 908 552 908 552 983 c 0,7,8
 552 1036 552 1036 535.5 1075.5 c 128,-1,9
 519 1115 519 1115 492 1140.5 c 128,-1,10
 465 1166 465 1166 431.5 1178.5 c 128,-1,11
 398 1191 398 1191 364 1191 c 0,12,13
 322 1191 322 1191 289 1173.5 c 128,-1,14
 256 1156 256 1156 234 1128.5 c 128,-1,15
 212 1101 212 1101 200.5 1067 c 128,-1,16
 189 1033 189 1033 189 1000 c 0,17,18
 189 976 189 976 195.5 954 c 128,-1,19
 202 932 202 932 215 915.5 c 128,-1,20
 228 899 228 899 247.5 889 c 128,-1,21
 267 879 267 879 294 879 c 0,22,23
 312 879 312 879 333 882 c 1,24,-1
 187 779 l 1,25,26
 107 824 107 824 72.5 885 c 128,-1,27
 38 946 38 946 38 1011 c 0,28,29
 38 1071 38 1071 63.5 1128 c 128,-1,30
 89 1185 89 1185 132.5 1229.5 c 128,-1,31
 176 1274 176 1274 234 1301.5 c 128,-1,32
 292 1329 292 1329 357 1329 c 0,33,34
 432 1329 432 1329 495 1307.5 c 128,-1,35
 558 1286 558 1286 603 1244 c 128,-1,36
 648 1202 648 1202 673 1139 c 128,-1,37
 698 1076 698 1076 698 992 c 0,38,39
 698 915 698 915 682 857.5 c 128,-1,40
 666 800 666 800 640.5 755 c 128,-1,41
 615 710 615 710 582 674 c 128,-1,42
 549 638 549 638 514.5 605.5 c 128,-1,43
 480 573 480 573 447 540.5 c 128,-1,44
 414 508 414 508 388.5 469 c 128,-1,45
 363 430 363 430 347 382 c 128,-1,46
 331 334 331 334 331 270 c 1,47,-1
 238 270 l 1,0,1
182 71 m 0,48,49
 182 92 182 92 190 110.5 c 128,-1,50
 198 129 198 129 211.5 143 c 128,-1,51
 225 157 225 157 243 165 c 128,-1,52
 261 173 261 173 282 173 c 256,53,54
 303 173 303 173 321.5 165 c 128,-1,55
 340 157 340 157 354 143 c 128,-1,56
 368 129 368 129 376 110.5 c 128,-1,57
 384 92 384 92 384 71 c 256,58,59
 384 50 384 50 376 32 c 128,-1,60
 368 14 368 14 354 0.5 c 128,-1,61
 340 -13 340 -13 321.5 -21 c 128,-1,62
 303 -29 303 -29 282 -29 c 0,63,64
 240 -29 240 -29 211 0 c 128,-1,65
 182 29 182 29 182 71 c 0,48,49
EndSplineSet
EndChar

StartChar: o
Encoding: 111 111 28
Width: 724
Flags: W
HStem: -29 106<284.579 445.33> 885 107<284.579 445.33>
VStem: 63 150<194.95 770.313> 511 150<194.95 770.313>
LayerCount: 2
Fore
SplineSet
213 482 m 256,0,1
 213 281 213 281 253 179 c 128,-1,2
 293 77 293 77 365 77 c 0,3,4
 438 77 438 77 474.5 179 c 128,-1,5
 511 281 511 281 511 482 c 256,6,7
 511 683 511 683 474.5 784 c 128,-1,8
 438 885 438 885 365 885 c 0,9,10
 293 885 293 885 253 784 c 128,-1,11
 213 683 213 683 213 482 c 256,0,1
63 482 m 256,12,13
 63 605 63 605 86.5 700 c 128,-1,14
 110 795 110 795 150.5 860 c 128,-1,15
 191 925 191 925 246 958.5 c 128,-1,16
 301 992 301 992 365 992 c 0,17,18
 426 992 426 992 480 958.5 c 128,-1,19
 534 925 534 925 574 860 c 128,-1,20
 614 795 614 795 637.5 700 c 128,-1,21
 661 605 661 605 661 482 c 256,22,23
 661 359 661 359 637.5 264 c 128,-1,24
 614 169 614 169 574 104 c 128,-1,25
 534 39 534 39 480 5 c 128,-1,26
 426 -29 426 -29 365 -29 c 0,27,28
 301 -29 301 -29 246 5 c 128,-1,29
 191 39 191 39 150.5 104 c 128,-1,30
 110 169 110 169 86.5 264 c 128,-1,31
 63 359 63 359 63 482 c 256,12,13
EndSplineSet
EndChar

StartChar: p
Encoding: 112 112 29
Width: 811
Flags: W
HStem: -371 21G<127 197.75> -291 5<407.262 416> -16 96<316.071 511.682> 900 91<337.311 511.969> 971 5<16 22.7656>
VStem: 137 134<-253.094 70 125.049 825> 597 150<194.494 771.295>
LayerCount: 2
Fore
SplineSet
138 352 m 2,0,1
 139 470 139 470 137.5 581 c 128,-1,2
 136 692 136 692 129 807 c 0,3,4
 125 868 125 868 98 910.5 c 128,-1,5
 71 953 71 953 16 971 c 1,6,-1
 16 976 l 1,7,-1
 201 976 l 1,8,9
 233 962 233 962 249.5 938 c 128,-1,10
 266 914 266 914 274 885 c 1,11,12
 280 896 280 896 293 914 c 128,-1,13
 306 932 306 932 327 948.5 c 128,-1,14
 348 965 348 965 377.5 977.5 c 128,-1,15
 407 990 407 990 446 991 c 0,16,17
 521 992 521 992 577 952.5 c 128,-1,18
 633 913 633 913 671 842.5 c 128,-1,19
 709 772 709 772 728 675 c 128,-1,20
 747 578 747 578 747 464 c 0,21,22
 747 351 747 351 724 262 c 128,-1,23
 701 173 701 173 659.5 111 c 128,-1,24
 618 49 618 49 560.5 16.5 c 128,-1,25
 503 -16 503 -16 434 -16 c 0,26,27
 415 -16 415 -16 392.5 -11.5 c 128,-1,28
 370 -7 370 -7 347.5 3.5 c 128,-1,29
 325 14 325 14 305.5 30.5 c 128,-1,30
 286 47 286 47 273 70 c 1,31,32
 273 -23 273 -23 274 -90 c 128,-1,33
 275 -157 275 -157 287.5 -200.5 c 128,-1,34
 300 -244 300 -244 329.5 -265 c 128,-1,35
 359 -286 359 -286 416 -286 c 1,36,-1
 416 -291 l 1,37,-1
 125 -371 l 1,38,39
 129 -335 129 -335 131 -274 c 128,-1,40
 133 -213 133 -213 134.5 -142 c 128,-1,41
 136 -71 136 -71 136.5 2 c 128,-1,42
 137 75 137 75 137 136 c 2,43,-1
 138 352 l 2,0,1
429 900 m 0,44,45
 401 900 401 900 375 886 c 128,-1,46
 349 872 349 872 328.5 844.5 c 128,-1,47
 308 817 308 817 294.5 776 c 128,-1,48
 281 735 281 735 279 680 c 1,49,50
 276 630 276 630 274.5 585.5 c 128,-1,51
 273 541 273 541 272.5 498.5 c 128,-1,52
 272 456 272 456 271.5 414 c 128,-1,53
 271 372 271 372 271 327 c 0,54,55
 271 237 271 237 287 187 c 128,-1,56
 303 137 303 137 325 113.5 c 128,-1,57
 347 90 347 90 370.5 85 c 128,-1,58
 394 80 394 80 408 80 c 0,59,60
 597 80 597 80 597 464 c 0,61,62
 597 570 597 570 585 651.5 c 128,-1,63
 573 733 573 733 550.5 788 c 128,-1,64
 528 843 528 843 497 871.5 c 128,-1,65
 466 900 466 900 429 900 c 0,44,45
EndSplineSet
EndChar

StartChar: t
Encoding: 116 116 30
Width: 539
Flags: W
HStem: -28 109<279.133 398.329> 891 77<23.2512 121 261 489.709> 908 60<23 120.197>
VStem: 123 134.5<111.947 891 968 1127.87>
LayerCount: 2
Fore
SplineSet
331 968 m 1,0,1
 386 968 386 968 424.5 969.5 c 128,-1,2
 463 971 463 971 488 973 c 0,3,4
 517 975 517 975 535 978 c 1,5,-1
 495 848 l 1,6,7
 484 859 484 859 463 869 c 0,8,9
 445 877 445 877 413 884 c 128,-1,10
 381 891 381 891 330 891 c 2,11,-1
 258 891 l 1,12,13
 257 856 257 856 257 819.5 c 128,-1,14
 257 783 257 783 257 745 c 0,15,16
 257 658 257 658 257.5 589.5 c 128,-1,17
 258 521 258 521 258.5 460.5 c 128,-1,18
 259 400 259 400 259.5 340.5 c 128,-1,19
 260 281 260 281 260 211 c 256,20,21
 260 141 260 141 283 111 c 128,-1,22
 306 81 306 81 335 81 c 0,23,24
 351 81 351 81 367 91.5 c 128,-1,25
 383 102 383 102 396 121.5 c 128,-1,26
 409 141 409 141 417 167.5 c 128,-1,27
 425 194 425 194 425 226 c 0,28,29
 425 252 425 252 419 269 c 1,30,-1
 422 271 l 1,31,-1
 549 56 l 1,32,33
 484 11 484 11 428.5 -8.5 c 128,-1,34
 373 -28 373 -28 325 -28 c 0,35,36
 276 -28 276 -28 237.5 -3.5 c 128,-1,37
 199 21 199 21 172.5 61 c 128,-1,38
 146 101 146 101 132 152.5 c 128,-1,39
 118 204 118 204 118 258 c 0,40,41
 118 319 118 319 119 365.5 c 128,-1,42
 120 412 120 412 120.5 453 c 128,-1,43
 121 494 121 494 122 533.5 c 128,-1,44
 123 573 123 573 123 621 c 0,45,46
 123 709 123 709 123 776.5 c 128,-1,47
 123 844 123 844 122 896 c 1,48,49
 93 898 93 898 74 900 c 128,-1,50
 55 902 55 902 44 904 c 0,51,52
 31 906 31 906 23 908 c 1,53,-1
 23 968 l 1,54,-1
 121 968 l 1,55,56
 119 1026 119 1026 116 1058.5 c 128,-1,57
 113 1091 113 1091 107 1107.5 c 128,-1,58
 101 1124 101 1124 91.5 1128 c 128,-1,59
 82 1132 82 1132 68 1132 c 1,60,-1
 68 1137 l 1,61,-1
 299 1247 l 1,62,63
 282 1182 282 1182 273.5 1112.5 c 128,-1,64
 265 1043 265 1043 261 968 c 1,65,-1
 331 968 l 1,0,1
EndSplineSet
EndChar

StartChar: l
Encoding: 108 108 31
Width: 410
Flags: W
HStem: 0 5<25 31.2617 379.73 386> 1262 5<-5 3.82812>
VStem: 140 134<56.2378 1236.38>
LayerCount: 2
Fore
SplineSet
286 1347 m 1,0,1
 275 1204 275 1204 274.5 1037 c 128,-1,2
 274 870 274 870 274 684 c 0,3,4
 274 548 274 548 274.5 415 c 128,-1,5
 275 282 275 282 283 149 c 0,6,7
 287 95 287 95 311 58.5 c 128,-1,8
 335 22 335 22 386 5 c 1,9,-1
 386 0 l 1,10,-1
 25 0 l 1,11,-1
 25 5 l 1,12,13
 76 22 76 22 98 61 c 128,-1,14
 120 100 120 100 124 153 c 1,15,16
 131 314 131 314 135.5 452 c 128,-1,17
 140 590 140 590 140 721 c 0,18,19
 140 849 140 849 139.5 938.5 c 128,-1,20
 139 1028 139 1028 135 1088 c 128,-1,21
 131 1148 131 1148 122.5 1183 c 128,-1,22
 114 1218 114 1218 97.5 1235.5 c 128,-1,23
 81 1253 81 1253 56 1257.5 c 128,-1,24
 31 1262 31 1262 -5 1262 c 1,25,-1
 -5 1267 l 1,26,-1
 286 1347 l 1,0,1
EndSplineSet
EndChar

StartChar: m
Encoding: 109 109 32
Width: 1245
Flags: W
HStem: 0 5<40 46.2637 377.286 385 792.273 799 910 914.916 1233.61 1242> 885 107<360.419 529.389 779.154 948.509>
VStem: 150 133<46.2721 799.088> 566 150<46.2721 817.848> 995 135<46.2721 836.578>
LayerCount: 2
Fore
SplineSet
706 637 m 1,0,1
 710 578 710 578 712 513 c 128,-1,2
 714 448 714 448 715 381.5 c 128,-1,3
 716 315 716 315 716 248 c 128,-1,4
 716 181 716 181 716 117 c 1,5,6
 717 91 717 91 723 73 c 128,-1,7
 729 55 729 55 739 42.5 c 128,-1,8
 749 30 749 30 764 21 c 128,-1,9
 779 12 779 12 799 5 c 1,10,-1
 799 0 l 1,11,-1
 497 0 l 1,12,-1
 497 5 l 1,13,14
 532 21 532 21 548 45.5 c 128,-1,15
 564 70 564 70 566 121 c 0,16,17
 567 162 567 162 568.5 203.5 c 128,-1,18
 570 245 570 245 570.5 283 c 128,-1,19
 571 321 571 321 571.5 353.5 c 128,-1,20
 572 386 572 386 572 409 c 0,21,22
 572 515 572 515 569.5 603 c 128,-1,23
 567 691 567 691 556.5 753.5 c 128,-1,24
 546 816 546 816 524 850.5 c 128,-1,25
 502 885 502 885 463 885 c 0,26,27
 427 885 427 885 394 866 c 128,-1,28
 361 847 361 847 336.5 812.5 c 128,-1,29
 312 778 312 778 297.5 730 c 128,-1,30
 283 682 283 682 283 624 c 2,31,-1
 283 534 l 2,32,33
 283 486 283 486 283.5 432.5 c 128,-1,34
 284 379 284 379 285 325 c 128,-1,35
 286 271 286 271 287.5 218 c 128,-1,36
 289 165 289 165 292 117 c 0,37,38
 294 91 294 91 300.5 73 c 128,-1,39
 307 55 307 55 318 42.5 c 128,-1,40
 329 30 329 30 345.5 21 c 128,-1,41
 362 12 362 12 385 5 c 1,42,-1
 385 0 l 1,43,-1
 40 0 l 1,44,-1
 40 5 l 1,45,46
 91 21 91 21 113.5 45.5 c 128,-1,47
 136 70 136 70 139 121 c 0,48,49
 141 169 141 169 143 220.5 c 128,-1,50
 145 272 145 272 146.5 322.5 c 128,-1,51
 148 373 148 373 149 421 c 128,-1,52
 150 469 150 469 150 511 c 0,53,54
 150 614 150 614 148 682.5 c 128,-1,55
 146 751 146 751 134.5 792 c 128,-1,56
 123 833 123 833 97.5 850 c 128,-1,57
 72 867 72 867 25 867 c 1,58,-1
 25 872 l 1,59,-1
 296 992 l 1,60,61
 288 969 288 969 287 938.5 c 128,-1,62
 286 908 286 908 286 876 c 1,63,64
 306 912 306 912 330 934.5 c 128,-1,65
 354 957 354 957 379 969.5 c 128,-1,66
 404 982 404 982 428.5 987 c 128,-1,67
 453 992 453 992 474 992 c 0,68,69
 538 992 538 992 586.5 955 c 128,-1,70
 635 918 635 918 664 846 c 1,71,72
 687 890 687 890 714.5 918.5 c 128,-1,73
 742 947 742 947 770.5 963.5 c 128,-1,74
 799 980 799 980 826.5 986 c 128,-1,75
 854 992 854 992 877 992 c 0,76,77
 994 992 994 992 1062 890 c 128,-1,78
 1130 788 1130 788 1130 592 c 0,79,80
 1130 528 1130 528 1130 469 c 128,-1,81
 1130 410 1130 410 1131 352 c 128,-1,82
 1132 294 1132 294 1134 236 c 128,-1,83
 1136 178 1136 178 1139 117 c 0,84,85
 1141 91 1141 91 1148 73 c 128,-1,86
 1155 55 1155 55 1168 42.5 c 128,-1,87
 1181 30 1181 30 1199 21 c 128,-1,88
 1217 12 1217 12 1242 5 c 1,89,-1
 1242 0 l 1,90,-1
 910 0 l 1,91,-1
 910 5 l 1,92,93
 950 21 950 21 968.5 45.5 c 128,-1,94
 987 70 987 70 989 121 c 0,95,96
 990 162 990 162 991.5 203.5 c 128,-1,97
 993 245 993 245 993.5 283 c 128,-1,98
 994 321 994 321 994.5 353.5 c 128,-1,99
 995 386 995 386 995 409 c 0,100,101
 995 515 995 515 992.5 603 c 128,-1,102
 990 691 990 691 978 753.5 c 128,-1,103
 966 816 966 816 942 850.5 c 128,-1,104
 918 885 918 885 876 885 c 0,105,106
 843 885 843 885 812.5 867 c 128,-1,107
 782 849 782 849 759 816 c 128,-1,108
 736 783 736 783 721.5 737.5 c 128,-1,109
 707 692 707 692 706 637 c 1,0,1
EndSplineSet
EndChar

StartChar: n
Encoding: 110 110 33
Width: 807
Flags: W
HStem: 0 5<52 61.312 371.638 377 479 485.391 783.959 791> 885 107<363.368 515.508>
VStem: 162 133<36.7329 808.135> 554 135<33.5522 852.623>
LayerCount: 2
Fore
SplineSet
689 592 m 0,0,1
 689 522 689 522 689 463.5 c 128,-1,2
 689 405 689 405 690 349 c 128,-1,3
 691 293 691 293 693 235 c 128,-1,4
 695 177 695 177 698 109 c 1,5,6
 701 71 701 71 723 44.5 c 128,-1,7
 745 18 745 18 791 5 c 1,8,-1
 791 0 l 1,9,-1
 479 0 l 1,10,-1
 479 5 l 1,11,12
 514 16 514 16 529.5 45.5 c 128,-1,13
 545 75 545 75 548 113 c 1,14,15
 551 207 551 207 552.5 281.5 c 128,-1,16
 554 356 554 356 554 409 c 0,17,18
 554 515 554 515 552 603 c 128,-1,19
 550 691 550 691 540 753.5 c 128,-1,20
 530 816 530 816 510.5 850.5 c 128,-1,21
 491 885 491 885 455 885 c 0,22,23
 422 885 422 885 393 866 c 128,-1,24
 364 847 364 847 342.5 812.5 c 128,-1,25
 321 778 321 778 308 730 c 128,-1,26
 295 682 295 682 295 624 c 2,27,-1
 295 494 l 2,28,29
 295 397 295 397 297 301.5 c 128,-1,30
 299 206 299 206 304 109 c 1,31,32
 307 71 307 71 324.5 44.5 c 128,-1,33
 342 18 342 18 377 5 c 1,34,-1
 377 0 l 1,35,-1
 52 0 l 1,36,-1
 52 5 l 1,37,38
 103 16 103 16 125.5 45.5 c 128,-1,39
 148 75 148 75 151 113 c 1,40,41
 156 212 156 212 159 299.5 c 128,-1,42
 162 387 162 387 162 471 c 0,43,44
 162 586 162 586 160 662 c 128,-1,45
 158 738 158 738 144.5 783.5 c 128,-1,46
 131 829 131 829 101.5 848 c 128,-1,47
 72 867 72 867 17 867 c 1,48,-1
 17 872 l 1,49,-1
 288 992 l 1,50,51
 280 965 280 965 279 929.5 c 128,-1,52
 278 894 278 894 278 856 c 1,53,54
 298 898 298 898 322 924.5 c 128,-1,55
 346 951 346 951 371 966 c 128,-1,56
 396 981 396 981 420.5 986.5 c 128,-1,57
 445 992 445 992 466 992 c 0,58,59
 570 992 570 992 629.5 890.5 c 128,-1,60
 689 789 689 789 689 592 c 0,0,1
EndSplineSet
EndChar

StartChar: q
Encoding: 113 113 34
Width: 808
Flags: W
HStem: -372 21G<523.5 594.75> -292 5<803.945 813> -17 96<295.318 519.551> 899 91<344.781 523.193> 970 5<781.006 788>
VStem: 60 150<193.494 729.06> 534 134.5<-263.155 36 98.4468 896.58>
LayerCount: 2
Fore
SplineSet
461 990 m 0,0,1
 490 990 490 990 533 983.5 c 128,-1,2
 576 977 576 977 621 975 c 1,3,-1
 788 975 l 1,4,-1
 788 970 l 1,5,6
 731 951 731 951 707.5 906.5 c 128,-1,7
 684 862 684 862 679 802 c 1,8,9
 677 647 677 647 672.5 513.5 c 128,-1,10
 668 380 668 380 668 254 c 0,11,12
 668 126 668 126 668.5 36.5 c 128,-1,13
 669 -53 669 -53 673 -113 c 128,-1,14
 677 -173 677 -173 685.5 -208 c 128,-1,15
 694 -243 694 -243 710.5 -260.5 c 128,-1,16
 727 -278 727 -278 751.5 -282.5 c 128,-1,17
 776 -287 776 -287 813 -287 c 1,18,-1
 813 -292 l 1,19,-1
 522 -372 l 1,20,21
 525 -343 525 -343 527 -296.5 c 128,-1,22
 529 -250 529 -250 530 -195 c 128,-1,23
 531 -140 531 -140 532 -80.5 c 128,-1,24
 533 -21 533 -21 533 36 c 1,25,26
 491 9 491 9 451 -4 c 128,-1,27
 411 -17 411 -17 373 -17 c 0,28,29
 304 -17 304 -17 246.5 15.5 c 128,-1,30
 189 48 189 48 147.5 110 c 128,-1,31
 106 172 106 172 83 261 c 128,-1,32
 60 350 60 350 60 463 c 0,33,34
 60 577 60 577 85 673.5 c 128,-1,35
 110 770 110 770 160 840.5 c 128,-1,36
 210 911 210 911 285 950.5 c 128,-1,37
 360 990 360 990 461 990 c 0,0,1
535 351 m 2,38,39
 536 480 536 480 533 619 c 128,-1,40
 530 758 530 758 523 887 c 1,41,42
 511 892 511 892 498.5 895.5 c 128,-1,43
 486 899 486 899 478 899 c 0,44,45
 418 899 418 899 368.5 870.5 c 128,-1,46
 319 842 319 842 284 787 c 128,-1,47
 249 732 249 732 229.5 650.5 c 128,-1,48
 210 569 210 569 210 463 c 0,49,50
 210 79 210 79 399 79 c 0,51,52
 427 79 427 79 461 88.5 c 128,-1,53
 495 98 495 98 534 121 c 1,54,-1
 534 135 l 1,55,-1
 535 351 l 2,38,39
EndSplineSet
EndChar

StartChar: r
Encoding: 114 114 35
Width: 609
Flags: W
HStem: 0 5<50 59.312 368.763 375> 887 105<361.462 493.999> 907 5<15 23.4381>
VStem: 160 133.5<37.2109 809.498>
LayerCount: 2
Fore
SplineSet
276 856 m 1,0,1
 305 920 305 920 354 956 c 128,-1,2
 403 992 403 992 457 992 c 0,3,4
 498 992 498 992 538 969.5 c 128,-1,5
 578 947 578 947 612 899 c 1,6,-1
 505 724 l 1,7,-1
 502 726 l 1,8,9
 508 742 508 742 508 769 c 0,10,11
 508 788 508 788 504 809 c 128,-1,12
 500 830 500 830 491.5 847.5 c 128,-1,13
 483 865 483 865 470 876 c 128,-1,14
 457 887 457 887 438 887 c 0,15,16
 414 887 414 887 388.5 868.5 c 128,-1,17
 363 850 363 850 342 816 c 128,-1,18
 321 782 321 782 307 733.5 c 128,-1,19
 293 685 293 685 293 624 c 0,20,21
 293 493 293 493 293.5 365.5 c 128,-1,22
 294 238 294 238 302 109 c 0,23,24
 307 30 307 30 375 5 c 1,25,-1
 375 0 l 1,26,-1
 50 0 l 1,27,-1
 50 5 l 1,28,29
 101 16 101 16 123.5 45.5 c 128,-1,30
 146 75 146 75 149 113 c 1,31,32
 154 212 154 212 157 299.5 c 128,-1,33
 160 387 160 387 160 471 c 0,34,35
 160 598 160 598 158 682 c 128,-1,36
 156 766 156 766 142.5 816 c 128,-1,37
 129 866 129 866 99.5 886.5 c 128,-1,38
 70 907 70 907 15 907 c 1,39,-1
 15 912 l 1,40,-1
 286 992 l 1,41,42
 278 965 278 965 277 929.5 c 128,-1,43
 276 894 276 894 276 856 c 1,0,1
EndSplineSet
EndChar

StartChar: s
Encoding: 115 115 36
Width: 525
Flags: W
HStem: -29 106<163.286 307.882> 887 105<209.753 364.756>
VStem: 57 134<653.745 868.267> 325 143<91.1367 308.314>
LayerCount: 2
Fore
SplineSet
239 77 m 0,0,1
 257 77 257 77 272.5 86 c 128,-1,2
 288 95 288 95 300 110 c 128,-1,3
 312 125 312 125 318.5 143.5 c 128,-1,4
 325 162 325 162 325 181 c 0,5,6
 325 218 325 218 305 260.5 c 128,-1,7
 285 303 285 303 255.5 349 c 128,-1,8
 226 395 226 395 191 445 c 128,-1,9
 156 495 156 495 126.5 548.5 c 128,-1,10
 97 602 97 602 77 658.5 c 128,-1,11
 57 715 57 715 57 774 c 0,12,13
 57 821 57 821 77.5 861 c 128,-1,14
 98 901 98 901 131.5 930 c 128,-1,15
 165 959 165 959 208.5 975.5 c 128,-1,16
 252 992 252 992 298 992 c 0,17,18
 349 992 349 992 398.5 970 c 128,-1,19
 448 948 448 948 487 898 c 1,20,-1
 380 739 l 1,21,-1
 377 741 l 1,22,23
 383 757 383 757 383 776 c 256,24,25
 383 795 383 795 377 815 c 128,-1,26
 371 835 371 835 359.5 851 c 128,-1,27
 348 867 348 867 332.5 877 c 128,-1,28
 317 887 317 887 298 887 c 0,29,30
 277 887 277 887 257.5 879.5 c 128,-1,31
 238 872 238 872 223.5 858.5 c 128,-1,32
 209 845 209 845 200 825.5 c 128,-1,33
 191 806 191 806 191 783 c 0,34,35
 191 746 191 746 211.5 701.5 c 128,-1,36
 232 657 232 657 263 607.5 c 128,-1,37
 294 558 294 558 329.5 504.5 c 128,-1,38
 365 451 365 451 396 396.5 c 128,-1,39
 427 342 427 342 447.5 288.5 c 128,-1,40
 468 235 468 235 468 185 c 0,41,42
 468 137 468 137 449.5 97.5 c 128,-1,43
 431 58 431 58 400 30 c 128,-1,44
 369 2 369 2 329 -13.5 c 128,-1,45
 289 -29 289 -29 246 -29 c 0,46,47
 189 -29 189 -29 134 0.5 c 128,-1,48
 79 30 79 30 41 97 c 1,49,-1
 148 226 l 1,50,-1
 151 223 l 1,51,52
 142 208 142 208 142 187 c 0,53,54
 142 168 142 168 149.5 148.5 c 128,-1,55
 157 129 157 129 169.5 113 c 128,-1,56
 182 97 182 97 200 87 c 128,-1,57
 218 77 218 77 239 77 c 0,0,1
EndSplineSet
EndChar

StartChar: a
Encoding: 97 97 37
Width: 682
Flags: W
HStem: -29 106<227.089 365.844> 0 5<647.368 654> 552 81<271.472 419> 887 105<229.736 388.309>
VStem: 54 141<103.514 446.704> 419 142<135.185 551.451 626 859.995>
LayerCount: 2
Fore
SplineSet
248 672 m 1,0,-1
 78 777 l 1,1,2
 91 848 91 848 117.5 890.5 c 128,-1,3
 144 933 144 933 176.5 955.5 c 128,-1,4
 209 978 209 978 245.5 985 c 128,-1,5
 282 992 282 992 317 992 c 0,6,7
 441 992 441 992 502.5 903 c 128,-1,8
 564 814 564 814 563 640 c 0,9,10
 563 549 563 549 562.5 482.5 c 128,-1,11
 562 416 562 416 562 369 c 128,-1,12
 562 322 562 322 561.5 291.5 c 128,-1,13
 561 261 561 261 561 241.5 c 128,-1,14
 561 222 561 222 561 210 c 128,-1,15
 561 198 561 198 561 188 c 0,16,17
 561 163 561 163 564 135 c 128,-1,18
 567 107 567 107 576.5 81.5 c 128,-1,19
 586 56 586 56 604.5 35.5 c 128,-1,20
 623 15 623 15 654 5 c 1,21,-1
 654 0 l 1,22,-1
 499 0 l 1,23,24
 476 14 476 14 464 38 c 128,-1,25
 452 62 452 62 446 91 c 1,26,27
 440 79 440 79 427 58.5 c 128,-1,28
 414 38 414 38 393 18.5 c 128,-1,29
 372 -1 372 -1 342.5 -15 c 128,-1,30
 313 -29 313 -29 274 -29 c 0,31,32
 217 -29 217 -29 175.5 -6 c 128,-1,33
 134 17 134 17 107 56 c 128,-1,34
 80 95 80 95 67 145.5 c 128,-1,35
 54 196 54 196 54 250 c 0,36,37
 54 319 54 319 75.5 387.5 c 128,-1,38
 97 456 97 456 136.5 510.5 c 128,-1,39
 176 565 176 565 231 599 c 128,-1,40
 286 633 286 633 354 633 c 0,41,42
 388 633 388 633 419 626 c 1,43,44
 419 706 419 706 412 757 c 128,-1,45
 405 808 405 808 391 837 c 128,-1,46
 377 866 377 866 355.5 876.5 c 128,-1,47
 334 887 334 887 306 887 c 0,48,49
 282 887 282 887 265.5 879 c 128,-1,50
 249 871 249 871 238.5 857 c 128,-1,51
 228 843 228 843 223.5 824.5 c 128,-1,52
 219 806 219 806 219 785 c 0,53,54
 219 757 219 757 227.5 728 c 128,-1,55
 236 699 236 699 250 675 c 1,56,-1
 248 672 l 1,0,-1
291 77 m 0,57,58
 329 77 329 77 353.5 105.5 c 128,-1,59
 378 134 378 134 392.5 176 c 128,-1,60
 407 218 407 218 413 265.5 c 128,-1,61
 419 313 419 313 419 351 c 2,62,-1
 419 542 l 1,63,64
 390 552 390 552 361 552 c 0,65,66
 321 552 321 552 290 528.5 c 128,-1,67
 259 505 259 505 238 467 c 128,-1,68
 217 429 217 429 206 379 c 128,-1,69
 195 329 195 329 195 277 c 0,70,71
 195 237 195 237 201 201 c 128,-1,72
 207 165 207 165 219 137.5 c 128,-1,73
 231 110 231 110 249 93.5 c 128,-1,74
 267 77 267 77 291 77 c 0,57,58
EndSplineSet
EndChar

StartChar: b
Encoding: 98 98 38
Width: 838
Flags: W
HStem: -15 91<282 526.094> 0 5<18 24.9941> 896 96<287.653 531.814> 1262 5<-7 1.82812>
VStem: 133 140<84.2548 876.204 938 1242.07> 626 150<218.271 770.3>
LayerCount: 2
Fore
SplineSet
18 0 m 1,0,-1
 18 5 l 1,1,2
 75 24 75 24 98.5 68.5 c 128,-1,3
 122 113 122 113 127 173 c 1,4,5
 128 328 128 328 133 461.5 c 128,-1,6
 138 595 138 595 138 721 c 0,7,8
 138 849 138 849 137.5 938.5 c 128,-1,9
 137 1028 137 1028 133 1088 c 128,-1,10
 129 1148 129 1148 120.5 1183 c 128,-1,11
 112 1218 112 1218 95.5 1235.5 c 128,-1,12
 79 1253 79 1253 54 1257.5 c 128,-1,13
 29 1262 29 1262 -7 1262 c 1,14,-1
 -7 1267 l 1,15,-1
 284 1347 l 1,16,17
 281 1318 281 1318 279 1271.5 c 128,-1,18
 277 1225 277 1225 275.5 1170 c 128,-1,19
 274 1115 274 1115 273 1055 c 128,-1,20
 272 995 272 995 272 938 c 1,21,22
 356 992 356 992 433 992 c 0,23,24
 508 992 508 992 571 959.5 c 128,-1,25
 634 927 634 927 679.5 865 c 128,-1,26
 725 803 725 803 750.5 714 c 128,-1,27
 776 625 776 625 776 512 c 0,28,29
 776 398 776 398 755 301.5 c 128,-1,30
 734 205 734 205 693 134.5 c 128,-1,31
 652 64 652 64 589.5 24.5 c 128,-1,32
 527 -15 527 -15 445 -15 c 0,33,34
 421 -15 421 -15 388.5 -12.5 c 128,-1,35
 356 -10 356 -10 318.5 -7.5 c 128,-1,36
 281 -5 281 -5 240.5 -2.5 c 128,-1,37
 200 0 200 0 161 0 c 2,38,-1
 18 0 l 1,0,-1
271 624 m 2,39,40
 270 495 270 495 273 356 c 128,-1,41
 276 217 276 217 282 87 c 1,42,43
 324 82 324 82 360 79 c 128,-1,44
 396 76 396 76 428 76 c 0,45,46
 472 76 472 76 508.5 104.5 c 128,-1,47
 545 133 545 133 571 188 c 128,-1,48
 597 243 597 243 611.5 324.5 c 128,-1,49
 626 406 626 406 626 512 c 0,50,51
 626 704 626 704 572.5 800 c 128,-1,52
 519 896 519 896 407 896 c 0,53,54
 378 896 378 896 344.5 886 c 128,-1,55
 311 876 311 876 272 853 c 1,56,-1
 272 840 l 1,57,-1
 271 624 l 2,39,40
EndSplineSet
EndChar

StartChar: c
Encoding: 99 99 39
Width: 735
Flags: W
HStem: -29 105<311.156 533.337> 887 105<305.857 506.816>
VStem: 61 150<210.765 758.841>
LayerCount: 2
Fore
SplineSet
624 282 m 1,0,-1
 673 146 l 1,1,2
 626 59 626 59 560.5 15 c 128,-1,3
 495 -29 495 -29 414 -29 c 0,4,5
 339 -29 339 -29 274.5 4.5 c 128,-1,6
 210 38 210 38 162.5 103 c 128,-1,7
 115 168 115 168 88 263 c 128,-1,8
 61 358 61 358 61 481 c 256,9,10
 61 604 61 604 86.5 699 c 128,-1,11
 112 794 112 794 156.5 859 c 128,-1,12
 201 924 201 924 261.5 958 c 128,-1,13
 322 992 322 992 393 992 c 0,14,15
 466 992 466 992 518.5 969.5 c 128,-1,16
 571 947 571 947 608 906.5 c 128,-1,17
 645 866 645 866 669.5 810 c 128,-1,18
 694 754 694 754 712 687 c 1,19,-1
 517 585 l 1,20,-1
 514 590 l 1,21,22
 534 615 534 615 543 639.5 c 128,-1,23
 552 664 552 664 552 688 c 0,24,25
 552 719 552 719 546 754.5 c 128,-1,26
 540 790 540 790 523.5 819 c 128,-1,27
 507 848 507 848 479 867.5 c 128,-1,28
 451 887 451 887 407 887 c 0,29,30
 365 887 365 887 329 862.5 c 128,-1,31
 293 838 293 838 266.5 788 c 128,-1,32
 240 738 240 738 225.5 661.5 c 128,-1,33
 211 585 211 585 211 481 c 0,34,35
 211 280 211 280 267 178 c 128,-1,36
 323 76 323 76 423 76 c 0,37,38
 460 76 460 76 491.5 92 c 128,-1,39
 523 108 523 108 548 135.5 c 128,-1,40
 573 163 573 163 591 200.5 c 128,-1,41
 609 238 609 238 620 281 c 1,42,-1
 624 282 l 1,0,-1
EndSplineSet
EndChar

StartChar: d
Encoding: 100 100 40
Width: 798
Flags: W
HStem: -15 91<298.862 466.888> 0 5<778.234 785> 896 96<299.318 488.094> 1262 5<385 393.738>
VStem: 64 150<204.705 781.506> 528.5 135<143.689 857.042 906 1230.74>
LayerCount: 2
Fore
SplineSet
663 624 m 2,0,1
 662 506 662 506 663.5 395 c 128,-1,2
 665 284 665 284 672 169 c 0,3,4
 676 108 676 108 703 65.5 c 128,-1,5
 730 23 730 23 785 5 c 1,6,-1
 785 0 l 1,7,-1
 600 0 l 1,8,9
 568 14 568 14 551.5 38 c 128,-1,10
 535 62 535 62 527 91 c 1,11,12
 521 80 521 80 508.5 62 c 128,-1,13
 496 44 496 44 476.5 27.5 c 128,-1,14
 457 11 457 11 429.5 -1.5 c 128,-1,15
 402 -14 402 -14 365 -15 c 0,16,17
 290 -16 290 -16 234 23.5 c 128,-1,18
 178 63 178 63 140 133.5 c 128,-1,19
 102 204 102 204 83 301 c 128,-1,20
 64 398 64 398 64 512 c 0,21,22
 64 625 64 625 87 714 c 128,-1,23
 110 803 110 803 151.5 865 c 128,-1,24
 193 927 193 927 250.5 959.5 c 128,-1,25
 308 992 308 992 377 992 c 0,26,27
 395 992 395 992 416 987.5 c 128,-1,28
 437 983 437 983 458 972.5 c 128,-1,29
 479 962 479 962 497.5 945.5 c 128,-1,30
 516 929 516 929 528 906 c 1,31,32
 528 999 528 999 527 1066 c 128,-1,33
 526 1133 526 1133 513.5 1176.5 c 128,-1,34
 501 1220 501 1220 471.5 1241 c 128,-1,35
 442 1262 442 1262 385 1262 c 1,36,-1
 385 1267 l 1,37,-1
 676 1347 l 1,38,39
 672 1311 672 1311 670 1250 c 128,-1,40
 668 1189 668 1189 666.5 1118 c 128,-1,41
 665 1047 665 1047 664.5 974 c 128,-1,42
 664 901 664 901 664 840 c 2,43,-1
 663 624 l 2,0,1
382 76 m 0,44,45
 435 76 435 76 476 131 c 128,-1,46
 517 186 517 186 522 296 c 0,47,48
 525 346 525 346 526.5 390.5 c 128,-1,49
 528 435 528 435 528.5 477.5 c 128,-1,50
 529 520 529 520 529.5 562 c 128,-1,51
 530 604 530 604 530 649 c 0,52,53
 530 739 530 739 515 789 c 128,-1,54
 500 839 500 839 479.5 862.5 c 128,-1,55
 459 886 459 886 437.5 891 c 128,-1,56
 416 896 416 896 403 896 c 0,57,58
 214 896 214 896 214 512 c 0,59,60
 214 406 214 406 226 324.5 c 128,-1,61
 238 243 238 243 260.5 188 c 128,-1,62
 283 133 283 133 313.5 104.5 c 128,-1,63
 344 76 344 76 382 76 c 0,44,45
EndSplineSet
EndChar

StartChar: e
Encoding: 101 101 41
Width: 701
Flags: W
HStem: -29 105<298.158 481.456> 887 106<288.65 449.596>
VStem: 63 150<478 765.005> 510 137<123.068 310.085>
LayerCount: 2
Fore
SplineSet
428 341 m 1,0,-1
 647 321 l 1,1,2
 647 231 647 231 621.5 165.5 c 128,-1,3
 596 100 596 100 556.5 56.5 c 128,-1,4
 517 13 517 13 469 -8 c 128,-1,5
 421 -29 421 -29 375 -29 c 0,6,7
 309 -29 309 -29 252 5 c 128,-1,8
 195 39 195 39 153 104 c 128,-1,9
 111 169 111 169 87 264 c 128,-1,10
 63 359 63 359 63 482 c 256,11,12
 63 605 63 605 87 700 c 128,-1,13
 111 795 111 795 153 860 c 128,-1,14
 195 925 195 925 252 959 c 128,-1,15
 309 993 309 993 375 993 c 0,16,17
 430 993 430 993 476.5 963.5 c 128,-1,18
 523 934 523 934 558 876.5 c 128,-1,19
 593 819 593 819 614.5 733.5 c 128,-1,20
 636 648 636 648 641 537 c 1,21,-1
 218 389 l 1,22,23
 231 225 231 225 276 150.5 c 128,-1,24
 321 76 321 76 390 76 c 0,25,26
 423 76 423 76 445.5 88.5 c 128,-1,27
 468 101 468 101 482.5 121.5 c 128,-1,28
 497 142 497 142 503.5 167.5 c 128,-1,29
 510 193 510 193 510 220 c 0,30,31
 510 252 510 252 489.5 283 c 128,-1,32
 469 314 469 314 427 336 c 1,33,-1
 428 341 l 1,0,-1
213 478 m 1,34,35
 242 489 242 489 285 506 c 128,-1,36
 328 523 328 523 393 553 c 0,37,38
 430 570 430 570 457 587 c 128,-1,39
 484 604 484 604 505 616 c 1,40,41
 495 755 495 755 462.5 821 c 128,-1,42
 430 887 430 887 375 887 c 0,43,44
 298 887 298 887 255.5 785 c 128,-1,45
 213 683 213 683 213 482 c 2,46,-1
 213 478 l 1,34,35
EndSplineSet
EndChar

StartChar: quotedblbase
Encoding: 8222 8222 42
Width: 574
Flags: W
HStem: -287 415<63.5 140.957 333.5 410.957>
VStem: 41 486
LayerCount: 2
Fore
SplineSet
41 -287 m 1,0,1
 53 -208 53 -208 58 -145 c 128,-1,2
 63 -82 63 -82 63.5 -32 c 128,-1,3
 64 18 64 18 61 57 c 128,-1,4
 58 96 58 96 54 128 c 1,5,-1
 257 128 l 1,6,7
 240 68 240 68 220 0 c 0,8,9
 203 -58 203 -58 178.5 -132.5 c 128,-1,10
 154 -207 154 -207 125 -287 c 1,11,-1
 41 -287 l 1,0,1
311 -287 m 1,12,13
 323 -208 323 -208 328 -145 c 128,-1,14
 333 -82 333 -82 333.5 -32 c 128,-1,15
 334 18 334 18 331 57 c 128,-1,16
 328 96 328 96 324 128 c 1,17,-1
 527 128 l 1,18,19
 510 68 510 68 490 0 c 0,20,21
 473 -58 473 -58 448.5 -132.5 c 128,-1,22
 424 -207 424 -207 395 -287 c 1,23,-1
 311 -287 l 1,12,13
EndSplineSet
EndChar

StartChar: f
Encoding: 102 102 43
Width: 551
Flags: W
HStem: 0 5<28 34.2637 382.729 389> 901 77<281 510.709> 918 60<44 139> 1279 109<317.952 419.329>
VStem: 140 138<51.8276 901 978 1263.09>
LayerCount: 2
Fore
SplineSet
143 597 m 0,0,1
 143 640 143 640 142.5 677.5 c 128,-1,2
 142 715 142 715 141.5 752 c 128,-1,3
 141 789 141 789 140 826.5 c 128,-1,4
 139 864 139 864 139 907 c 1,5,6
 111 909 111 909 93 910.5 c 128,-1,7
 75 912 75 912 64 914 c 0,8,9
 51 916 51 916 44 918 c 1,10,-1
 44 978 l 1,11,-1
 139 978 l 1,12,13
 139 1191 139 1191 193.5 1289.5 c 128,-1,14
 248 1388 248 1388 346 1388 c 0,15,16
 394 1388 394 1388 449.5 1368.5 c 128,-1,17
 505 1349 505 1349 570 1304 c 1,18,-1
 443 1089 l 1,19,-1
 440 1091 l 1,20,21
 446 1107 446 1107 446 1134 c 0,22,23
 446 1166 446 1166 438 1192.5 c 128,-1,24
 430 1219 430 1219 417 1238.5 c 128,-1,25
 404 1258 404 1258 388 1268.5 c 128,-1,26
 372 1279 372 1279 356 1279 c 0,27,28
 341 1279 341 1279 327.5 1269 c 128,-1,29
 314 1259 314 1259 303.5 1227.5 c 128,-1,30
 293 1196 293 1196 287 1136.5 c 128,-1,31
 281 1077 281 1077 281 978 c 1,32,-1
 352 978 l 2,33,34
 407 978 407 978 445.5 979.5 c 128,-1,35
 484 981 484 981 509 983 c 0,36,37
 538 985 538 985 556 988 c 1,38,-1
 516 858 l 1,39,40
 505 869 505 869 484 879 c 0,41,42
 466 887 466 887 434 894 c 128,-1,43
 402 901 402 901 351 901 c 2,44,-1
 280 901 l 1,45,46
 279 810 279 810 278.5 694.5 c 128,-1,47
 278 579 278 579 278 427 c 0,48,49
 278 393 278 393 278 363.5 c 128,-1,50
 278 334 278 334 279 302.5 c 128,-1,51
 280 271 280 271 281.5 234 c 128,-1,52
 283 197 283 197 286 149 c 0,53,54
 289 95 289 95 313.5 58.5 c 128,-1,55
 338 22 338 22 389 5 c 1,56,-1
 389 0 l 1,57,-1
 28 0 l 1,58,-1
 28 5 l 1,59,60
 79 22 79 22 101.5 61 c 128,-1,61
 124 100 124 100 127 153 c 0,62,63
 132 237 132 237 135 302.5 c 128,-1,64
 138 368 138 368 140 420.5 c 128,-1,65
 142 473 142 473 142.5 515.5 c 128,-1,66
 143 558 143 558 143 597 c 0,0,1
EndSplineSet
EndChar

StartChar: g
Encoding: 103 103 44
Width: 791
Flags: W
HStem: -480 113<280.452 445.725> -105 5<353.025 356> -17 96<287.227 483.761> 899 91<327.566 485.119> 970 5<762.996 770>
VStem: 62 150<186.631 745.49> 121 142<-352.985 -146.555> 496 155<-297.809 36 95.3304 896.58>
LayerCount: 2
Fore
SplineSet
650 1 m 0,0,1
 650 -137 650 -137 627.5 -229 c 128,-1,2
 605 -321 605 -321 565.5 -377 c 128,-1,3
 526 -433 526 -433 472.5 -456.5 c 128,-1,4
 419 -480 419 -480 358 -480 c 0,5,6
 322 -480 322 -480 280.5 -465.5 c 128,-1,7
 239 -451 239 -451 203.5 -418.5 c 128,-1,8
 168 -386 168 -386 144.5 -334 c 128,-1,9
 121 -282 121 -282 121 -208 c 0,10,11
 121 -194 121 -194 122.5 -180 c 128,-1,12
 124 -166 124 -166 126 -150 c 1,13,-1
 355 -100 l 1,14,-1
 356 -105 l 1,15,16
 308 -134 308 -134 285.5 -172 c 128,-1,17
 263 -210 263 -210 263 -251 c 0,18,19
 263 -270 263 -270 268 -290.5 c 128,-1,20
 273 -311 273 -311 284 -328 c 128,-1,21
 295 -345 295 -345 312 -356 c 128,-1,22
 329 -367 329 -367 354 -367 c 0,23,24
 372 -367 372 -367 389.5 -364 c 128,-1,25
 407 -361 407 -361 423 -349 c 128,-1,26
 439 -337 439 -337 452 -311.5 c 128,-1,27
 465 -286 465 -286 474.5 -241.5 c 128,-1,28
 484 -197 484 -197 489.5 -129 c 128,-1,29
 495 -61 495 -61 495 36 c 1,30,31
 423 -17 423 -17 355 -17 c 0,32,33
 291 -17 291 -17 237 15.5 c 128,-1,34
 183 48 183 48 144 110 c 128,-1,35
 105 172 105 172 83.5 261 c 128,-1,36
 62 350 62 350 62 463 c 0,37,38
 62 577 62 577 85 673.5 c 128,-1,39
 108 770 108 770 154.5 840.5 c 128,-1,40
 201 911 201 911 270.5 950.5 c 128,-1,41
 340 990 340 990 433 990 c 0,42,43
 462 990 462 990 505 983.5 c 128,-1,44
 548 977 548 977 593 975 c 1,45,-1
 770 975 l 1,46,-1
 770 970 l 1,47,48
 713 951 713 951 687 906.5 c 128,-1,49
 661 862 661 862 661 802 c 0,50,51
 661 749 661 749 660 681 c 128,-1,52
 659 613 659 613 658 538 c 128,-1,53
 657 463 657 463 655.5 386 c 128,-1,54
 654 309 654 309 653 238 c 128,-1,55
 652 167 652 167 651 105.5 c 128,-1,56
 650 44 650 44 650 1 c 0,0,1
497 351 m 2,57,58
 498 481 498 481 494.5 619.5 c 128,-1,59
 491 758 491 758 485 887 c 1,60,61
 473 892 473 892 460.5 895.5 c 128,-1,62
 448 899 448 899 440 899 c 0,63,64
 389 899 389 899 347 870.5 c 128,-1,65
 305 842 305 842 275 787 c 128,-1,66
 245 732 245 732 228.5 650.5 c 128,-1,67
 212 569 212 569 212 463 c 0,68,69
 212 79 212 79 381 79 c 0,70,71
 404 79 404 79 433.5 88.5 c 128,-1,72
 463 98 463 98 496 121 c 1,73,-1
 496 135 l 1,74,-1
 497 351 l 2,57,58
EndSplineSet
EndChar

StartChar: h
Encoding: 104 104 45
Width: 849
Flags: W
HStem: 0 5<28 34.2617 830.109 837> 885 107<353.037 542.399> 1262 5<-7 1.82812>
VStem: 133 140<40.5312 797.927 876 1242.07> 600 135<41.5167 825.094>
LayerCount: 2
Fore
SplineSet
735 592 m 0,0,1
 735 527 735 527 735 472 c 128,-1,2
 735 417 735 417 736 364 c 128,-1,3
 737 311 737 311 739 257 c 128,-1,4
 741 203 741 203 744 139 c 1,5,6
 748 89 748 89 770 54.5 c 128,-1,7
 792 20 792 20 837 5 c 1,8,-1
 837 0 l 1,9,-1
 515 0 l 1,10,-1
 515 5 l 1,11,12
 556 21 556 21 574 57.5 c 128,-1,13
 592 94 592 94 594 143 c 0,14,15
 600 312 600 312 600 409 c 0,16,17
 600 515 600 515 597 603 c 128,-1,18
 594 691 594 691 580.5 753.5 c 128,-1,19
 567 816 567 816 539 850.5 c 128,-1,20
 511 885 511 885 461 885 c 0,21,22
 423 885 423 885 388.5 866 c 128,-1,23
 354 847 354 847 328 812.5 c 128,-1,24
 302 778 302 778 286.5 730 c 128,-1,25
 271 682 271 682 271 624 c 2,26,-1
 271 534 l 2,27,28
 271 434 271 434 273 336 c 128,-1,29
 275 238 275 238 280 139 c 0,30,31
 283 89 283 89 302.5 54.5 c 128,-1,32
 322 20 322 20 363 5 c 1,33,-1
 363 0 l 1,34,-1
 28 0 l 1,35,-1
 28 5 l 1,36,37
 79 21 79 21 101 57.5 c 128,-1,38
 123 94 123 94 127 143 c 1,39,40
 128 307 128 307 133 447.5 c 128,-1,41
 138 588 138 588 138 721 c 0,42,43
 138 849 138 849 137.5 938.5 c 128,-1,44
 137 1028 137 1028 133 1088 c 128,-1,45
 129 1148 129 1148 120.5 1183 c 128,-1,46
 112 1218 112 1218 95.5 1235.5 c 128,-1,47
 79 1253 79 1253 54 1257.5 c 128,-1,48
 29 1262 29 1262 -7 1262 c 1,49,-1
 -7 1267 l 1,50,-1
 284 1347 l 1,51,52
 280 1307 280 1307 278 1254 c 128,-1,53
 276 1201 276 1201 275 1140 c 128,-1,54
 274 1079 274 1079 274 1011.5 c 128,-1,55
 274 944 274 944 274 876 c 1,56,57
 295 912 295 912 320.5 934.5 c 128,-1,58
 346 957 346 957 372.5 969.5 c 128,-1,59
 399 982 399 982 424.5 987 c 128,-1,60
 450 992 450 992 472 992 c 0,61,62
 533 992 533 992 581.5 966 c 128,-1,63
 630 940 630 940 664 889.5 c 128,-1,64
 698 839 698 839 716.5 764.5 c 128,-1,65
 735 690 735 690 735 592 c 0,0,1
EndSplineSet
EndChar

StartChar: i
Encoding: 105 105 46
Width: 433
Flags: W
HStem: 0 5<47 53.2617 401.73 408> 908 5<17 25.8281> 973 20G<235.25 302.5> 1145 181<149.815 276.669>
VStem: 123 181<1171.82 1298.67> 146 150.5<47.5698 515.815> 161.5 134.5<56.2378 889.599>
LayerCount: 2
Fore
SplineSet
162 517 m 0,0,1
 162 610 162 610 161.5 675 c 128,-1,2
 161 740 161 740 157 783.5 c 128,-1,3
 153 827 153 827 144.5 852 c 128,-1,4
 136 877 136 877 119.5 889.5 c 128,-1,5
 103 902 103 902 78 905 c 128,-1,6
 53 908 53 908 17 908 c 1,7,-1
 17 913 l 1,8,-1
 308 993 l 1,9,10
 297 884 297 884 296.5 752.5 c 128,-1,11
 296 621 296 621 296 480 c 0,12,13
 296 424 296 424 296 386 c 128,-1,14
 296 348 296 348 296.5 314 c 128,-1,15
 297 280 297 280 299 242.5 c 128,-1,16
 301 205 301 205 305 149 c 0,17,18
 309 95 309 95 333 58.5 c 128,-1,19
 357 22 357 22 408 5 c 1,20,-1
 408 0 l 1,21,-1
 47 0 l 1,22,-1
 47 5 l 1,23,24
 98 22 98 22 120 61 c 128,-1,25
 142 100 142 100 146 153 c 1,26,27
 148 199 148 199 150.5 233.5 c 128,-1,28
 153 268 153 268 154.5 296 c 128,-1,29
 156 324 156 324 157.5 348 c 128,-1,30
 159 372 159 372 160 397 c 128,-1,31
 161 422 161 422 161.5 450.5 c 128,-1,32
 162 479 162 479 162 517 c 0,0,1
123 1235 m 256,33,34
 123 1273 123 1273 149 1299.5 c 128,-1,35
 175 1326 175 1326 213 1326 c 256,36,37
 251 1326 251 1326 277.5 1299.5 c 128,-1,38
 304 1273 304 1273 304 1235 c 256,39,40
 304 1197 304 1197 277.5 1171 c 128,-1,41
 251 1145 251 1145 213 1145 c 256,42,43
 175 1145 175 1145 149 1171 c 128,-1,44
 123 1197 123 1197 123 1235 c 256,33,34
EndSplineSet
EndChar

StartChar: j
Encoding: 106 106 47
Width: 397
Flags: W
HStem: 908 5<7 15.8281> 973 20G<225.25 292.5> 1145 181<139.815 266.669>
VStem: 113 181<1171.82 1298.67> 154 132<-102.073 885.369>
LayerCount: 2
Fore
SplineSet
152 437 m 0,0,1
 152 550 152 550 151.5 629 c 128,-1,2
 151 708 151 708 147 760 c 128,-1,3
 143 812 143 812 134.5 842 c 128,-1,4
 126 872 126 872 109.5 886.5 c 128,-1,5
 93 901 93 901 68 904.5 c 128,-1,6
 43 908 43 908 7 908 c 1,7,-1
 7 913 l 1,8,-1
 298 993 l 1,9,10
 287 865 287 865 286.5 715 c 128,-1,11
 286 565 286 565 286 400 c 0,12,13
 286 336 286 336 286 268 c 128,-1,14
 286 200 286 200 281.5 132 c 128,-1,15
 277 64 277 64 266 -2 c 128,-1,16
 255 -68 255 -68 231.5 -129 c 128,-1,17
 208 -190 208 -190 171 -243.5 c 128,-1,18
 134 -297 134 -297 78 -340 c 1,19,-1
 17 -260 l 1,20,21
 60 -216 60 -216 87 -160 c 128,-1,22
 114 -104 114 -104 129 -42 c 128,-1,23
 144 20 144 20 149.5 85.5 c 128,-1,24
 155 151 155 151 155.5 214 c 128,-1,25
 156 277 156 277 154 334 c 128,-1,26
 152 391 152 391 152 437 c 0,0,1
113 1235 m 256,27,28
 113 1273 113 1273 139 1299.5 c 128,-1,29
 165 1326 165 1326 203 1326 c 256,30,31
 241 1326 241 1326 267.5 1299.5 c 128,-1,32
 294 1273 294 1273 294 1235 c 256,33,34
 294 1197 294 1197 267.5 1171 c 128,-1,35
 241 1145 241 1145 203 1145 c 256,36,37
 165 1145 165 1145 139 1171 c 128,-1,38
 113 1197 113 1197 113 1235 c 256,27,28
EndSplineSet
EndChar

StartChar: u
Encoding: 117 117 48
Width: 846
Flags: W
HStem: -29 107<313.86 479.239> 51 5<839.565 848> 966 20G<252.5 302 688.5 738>
VStem: 124.5 146.5<119.3 831.509> 562 143<179.016 829.711>
LayerCount: 2
Fore
SplineSet
705 472 m 0,0,1
 705 345 705 345 707 264.5 c 128,-1,2
 709 184 709 184 722 137.5 c 128,-1,3
 735 91 735 91 764 73.5 c 128,-1,4
 793 56 793 56 848 56 c 1,5,-1
 848 51 l 1,6,-1
 577 -29 l 1,7,8
 585 -2 585 -2 586 33.5 c 128,-1,9
 587 69 587 69 587 107 c 1,10,11
 560 65 560 65 528.5 38.5 c 128,-1,12
 497 12 497 12 464 -3 c 128,-1,13
 431 -18 431 -18 398.5 -23.5 c 128,-1,14
 366 -29 366 -29 339 -29 c 0,15,16
 239 -29 239 -29 182.5 82 c 128,-1,17
 126 193 126 193 126 411 c 0,18,19
 126 547 126 547 124.5 634.5 c 128,-1,20
 123 722 123 722 110 772 c 128,-1,21
 97 822 97 822 68.5 841.5 c 128,-1,22
 40 861 40 861 -15 861 c 1,23,-1
 -15 866 l 1,24,-1
 306 986 l 1,25,26
 298 973 298 973 292.5 958 c 128,-1,27
 287 943 287 943 283 921 c 128,-1,28
 279 899 279 899 276.5 869 c 128,-1,29
 274 839 274 839 273 795 c 128,-1,30
 272 751 272 751 271.5 692 c 128,-1,31
 271 633 271 633 271 554 c 0,32,33
 271 447 271 447 273.5 359.5 c 128,-1,34
 276 272 276 272 286.5 209.5 c 128,-1,35
 297 147 297 147 319 112.5 c 128,-1,36
 341 78 341 78 380 78 c 0,37,38
 416 78 416 78 449 98 c 128,-1,39
 482 118 482 118 507 159.5 c 128,-1,40
 532 201 532 201 547 263.5 c 128,-1,41
 562 326 562 326 562 411 c 0,42,43
 562 547 562 547 560.5 634.5 c 128,-1,44
 559 722 559 722 546 772 c 128,-1,45
 533 822 533 822 504.5 841.5 c 128,-1,46
 476 861 476 861 421 861 c 1,47,-1
 421 866 l 1,48,-1
 742 986 l 1,49,50
 734 971 734 971 728 954 c 128,-1,51
 722 937 722 937 718 911.5 c 128,-1,52
 714 886 714 886 711.5 850 c 128,-1,53
 709 814 709 814 707.5 761.5 c 128,-1,54
 706 709 706 709 705.5 638 c 128,-1,55
 705 567 705 567 705 472 c 0,0,1
EndSplineSet
EndChar

StartChar: v
Encoding: 118 118 49
Width: 668
Flags: W
HStem: 0 21G<159 510> 959 4<283.975 288 375 379.025 689.215 695>
VStem: 227 214<14.2113 229.329>
LayerCount: 2
Fore
SplineSet
160 4 m 1,0,-1
 172 9 l 1,1,2
 203 23 203 23 216 50.5 c 128,-1,3
 229 78 229 78 227 114 c 1,4,5
 218 199 218 199 202 275.5 c 128,-1,6
 186 352 186 352 169 432 c 1,7,8
 151 525 151 525 129.5 622.5 c 128,-1,9
 108 720 108 720 80 832 c 0,10,11
 69 877 69 877 44.5 911 c 128,-1,12
 20 945 20 945 -26 959 c 1,13,-1
 -27 963 l 1,14,-1
 288 963 l 1,15,-1
 289 959 l 1,16,17
 248 945 248 945 232.5 913 c 128,-1,18
 217 881 217 881 222 836 c 1,19,20
 236 735 236 735 258 635.5 c 128,-1,21
 280 536 280 536 300 433 c 0,22,23
 308 388 308 388 317.5 337.5 c 128,-1,24
 327 287 327 287 337 231 c 1,25,26
 347 286 347 286 356.5 337 c 128,-1,27
 366 388 366 388 374 433 c 0,28,29
 394 536 394 536 410.5 635.5 c 128,-1,30
 427 735 427 735 441 836 c 1,31,32
 446 881 446 881 430.5 913 c 128,-1,33
 415 945 415 945 374 959 c 1,34,-1
 375 963 l 1,35,-1
 695 963 l 1,36,-1
 695 959 l 1,37,38
 648 944 648 944 624 910.5 c 128,-1,39
 600 877 600 877 589 832 c 0,40,41
 561 720 561 720 539 622.5 c 128,-1,42
 517 525 517 525 500 432 c 1,43,44
 482 352 482 352 466 275.5 c 128,-1,45
 450 199 450 199 441 114 c 0,46,47
 438 78 438 78 451 50.5 c 128,-1,48
 464 23 464 23 495 9 c 1,49,-1
 509 4 l 1,50,-1
 510 0 l 1,51,-1
 159 0 l 1,52,-1
 160 4 l 1,0,-1
EndSplineSet
EndChar

StartChar: x
Encoding: 120 120 50
Width: 761
Flags: W
HStem: 0 5<-4 2.31836> 943 20G<12 346 416 740>
LayerCount: 2
Fore
SplineSet
12 963 m 1,0,-1
 343 963 l 1,1,-1
 346 958 l 1,2,3
 307 943 307 943 298 910 c 128,-1,4
 289 877 289 877 306 830 c 0,5,6
 323 780 323 780 342 734 c 128,-1,7
 361 688 361 688 381 642 c 1,8,9
 401 688 401 688 420 734 c 128,-1,10
 439 780 439 780 456 830 c 0,11,12
 473 877 473 877 464 910 c 128,-1,13
 455 943 455 943 416 958 c 1,14,-1
 419 963 l 1,15,-1
 740 963 l 1,16,-1
 737 958 l 1,17,18
 689 941 689 941 653.5 905 c 128,-1,19
 618 869 618 869 596 813 c 1,20,21
 572 760 572 760 546 705 c 0,22,23
 524 658 524 658 498.5 603 c 128,-1,24
 473 548 473 548 450 497 c 1,25,26
 489 413 489 413 534 330.5 c 128,-1,27
 579 248 579 248 625 153 c 1,28,29
 651 102 651 102 684 62 c 128,-1,30
 717 22 717 22 764 5 c 1,31,-1
 766 0 l 1,32,-1
 436 0 l 1,33,-1
 434 5 l 1,34,35
 477 22 477 22 483.5 58.5 c 128,-1,36
 490 95 490 95 469 149 c 0,37,38
 448 202 448 202 426.5 250.5 c 128,-1,39
 405 299 405 299 382 350 c 1,40,41
 361 299 361 299 342 250.5 c 128,-1,42
 323 202 323 202 303 149 c 0,43,44
 283 95 283 95 289 58.5 c 128,-1,45
 295 22 295 22 338 5 c 1,46,-1
 336 0 l 1,47,-1
 -4 0 l 1,48,-1
 -4 5 l 1,49,50
 47 22 47 22 83.5 61.5 c 128,-1,51
 120 101 120 101 147 153 c 1,52,53
 192 247 192 247 233 330 c 128,-1,54
 274 413 274 413 311 497 c 1,55,56
 288 548 288 548 263 603 c 128,-1,57
 238 658 238 658 216 705 c 0,58,59
 190 760 190 760 166 813 c 1,60,61
 143 869 143 869 104.5 905 c 128,-1,62
 66 941 66 941 15 958 c 1,63,-1
 12 963 l 1,0,-1
EndSplineSet
EndChar

StartChar: w
Encoding: 119 119 51
Width: 1072
Flags: W
HStem: 0 21G<160 511 562 913> 959 4<284.975 289 376 380.025 691.047 696 778 782.025 1092.21 1098>
LayerCount: 2
Fore
SplineSet
161 4 m 1,0,-1
 173 9 l 1,1,2
 204 23 204 23 217 50.5 c 128,-1,3
 230 78 230 78 228 114 c 1,4,5
 219 199 219 199 203 275.5 c 128,-1,6
 187 352 187 352 170 432 c 1,7,8
 152 525 152 525 130.5 622.5 c 128,-1,9
 109 720 109 720 81 832 c 0,10,11
 70 877 70 877 45.5 911 c 128,-1,12
 21 945 21 945 -25 959 c 1,13,-1
 -26 963 l 1,14,-1
 289 963 l 1,15,-1
 290 959 l 1,16,17
 249 945 249 945 233.5 913 c 128,-1,18
 218 881 218 881 223 836 c 0,19,20
 237 721 237 721 259 605.5 c 128,-1,21
 281 490 281 490 301 373 c 0,22,23
 309 324 309 324 318.5 268.5 c 128,-1,24
 328 213 328 213 338 151 c 1,25,26
 348 212 348 212 357.5 268 c 128,-1,27
 367 324 367 324 375 373 c 0,28,29
 395 490 395 490 411.5 605.5 c 128,-1,30
 428 721 428 721 442 836 c 0,31,32
 447 881 447 881 431.5 913 c 128,-1,33
 416 945 416 945 375 959 c 1,34,-1
 376 963 l 1,35,-1
 696 963 l 1,36,-1
 696 959 l 1,37,38
 676 952 676 952 659 941 c 1,39,40
 637 924 637 924 629 897 c 128,-1,41
 621 870 621 870 625 836 c 0,42,43
 639 721 639 721 661 605.5 c 128,-1,44
 683 490 683 490 703 373 c 0,45,46
 711 324 711 324 720.5 268.5 c 128,-1,47
 730 213 730 213 740 151 c 1,48,49
 750 212 750 212 759.5 268 c 128,-1,50
 769 324 769 324 777 373 c 0,51,52
 797 490 797 490 813.5 605.5 c 128,-1,53
 830 721 830 721 844 836 c 0,54,55
 849 881 849 881 833.5 913 c 128,-1,56
 818 945 818 945 777 959 c 1,57,-1
 778 963 l 1,58,-1
 1098 963 l 1,59,-1
 1098 959 l 1,60,61
 1051 944 1051 944 1027 910.5 c 128,-1,62
 1003 877 1003 877 992 832 c 0,63,64
 964 720 964 720 942 622.5 c 128,-1,65
 920 525 920 525 903 432 c 1,66,67
 885 352 885 352 869 275.5 c 128,-1,68
 853 199 853 199 844 114 c 0,69,70
 841 78 841 78 854 50.5 c 128,-1,71
 867 23 867 23 898 9 c 1,72,-1
 912 4 l 1,73,-1
 913 0 l 1,74,-1
 562 0 l 1,75,-1
 563 4 l 1,76,-1
 575 9 l 1,77,78
 606 23 606 23 619 50.5 c 128,-1,79
 632 78 632 78 630 114 c 1,80,81
 621 217 621 217 605 307.5 c 128,-1,82
 589 398 589 398 572 492 c 1,83,84
 564 548 564 548 555 607 c 128,-1,85
 546 666 546 666 536 725 c 1,86,87
 526 666 526 666 517.5 607 c 128,-1,88
 509 548 509 548 501 492 c 1,89,90
 483 398 483 398 467 307.5 c 128,-1,91
 451 217 451 217 442 114 c 0,92,93
 439 78 439 78 452 50.5 c 128,-1,94
 465 23 465 23 496 9 c 1,95,-1
 510 4 l 1,96,-1
 511 0 l 1,97,-1
 160 0 l 1,98,-1
 161 4 l 1,0,-1
EndSplineSet
EndChar

StartChar: y
Encoding: 121 121 52
Width: 835
Flags: W
HStem: -480 113<309.184 498.875> -105 5<395.405 399> -17 96<328.678 536.761> 958 5<16 23.041 349.599 358 459 465.275 804.688 814>
VStem: 115 150<149.059 931.626> 144 142<-343.757 -152.22> 549 154<-302.609 36 95.3304 925.431>
LayerCount: 2
Fore
SplineSet
551 429 m 2,0,1
 551 535 551 535 549 641.5 c 128,-1,2
 547 748 547 748 542 854 c 1,3,4
 539 892 539 892 519.5 918.5 c 128,-1,5
 500 945 500 945 459 958 c 1,6,-1
 459 963 l 1,7,-1
 814 963 l 1,8,-1
 814 958 l 1,9,10
 763 947 763 947 740.5 917.5 c 128,-1,11
 718 888 718 888 715 850 c 1,12,13
 710 739 710 739 707 642 c 128,-1,14
 704 545 704 545 704 452 c 0,15,16
 704 372 704 372 704 316 c 128,-1,17
 704 260 704 260 703.5 211.5 c 128,-1,18
 703 163 703 163 703 114 c 128,-1,19
 703 65 703 65 703 1 c 0,20,21
 703 -137 703 -137 681 -229 c 128,-1,22
 659 -321 659 -321 621 -377 c 128,-1,23
 583 -433 583 -433 531.5 -456.5 c 128,-1,24
 480 -480 480 -480 421 -480 c 0,25,26
 379 -480 379 -480 330.5 -465.5 c 128,-1,27
 282 -451 282 -451 240.5 -418.5 c 128,-1,28
 199 -386 199 -386 171.5 -334 c 128,-1,29
 144 -282 144 -282 144 -208 c 0,30,31
 144 -194 144 -194 145.5 -180 c 128,-1,32
 147 -166 147 -166 149 -150 c 1,33,-1
 398 -100 l 1,34,-1
 399 -105 l 1,35,36
 341 -134 341 -134 313.5 -172 c 128,-1,37
 286 -210 286 -210 286 -251 c 0,38,39
 286 -270 286 -270 292.5 -290.5 c 128,-1,40
 299 -311 299 -311 313.5 -328 c 128,-1,41
 328 -345 328 -345 351 -356 c 128,-1,42
 374 -367 374 -367 407 -367 c 0,43,44
 425 -367 425 -367 442.5 -364 c 128,-1,45
 460 -361 460 -361 476 -349 c 128,-1,46
 492 -337 492 -337 505 -311.5 c 128,-1,47
 518 -286 518 -286 527.5 -241.5 c 128,-1,48
 537 -197 537 -197 542.5 -129 c 128,-1,49
 548 -61 548 -61 548 36 c 1,50,51
 476 -17 476 -17 408 -17 c 0,52,53
 344 -17 344 -17 290 6.5 c 128,-1,54
 236 30 236 30 197 74.5 c 128,-1,55
 158 119 158 119 136.5 184 c 128,-1,56
 115 249 115 249 115 333 c 0,57,58
 115 396 115 396 115 441.5 c 128,-1,59
 115 487 115 487 115.5 524.5 c 128,-1,60
 116 562 116 562 115.5 595 c 128,-1,61
 115 628 115 628 114.5 665 c 128,-1,62
 114 702 114 702 112.5 747 c 128,-1,63
 111 792 111 792 109 854 c 1,64,65
 106 892 106 892 84 918.5 c 128,-1,66
 62 945 62 945 16 958 c 1,67,-1
 16 963 l 1,68,-1
 358 963 l 1,69,-1
 358 958 l 1,70,71
 312 947 312 947 291.5 917.5 c 128,-1,72
 271 888 271 888 269 850 c 0,73,74
 267 779 267 779 266 710 c 128,-1,75
 265 641 265 641 265 579 c 128,-1,76
 265 517 265 517 265 464 c 128,-1,77
 265 411 265 411 265 373 c 0,78,79
 265 228 265 228 307 153.5 c 128,-1,80
 349 79 349 79 434 79 c 0,81,82
 457 79 457 79 486.5 88.5 c 128,-1,83
 516 98 516 98 549 121 c 1,84,-1
 549 135 l 1,85,-1
 551 429 l 2,0,1
EndSplineSet
EndChar

StartChar: z
Encoding: 122 122 53
Width: 641
Flags: W
HStem: 0 100<305 543.758> 0 4<26 30.7406> 864 99<103.804 345> 957 6<617.354 625>
VStem: 54 8<743 773.813> 592 8<199.86 221>
LayerCount: 2
Fore
SplineSet
251 516 m 0,0,1
 284 651 284 651 309 739 c 128,-1,2
 334 827 334 827 345 864 c 1,3,4
 297 862 297 862 246.5 858 c 128,-1,5
 196 854 196 854 154.5 842 c 128,-1,6
 113 830 113 830 87 806.5 c 128,-1,7
 61 783 61 783 62 743 c 1,8,-1
 54 742 l 1,9,10
 54 772 54 772 54.5 810.5 c 128,-1,11
 55 849 55 849 57 883 c 1,12,13
 58 923 58 923 60 963 c 1,14,-1
 625 963 l 1,15,-1
 625 957 l 1,16,17
 563 937 563 937 527.5 896 c 128,-1,18
 492 855 492 855 470.5 800.5 c 128,-1,19
 449 746 449 746 435.5 681.5 c 128,-1,20
 422 617 422 617 406 548 c 0,21,22
 383 454 383 454 359 358.5 c 128,-1,23
 335 263 335 263 309 151 c 0,24,25
 307 138 307 138 305.5 125 c 128,-1,26
 304 112 304 112 305 100 c 1,27,28
 354 101 354 101 403.5 105.5 c 128,-1,29
 453 110 453 110 494 122.5 c 128,-1,30
 535 135 535 135 562 158.5 c 128,-1,31
 589 182 589 182 592 221 c 1,32,-1
 600 222 l 1,33,34
 597 191 597 191 593 153 c 128,-1,35
 589 115 589 115 585 81 c 0,36,37
 581 41 581 41 575 0 c 1,38,-1
 26 0 l 1,39,-1
 26 4 l 1,40,41
 77 20 77 20 109.5 58 c 128,-1,42
 142 96 142 96 159 148 c 1,43,44
 183 236 183 236 206 331.5 c 128,-1,45
 229 427 229 427 251 516 c 0,0,1
EndSplineSet
EndChar

StartChar: exclam
Encoding: 33 33 54
Width: 383
Flags: W
HStem: 0 181<129.815 256.669> 1306 20G<71 312>
VStem: 71 241<1078.65 1326> 103 181<27.3309 154.185> 135.5 108<560.189 1154.01> 148.5 88.5<333 980.128>
LayerCount: 2
Fore
SplineSet
71 1321 m 1,0,-1
 71 1326 l 1,1,-1
 312 1326 l 1,2,-1
 312 1321 l 1,3,4
 300 1296 300 1296 290.5 1248.5 c 128,-1,5
 281 1201 281 1201 273.5 1138 c 128,-1,6
 266 1075 266 1075 260.5 1001 c 128,-1,7
 255 927 255 927 251 850 c 128,-1,8
 247 773 247 773 243.5 696 c 128,-1,9
 240 619 240 619 237 550.5 c 128,-1,10
 234 482 234 482 231 425.5 c 128,-1,11
 228 369 228 369 224 333 c 1,12,-1
 153 333 l 1,13,14
 151 372 151 372 148.5 430 c 128,-1,15
 146 488 146 488 142.5 558 c 128,-1,16
 139 628 139 628 135.5 705 c 128,-1,17
 132 782 132 782 127.5 859 c 128,-1,18
 123 936 123 936 117 1009.5 c 128,-1,19
 111 1083 111 1083 104.5 1144.5 c 128,-1,20
 98 1206 98 1206 89.5 1252 c 128,-1,21
 81 1298 81 1298 71 1321 c 1,0,-1
103 91 m 256,22,23
 103 129 103 129 129 155 c 128,-1,24
 155 181 155 181 193 181 c 256,25,26
 231 181 231 181 257.5 155 c 128,-1,27
 284 129 284 129 284 91 c 256,28,29
 284 53 284 53 257.5 26.5 c 128,-1,30
 231 0 231 0 193 0 c 256,31,32
 155 0 155 0 129 26.5 c 128,-1,33
 103 53 103 53 103 91 c 256,22,23
EndSplineSet
EndChar

StartChar: hyphen
Encoding: 45 45 55
Width: 574
Flags: W
HStem: 477 125<79.8806 493.027>
VStem: 79 415
LayerCount: 2
Fore
SplineSet
494 631 m 1,0,-1
 494 448 l 1,1,2
 466 461 466 461 418.5 469 c 128,-1,3
 371 477 371 477 290 477 c 0,4,5
 204 477 204 477 154.5 474.5 c 128,-1,6
 105 472 105 472 79 457 c 1,7,-1
 79 630 l 1,8,9
 107 619 107 619 158 610.5 c 128,-1,10
 209 602 209 602 292 602 c 0,11,12
 366 602 366 602 414.5 605.5 c 128,-1,13
 463 609 463 609 494 631 c 1,0,-1
EndSplineSet
EndChar

StartChar: B
Encoding: 66 66 56
Width: 757
Flags: W
HStem: 0 110<313 453.289> 736 112<304 409.821> 1216 110<303.625 413.479>
VStem: 160 144<112.623 736 848 1214.66> 463 149<901.427 1166.33> 563 149<226.999 596.409>
LayerCount: 2
Fore
SplineSet
160 461 m 0,0,1
 160 489 160 489 160.5 526 c 128,-1,2
 161 563 161 563 161.5 601.5 c 128,-1,3
 162 640 162 640 162.5 677 c 128,-1,4
 163 714 163 714 163 743 c 0,5,6
 163 764 163 764 162.5 791.5 c 128,-1,7
 162 819 162 819 161.5 847.5 c 128,-1,8
 161 876 161 876 160.5 903.5 c 128,-1,9
 160 931 160 931 160 953 c 0,10,11
 160 995 160 995 159.5 1050.5 c 128,-1,12
 159 1106 159 1106 150 1159 c 128,-1,13
 141 1212 141 1212 119.5 1256.5 c 128,-1,14
 98 1301 98 1301 55 1321 c 1,15,-1
 55 1326 l 1,16,-1
 337 1326 l 2,17,18
 392 1326 392 1326 442 1307 c 128,-1,19
 492 1288 492 1288 529.5 1251 c 128,-1,20
 567 1214 567 1214 589.5 1159.5 c 128,-1,21
 612 1105 612 1105 612 1035 c 0,22,23
 612 959 612 959 576.5 901.5 c 128,-1,24
 541 844 541 844 481 809 c 1,25,26
 533 783 533 783 575.5 744.5 c 128,-1,27
 618 706 618 706 648.5 656 c 128,-1,28
 679 606 679 606 695.5 544 c 128,-1,29
 712 482 712 482 712 409 c 0,30,31
 712 312 712 312 681 236 c 128,-1,32
 650 160 650 160 598.5 107.5 c 128,-1,33
 547 55 547 55 479 27.5 c 128,-1,34
 411 0 411 0 337 0 c 2,35,-1
 55 0 l 1,36,-1
 55 5 l 1,37,38
 101 22 101 22 121 61 c 128,-1,39
 141 100 141 100 144 153 c 1,40,41
 152 237 152 237 156 313 c 128,-1,42
 160 389 160 389 160 461 c 0,0,1
313 110 m 1,43,44
 379 110 379 110 426.5 136.5 c 128,-1,45
 474 163 474 163 504.5 205.5 c 128,-1,46
 535 248 535 248 549 301 c 128,-1,47
 563 354 563 354 563 406 c 0,48,49
 563 464 563 464 547 523 c 128,-1,50
 531 582 531 582 498.5 629 c 128,-1,51
 466 676 466 676 417.5 706 c 128,-1,52
 369 736 369 736 304 736 c 1,53,-1
 304 424 l 2,54,55
 304 347 304 347 308.5 270.5 c 128,-1,56
 313 194 313 194 313 110 c 1,43,44
308 1216 m 1,57,58
 303 1173 303 1173 300.5 1125 c 128,-1,59
 298 1077 298 1077 298 1029 c 128,-1,60
 298 981 298 981 298.5 934.5 c 128,-1,61
 299 888 299 888 300 848 c 1,62,63
 344 848 344 848 375 865.5 c 128,-1,64
 406 883 406 883 425.5 910.5 c 128,-1,65
 445 938 445 938 454 972 c 128,-1,66
 463 1006 463 1006 463 1038 c 0,67,68
 463 1068 463 1068 454 1099.5 c 128,-1,69
 445 1131 445 1131 426 1157 c 128,-1,70
 407 1183 407 1183 377.5 1199.5 c 128,-1,71
 348 1216 348 1216 308 1216 c 1,57,58
EndSplineSet
EndChar

StartChar: E.alt
Encoding: 65539 -1 57
Width: 656
Flags: W
HStem: 0 5<42 48.9941> 688 77<301 419.187> 1225.5 6.5<468.343 474> 1231 1<468 470.727> 1253 74<314 466.719> 1322 5<42 48.2754>
VStem: 151 0<173 177> 167 134<177.839 688 765 1252.81> 541 0<570 616> 541 0<837 882> 552.5 7.5<1139.22 1156.92> 566 17<186 216.956 1123.76 1136>
LayerCount: 2
Fore
SplineSet
583 136 m 2,0,1
 586 119 586 119 590 95.5 c 128,-1,2
 594 72 594 72 598 51 c 0,3,4
 602 26 602 26 607 0 c 1,5,-1
 42 0 l 1,6,-1
 42 5 l 1,7,8
 99 24 99 24 122.5 69 c 128,-1,9
 146 114 146 114 151 177 c 1,10,-1
 151 173 l 1,11,12
 158 328 158 328 162.5 461.5 c 128,-1,13
 167 595 167 595 167 721 c 0,14,15
 167 833 167 833 163.5 943.5 c 128,-1,16
 160 1054 160 1054 152 1174 c 1,17,18
 144 1228 144 1228 118.5 1266.5 c 128,-1,19
 93 1305 93 1305 42 1322 c 1,20,-1
 42 1327 l 1,21,-1
 613 1327 l 1,22,23
 607 1306 607 1306 603 1286 c 1,24,25
 598 1268 598 1268 594 1247.5 c 128,-1,26
 590 1227 590 1227 585 1208 c 1,27,-1
 586 1208 l 1,28,-1
 578 1173 l 1,29,-1
 560 1094 l 1,30,31
 565 1136 565 1136 552.5 1168 c 128,-1,32
 540 1200 540 1200 508 1218 c 1,33,34
 498 1222 498 1222 488.5 1225.5 c 128,-1,35
 479 1229 479 1229 468 1232 c 1,36,-1
 474 1231 l 1,37,-1
 464 1233 l 1,38,-1
 468 1232 l 2,39,40
 427 1243 427 1243 386.5 1247.5 c 128,-1,41
 346 1252 346 1252 314 1253 c 1,42,43
 308 1129 308 1129 305 1007.5 c 128,-1,44
 302 886 302 886 301 765 c 1,45,46
 334 765 334 765 364.5 766 c 128,-1,47
 395 767 395 767 422 768 c 1,48,49
 479 778 479 778 508 807.5 c 128,-1,50
 537 837 537 837 541 882 c 1,51,-1
 541 570 l 1,52,53
 537 616 537 616 507.5 645.5 c 128,-1,54
 478 675 478 675 419 684 c 1,55,-1
 420 684 l 1,56,57
 394 686 394 686 365 686.5 c 128,-1,58
 336 687 336 687 301 688 c 1,59,-1
 301 684 l 2,60,61
 301 387 301 387 313 96 c 1,62,63
 344 100 344 100 385.5 105 c 128,-1,64
 427 110 427 110 477 118 c 1,65,-1
 464 118 l 1,66,67
 521 127 521 127 546 156.5 c 128,-1,68
 571 186 571 186 566 232 c 1,69,-1
 583 136 l 2,0,1
EndSplineSet
EndChar

StartChar: N.alt
Encoding: 65540 -1 58
Width: 933
Flags: W
HStem: 0 5<52 58.2617 396.852 403> 1322 5<541 548.056 885.663 892>
VStem: 167 124<56.2378 907> 654.5 115<383 1171.51>
LayerCount: 2
Fore
SplineSet
769 223 m 1,0,1
 771 142 771 142 797 84 c 128,-1,2
 823 26 823 26 869 5 c 1,3,-1
 869 0 l 1,4,-1
 691 0 l 1,5,6
 693 1 693 1 693.5 5 c 128,-1,7
 694 9 694 9 690.5 20.5 c 128,-1,8
 687 32 687 32 678.5 52.5 c 128,-1,9
 670 73 670 73 653 107 c 1,10,11
 628 166 628 166 591.5 247 c 128,-1,12
 555 328 555 328 515 416 c 128,-1,13
 475 504 475 504 435.5 590.5 c 128,-1,14
 396 677 396 677 364 746.5 c 128,-1,15
 332 816 332 816 312.5 860 c 128,-1,16
 293 904 293 904 293 907 c 1,17,18
 291 843 291 843 291 784.5 c 128,-1,19
 291 726 291 726 291 684 c 0,20,21
 291 548 291 548 292 415 c 128,-1,22
 293 282 293 282 300 149 c 1,23,24
 305 95 305 95 329 58.5 c 128,-1,25
 353 22 353 22 403 5 c 1,26,-1
 403 0 l 1,27,-1
 52 0 l 1,28,-1
 52 5 l 1,29,30
 103 22 103 22 125 61 c 128,-1,31
 147 100 147 100 151 153 c 1,32,33
 158 314 158 314 162.5 452 c 128,-1,34
 167 590 167 590 167 721 c 0,35,36
 167 820 167 820 165 915 c 128,-1,37
 163 1010 163 1010 152 1114 c 1,38,39
 147 1191 147 1191 122.5 1246.5 c 128,-1,40
 98 1302 98 1302 52 1322 c 1,41,-1
 52 1327 l 1,42,-1
 218 1327 l 1,43,44
 217 1323 217 1323 223 1308 c 0,45,46
 228 1295 228 1295 240.5 1269.5 c 128,-1,47
 253 1244 253 1244 277 1199 c 1,48,49
 308 1131 308 1131 347.5 1044.5 c 128,-1,50
 387 958 387 958 428.5 868 c 128,-1,51
 470 778 470 778 509.5 692 c 128,-1,52
 549 606 549 606 580.5 538 c 128,-1,53
 612 470 612 470 631 427.5 c 128,-1,54
 650 385 650 385 650 383 c 1,55,56
 653 469 653 469 654.5 556 c 128,-1,57
 656 643 656 643 656 721 c 0,58,59
 656 838 656 838 654 953 c 128,-1,60
 652 1068 652 1068 641 1194 c 0,61,62
 636 1241 636 1241 611.5 1274.5 c 128,-1,63
 587 1308 587 1308 541 1322 c 1,64,-1
 541 1327 l 1,65,-1
 892 1327 l 1,66,-1
 892 1322 l 1,67,68
 789 1289 789 1289 789 1177 c 0,69,70
 789 1134 789 1134 787 1062 c 128,-1,71
 785 990 785 990 781.5 901.5 c 128,-1,72
 778 813 778 813 775 716 c 128,-1,73
 772 619 772 619 769.5 527 c 128,-1,74
 767 435 767 435 766.5 355.5 c 128,-1,75
 766 276 766 276 769 223 c 1,0,1
691 0 m 1,76,-1
 687 0 l 1,77,-1
 691 0 l 1,76,-1
EndSplineSet
EndChar

StartChar: L.alt
Encoding: 65541 -1 59
Width: 597
Flags: W
HStem: 0 5<42 48.9941> 1322 5<42 48.2754 415.998 423>
VStem: 151 0<173 177> 167 134<177.839 1221.72 1226 1247.84> 310 30.5<1233.46 1248> 310 3<1157 1190.74> 560 17<186 216.956>
LayerCount: 2
Fore
SplineSet
577 136 m 2,0,1
 580 119 580 119 584 95.5 c 128,-1,2
 588 72 588 72 592 51 c 0,3,4
 596 26 596 26 601 0 c 1,5,-1
 42 0 l 1,6,-1
 42 5 l 1,7,8
 99 24 99 24 122.5 69 c 128,-1,9
 146 114 146 114 151 177 c 1,10,-1
 151 173 l 1,11,12
 158 328 158 328 162.5 461.5 c 128,-1,13
 167 595 167 595 167 721 c 0,14,15
 167 833 167 833 163.5 943.5 c 128,-1,16
 160 1054 160 1054 152 1174 c 1,17,18
 144 1228 144 1228 118.5 1266.5 c 128,-1,19
 93 1305 93 1305 42 1322 c 1,20,-1
 42 1327 l 1,21,-1
 423 1327 l 1,22,-1
 423 1322 l 1,23,24
 366 1303 366 1303 340.5 1261.5 c 128,-1,25
 315 1220 315 1220 310 1157 c 1,26,-1
 313 1226 l 1,27,28
 306 1089 306 1089 303.5 954 c 128,-1,29
 301 819 301 819 301 684 c 0,30,31
 301 386 301 386 313 97 c 1,32,33
 343 100 343 100 383 105 c 128,-1,34
 423 110 423 110 471 118 c 1,35,-1
 458 118 l 1,36,37
 515 127 515 127 540 156.5 c 128,-1,38
 565 186 565 186 560 232 c 1,39,-1
 577 136 l 2,0,1
314 1248 m 2,40,41
 313 1243 313 1243 313 1237.5 c 128,-1,42
 313 1232 313 1232 313 1226 c 2,43,-1
 314 1248 l 2,40,41
EndSplineSet
EndChar

StartChar: H.alt
Encoding: 65542 -1 60
Width: 930
Flags: W
HStem: 0 5<37 44.8009 410.184 418 509 516.801 882.184 890> 706 77<296.723 633.215> 1322 5<37 44.2095 410.184 418 509 516.209 882.184 890>
VStem: 143 164<37.3223 432.4> 162 134<54.8203 702.301 786.062 1273.86> 628 151<47.5057 703.351 785.08 1280.83>
LayerCount: 2
Fore
SplineSet
890 1322 m 1,0,1
 839 1309 839 1309 813 1282.5 c 128,-1,2
 787 1256 787 1256 779 1215 c 1,3,4
 773 1080 773 1080 770.5 948 c 128,-1,5
 768 816 768 816 768 684 c 0,6,7
 768 540 768 540 771 399 c 128,-1,8
 774 258 774 258 779 117 c 1,9,10
 787 76 787 76 813 47.5 c 128,-1,11
 839 19 839 19 890 5 c 1,12,-1
 890 0 l 1,13,-1
 509 0 l 1,14,-1
 509 5 l 1,15,16
 560 19 560 19 583.5 47.5 c 128,-1,17
 607 76 607 76 615 117 c 1,18,19
 623 283 623 283 628 425.5 c 128,-1,20
 633 568 633 568 634 699 c 1,21,22
 611 702 611 702 572 704 c 128,-1,23
 533 706 533 706 470 706 c 0,24,25
 400 706 400 706 359 703.5 c 128,-1,26
 318 701 318 701 296 698 c 1,27,-1
 296 684 l 2,28,29
 296 540 296 540 299 399 c 128,-1,30
 302 258 302 258 307 117 c 1,31,32
 315 76 315 76 341 47.5 c 128,-1,33
 367 19 367 19 418 5 c 1,34,-1
 418 0 l 1,35,-1
 37 0 l 1,36,-1
 37 5 l 1,37,38
 88 19 88 19 111.5 47.5 c 128,-1,39
 135 76 135 76 143 117 c 1,40,41
 151 290 151 290 156.5 437 c 128,-1,42
 162 584 162 584 162 721 c 0,43,44
 162 845 162 845 157.5 966.5 c 128,-1,45
 153 1088 153 1088 144 1222 c 1,46,47
 134 1258 134 1258 109 1283.5 c 128,-1,48
 84 1309 84 1309 37 1322 c 1,49,-1
 37 1327 l 1,50,-1
 418 1327 l 1,51,-1
 418 1322 l 1,52,53
 367 1309 367 1309 341 1282.5 c 128,-1,54
 315 1256 315 1256 307 1215 c 1,55,56
 302 1107 302 1107 299.5 1001 c 128,-1,57
 297 895 297 895 296 789 c 1,58,59
 319 787 319 787 361 785 c 128,-1,60
 403 783 403 783 471 783 c 0,61,62
 530 783 530 783 569.5 784.5 c 128,-1,63
 609 786 609 786 634 788 c 1,64,65
 632 894 632 894 628 1000.5 c 128,-1,66
 624 1107 624 1107 616 1222 c 1,67,68
 606 1258 606 1258 581 1283.5 c 128,-1,69
 556 1309 556 1309 509 1322 c 1,70,-1
 509 1327 l 1,71,-1
 890 1327 l 1,72,-1
 890 1322 l 1,0,1
EndSplineSet
EndChar

StartChar: A.alt
Encoding: 65543 -1 61
Width: 772
Flags: W
HStem: 0 5<331.119 336 438 442.881> 360 89<287.052 487> 381 66<287 486.856> 1229 98<362.562 417.722>
LayerCount: 2
Fore
SplineSet
155 1327 m 1,0,-1
 619 1327 l 1,1,-1
 618 1322 l 1,2,-1
 602 1316 l 1,3,4
 566 1300 566 1300 550.5 1268 c 128,-1,5
 535 1236 535 1236 539 1194 c 1,6,7
 547 1068 547 1068 559 953 c 128,-1,8
 571 838 571 838 587 721 c 0,9,10
 604 590 604 590 625 452 c 128,-1,11
 646 314 646 314 673 153 c 1,12,13
 686 100 686 100 714.5 61 c 128,-1,14
 743 22 743 22 797 5 c 1,15,-1
 798 0 l 1,16,-1
 438 0 l 1,17,-1
 437 5 l 1,18,19
 485 22 485 22 502.5 58.5 c 128,-1,20
 520 95 520 95 515 149 c 0,21,22
 510 202 510 202 505.5 254 c 128,-1,23
 501 306 501 306 496 360 c 1,24,25
 474 362 474 362 447 364 c 128,-1,26
 420 366 420 366 384 370 c 0,27,28
 352 373 352 373 326 375.5 c 128,-1,29
 300 378 300 378 280 381 c 1,30,31
 274 322 274 322 269 264 c 128,-1,32
 264 206 264 206 259 149 c 0,33,34
 254 95 254 95 271.5 58.5 c 128,-1,35
 289 22 289 22 337 5 c 1,36,-1
 336 0 l 1,37,-1
 -24 0 l 1,38,-1
 -23 5 l 1,39,40
 31 22 31 22 59.5 61 c 128,-1,41
 88 100 88 100 101 153 c 1,42,43
 128 314 128 314 149 452 c 128,-1,44
 170 590 170 590 187 721 c 0,45,46
 202 838 202 838 214.5 953 c 128,-1,47
 227 1068 227 1068 235 1194 c 0,48,49
 238 1236 238 1236 222.5 1268 c 128,-1,50
 207 1300 207 1300 171 1316 c 1,51,-1
 156 1322 l 1,52,-1
 155 1327 l 1,0,-1
385 447 m 2,53,54
 415 447 415 447 440.5 447.5 c 128,-1,55
 466 448 466 448 487 449 c 1,56,-1
 460 684 l 2,57,58
 458 703 458 703 455 736 c 128,-1,59
 452 769 452 769 448.5 810.5 c 128,-1,60
 445 852 445 852 441.5 899 c 128,-1,61
 438 946 438 946 434 993 c 0,62,63
 425 1101 425 1101 414 1228 c 1,64,-1
 366 1229 l 1,65,66
 356 1105 356 1105 346 998 c 0,67,68
 342 952 342 952 337.5 905 c 128,-1,69
 333 858 333 858 328.5 816 c 128,-1,70
 324 774 324 774 320.5 739.5 c 128,-1,71
 317 705 317 705 314 684 c 2,72,-1
 287 447 l 1,73,-1
 385 447 l 2,53,54
EndSplineSet
EndChar

StartChar: A
Encoding: 65 65 62
Width: 772
Flags: W
HStem: -169 115<0 58.3081> 0 5<435 439.881> 360 89<286.352 484> 381 66<286 483.856> 1229 98<358.905 414.781>
LayerCount: 2
Fore
SplineSet
512 149 m 0,0,1
 507 202 507 202 502.5 254 c 128,-1,2
 498 306 498 306 493 360 c 1,3,4
 471 362 471 362 444 364 c 128,-1,5
 417 366 417 366 381 370 c 0,6,7
 349 373 349 373 323.5 375.5 c 128,-1,8
 298 378 298 378 278 381 c 1,9,10
 275 353 275 353 271.5 319 c 128,-1,11
 268 285 268 285 264 247.5 c 128,-1,12
 260 210 260 210 255 171 c 128,-1,13
 250 132 250 132 243 94 c 0,14,15
 238 63 238 63 232.5 31 c 128,-1,16
 227 -1 227 -1 218 -30.5 c 128,-1,17
 209 -60 209 -60 194 -85.5 c 128,-1,18
 179 -111 179 -111 154 -129.5 c 128,-1,19
 129 -148 129 -148 91.5 -159 c 128,-1,20
 54 -170 54 -170 0 -169 c 1,21,-1
 -80 -40 l 1,22,-1
 -77 -37 l 1,23,24
 -40 -54 -40 -54 -9 -54 c 0,25,26
 32 -54 32 -54 56.5 -14 c 128,-1,27
 81 26 81 26 94 100 c 1,28,29
 108 161 108 161 120 242 c 128,-1,30
 132 323 132 323 142 409 c 128,-1,31
 152 495 152 495 160 577 c 128,-1,32
 168 659 168 659 175 721 c 0,33,34
 187 837 187 837 198.5 952.5 c 128,-1,35
 210 1068 210 1068 216 1194 c 0,36,37
 219 1236 219 1236 203.5 1268 c 128,-1,38
 188 1300 188 1300 152 1316 c 1,39,-1
 137 1322 l 1,40,-1
 136 1327 l 1,41,-1
 631 1327 l 1,42,-1
 630 1322 l 1,43,-1
 614 1316 l 1,44,45
 578 1300 578 1300 562.5 1268 c 128,-1,46
 547 1236 547 1236 551 1194 c 1,47,48
 557 1068 557 1068 569 953 c 128,-1,49
 581 838 581 838 595 721 c 0,50,51
 611 590 611 590 627 452 c 128,-1,52
 643 314 643 314 670 153 c 1,53,54
 683 100 683 100 711.5 61 c 128,-1,55
 740 22 740 22 794 5 c 1,56,-1
 795 0 l 1,57,-1
 435 0 l 1,58,-1
 434 5 l 1,59,60
 482 22 482 22 499.5 58.5 c 128,-1,61
 517 95 517 95 512 149 c 0,0,1
382 447 m 2,62,63
 412 447 412 447 437.5 447.5 c 128,-1,64
 463 448 463 448 484 449 c 1,65,-1
 463 684 l 2,66,67
 461 703 461 703 457.5 736 c 128,-1,68
 454 769 454 769 450 810.5 c 128,-1,69
 446 852 446 852 441.5 899 c 128,-1,70
 437 946 437 946 433 993 c 0,71,72
 422 1101 422 1101 411 1228 c 1,73,-1
 363 1229 l 1,74,75
 351 1107 351 1107 340 1000 c 0,76,77
 335 954 335 954 330.5 907 c 128,-1,78
 326 860 326 860 321.5 818 c 128,-1,79
 317 776 317 776 313.5 741 c 128,-1,80
 310 706 310 706 308 684 c 0,81,82
 301 613 301 613 296.5 556 c 128,-1,83
 292 499 292 499 286 447 c 1,84,-1
 382 447 l 2,62,63
EndSplineSet
EndChar

StartChar: R
Encoding: 82 82 63
Width: 769
Flags: W
HStem: -220 144<722.438 807> 0 5<48 54.2617 402.73 409> 577 115<299 375.904> 1220 107<306.533 491.5> 1322 5<48 55.0563>
VStem: 163 134<56.2378 153> 533 165<798.234 1174.29>
LayerCount: 2
Fore
SplineSet
672 67 m 0,0,1
 683 39 683 39 695 13.5 c 128,-1,2
 707 -12 707 -12 722 -32 c 128,-1,3
 737 -52 737 -52 756 -64 c 128,-1,4
 775 -76 775 -76 799 -76 c 0,5,6
 815 -76 815 -76 833.5 -69.5 c 128,-1,7
 852 -63 852 -63 874 -47 c 1,8,-1
 879 -50 l 1,9,-1
 807 -220 l 1,10,11
 743 -220 743 -220 696.5 -200 c 128,-1,12
 650 -180 650 -180 617 -146 c 128,-1,13
 584 -112 584 -112 562.5 -66 c 128,-1,14
 541 -20 541 -20 527 33 c 2,15,-1
 376 588 l 1,16,17
 373 586 373 586 362 584.5 c 128,-1,18
 351 583 351 583 338.5 581.5 c 128,-1,19
 326 580 326 580 314.5 578.5 c 128,-1,20
 303 577 303 577 299 577 c 1,21,22
 300 527 300 527 300.5 472.5 c 128,-1,23
 301 418 301 418 302 362.5 c 128,-1,24
 303 307 303 307 304 253 c 128,-1,25
 305 199 305 199 306 149 c 1,26,27
 310 95 310 95 334 58.5 c 128,-1,28
 358 22 358 22 409 5 c 1,29,-1
 409 0 l 1,30,-1
 48 0 l 1,31,-1
 48 5 l 1,32,33
 99 22 99 22 121 61 c 128,-1,34
 143 100 143 100 147 153 c 1,35,36
 154 314 154 314 158.5 452 c 128,-1,37
 163 590 163 590 163 721 c 0,38,39
 163 838 163 838 161.5 953 c 128,-1,40
 160 1068 160 1068 148 1194 c 0,41,42
 143 1241 143 1241 118.5 1274.5 c 128,-1,43
 94 1308 94 1308 48 1322 c 1,44,-1
 48 1327 l 1,45,-1
 403 1327 l 2,46,47
 465 1327 465 1327 519 1307.5 c 128,-1,48
 573 1288 573 1288 612.5 1250 c 128,-1,49
 652 1212 652 1212 675 1156 c 128,-1,50
 698 1100 698 1100 698 1027 c 0,51,52
 698 879 698 879 644 779 c 128,-1,53
 590 679 590 679 501 632 c 1,54,55
 539 494 539 494 578 355 c 128,-1,56
 617 216 617 216 672 67 c 0,0,1
297 774 m 0,57,58
 297 754 297 754 296.5 734.5 c 128,-1,59
 296 715 296 715 297 692 c 1,60,61
 422 692 422 692 477.5 776 c 128,-1,62
 533 860 533 860 533 1027 c 0,63,64
 533 1121 533 1121 496.5 1170.5 c 128,-1,65
 460 1220 460 1220 387 1220 c 0,66,67
 369 1220 369 1220 346 1219.5 c 128,-1,68
 323 1219 323 1219 306 1217 c 1,69,-1
 306 1177 l 1,70,71
 303 1104 303 1104 301 1032 c 0,72,73
 299 970 299 970 298 900.5 c 128,-1,74
 297 831 297 831 297 774 c 0,57,58
EndSplineSet
EndChar

StartChar: M
Encoding: 77 77 64
Width: 1135
Flags: W
HStem: -170 118<28 84.9604> 0 5<786 791.246> 1322 5<75 77.4727 1029.34 1034>
LayerCount: 2
Fore
SplineSet
107 111 m 0,0,1
 114 180 114 180 119 242.5 c 128,-1,2
 124 305 124 305 128.5 366.5 c 128,-1,3
 133 428 133 428 138 491 c 128,-1,4
 143 554 143 554 149 624 c 0,5,6
 152 661 152 661 155.5 703.5 c 128,-1,7
 159 746 159 746 162 789.5 c 128,-1,8
 165 833 165 833 168 876.5 c 128,-1,9
 171 920 171 920 174 960 c 0,10,11
 180 1053 180 1053 185 1147 c 0,12,13
 186 1153 186 1153 186 1158.5 c 128,-1,14
 186 1164 186 1164 186 1169 c 0,15,16
 186 1283 186 1283 74 1322 c 1,17,-1
 75 1327 l 1,18,-1
 276 1327 l 2,19,20
 287 1327 287 1327 297.5 1310.5 c 128,-1,21
 308 1294 308 1294 317.5 1268 c 128,-1,22
 327 1242 327 1242 335 1210.5 c 128,-1,23
 343 1179 343 1179 349.5 1148.5 c 128,-1,24
 356 1118 356 1118 361 1092.5 c 128,-1,25
 366 1067 366 1067 369 1054 c 0,26,27
 381 1010 381 1010 396 959.5 c 128,-1,28
 411 909 411 909 427 856.5 c 128,-1,29
 443 804 443 804 459.5 751 c 128,-1,30
 476 698 476 698 491 649 c 0,31,32
 527 535 527 535 564 418 c 1,33,34
 620 608 620 608 668 767 c 0,35,36
 688 835 688 835 708 902.5 c 128,-1,37
 728 970 728 970 744.5 1028.5 c 128,-1,38
 761 1087 761 1087 773.5 1130.5 c 128,-1,39
 786 1174 786 1174 791 1194 c 0,40,41
 797 1218 797 1218 800.5 1241.5 c 128,-1,42
 804 1265 804 1265 812.5 1284 c 128,-1,43
 821 1303 821 1303 838.5 1315 c 128,-1,44
 856 1327 856 1327 891 1327 c 2,45,-1
 1034 1327 l 1,46,-1
 1035 1322 l 1,47,48
 943 1292 943 1292 943 1195 c 0,49,50
 943 1190 943 1190 943 1186 c 128,-1,51
 943 1182 943 1182 944 1177 c 0,52,53
 946 1151 946 1151 949.5 1090 c 128,-1,54
 953 1029 953 1029 958.5 944.5 c 128,-1,55
 964 860 964 860 971 758.5 c 128,-1,56
 978 657 978 657 987 551 c 128,-1,57
 996 445 996 445 1007 341.5 c 128,-1,58
 1018 238 1018 238 1031 149 c 0,59,60
 1039 95 1039 95 1067 58.5 c 128,-1,61
 1095 22 1095 22 1146 5 c 1,62,-1
 1147 0 l 1,63,-1
 786 0 l 1,64,-1
 785 5 l 1,65,66
 836 22 836 22 854 61 c 128,-1,67
 872 100 872 100 872 153 c 1,68,69
 869 234 869 234 866.5 308 c 128,-1,70
 864 382 864 382 860.5 452 c 128,-1,71
 857 522 857 522 852 589 c 128,-1,72
 847 656 847 656 840 721 c 1,73,-1
 827 905 l 1,74,75
 807 825 807 825 777.5 735 c 128,-1,76
 748 645 748 645 717 555 c 128,-1,77
 686 465 686 465 658 380 c 128,-1,78
 630 295 630 295 612 224 c 0,79,80
 605 200 605 200 598.5 174.5 c 128,-1,81
 592 149 592 149 585.5 128 c 128,-1,82
 579 107 579 107 571.5 94 c 128,-1,83
 564 81 564 81 555 81 c 256,84,85
 546 81 546 81 538 94 c 128,-1,86
 530 107 530 107 523 127.5 c 128,-1,87
 516 148 516 148 509.5 173.5 c 128,-1,88
 503 199 503 199 496 224 c 0,89,90
 475 296 475 296 450 378 c 128,-1,91
 425 460 425 460 399 545.5 c 128,-1,92
 373 631 373 631 346.5 717.5 c 128,-1,93
 320 804 320 804 296 885 c 1,94,95
 287 690 287 690 275 497.5 c 128,-1,96
 263 305 263 305 256 117 c 0,97,98
 255 85 255 85 253.5 51 c 128,-1,99
 252 17 252 17 245.5 -15 c 128,-1,100
 239 -47 239 -47 226 -75 c 128,-1,101
 213 -103 213 -103 188 -124.5 c 128,-1,102
 163 -146 163 -146 124 -158 c 128,-1,103
 85 -170 85 -170 28 -170 c 1,104,-1
 -52 -44 l 1,105,-1
 -49 -40 l 1,106,107
 -27 -45 -27 -45 -9 -48.5 c 128,-1,108
 9 -52 9 -52 23 -52 c 0,109,110
 44 -52 44 -52 58 -44.5 c 128,-1,111
 72 -37 72 -37 81.5 -18 c 128,-1,112
 91 1 91 1 96.5 32.5 c 128,-1,113
 102 64 102 64 107 111 c 0,0,1
EndSplineSet
EndChar

StartChar: period
Encoding: 46 46 65
Width: 294
Flags: W
HStem: -29 202<76.9094 231.155>
VStem: 47 202<0.909424 155.155>
LayerCount: 2
Fore
SplineSet
47 71 m 0,0,1
 47 92 47 92 55 110.5 c 128,-1,2
 63 129 63 129 76.5 143 c 128,-1,3
 90 157 90 157 108 165 c 128,-1,4
 126 173 126 173 147 173 c 256,5,6
 168 173 168 173 186.5 165 c 128,-1,7
 205 157 205 157 219 143 c 128,-1,8
 233 129 233 129 241 110.5 c 128,-1,9
 249 92 249 92 249 71 c 256,10,11
 249 50 249 50 241 32 c 128,-1,12
 233 14 233 14 219 0.5 c 128,-1,13
 205 -13 205 -13 186.5 -21 c 128,-1,14
 168 -29 168 -29 147 -29 c 0,15,16
 105 -29 105 -29 76 0 c 128,-1,17
 47 29 47 29 47 71 c 0,0,1
EndSplineSet
EndChar

StartChar: seven
Encoding: 55 55 66
Width: 756
Flags: W
HStem: 0 21G<44 427> 1213 114<116.77 491>
VStem: 21 9<1074 1096.85>
LayerCount: 2
Fore
SplineSet
360 684 m 1,0,1
 394 817 394 817 427 947 c 128,-1,2
 460 1077 460 1077 491 1213 c 1,3,4
 439 1212 439 1212 385 1209.5 c 128,-1,5
 331 1207 331 1207 280.5 1202 c 128,-1,6
 230 1197 230 1197 185.5 1188 c 128,-1,7
 141 1179 141 1179 107 1164 c 128,-1,8
 73 1149 73 1149 52.5 1127 c 128,-1,9
 32 1105 32 1105 30 1074 c 1,10,-1
 21 1073 l 1,11,12
 24 1108 24 1108 28.5 1152 c 128,-1,13
 33 1196 33 1196 38 1235 c 0,14,15
 43 1281 43 1281 50 1327 c 1,16,-1
 800 1327 l 1,17,-1
 799 1322 l 1,18,19
 742 1305 742 1305 702.5 1266.5 c 128,-1,20
 663 1228 663 1228 640 1174 c 1,21,22
 598 1054 598 1054 567 943.5 c 128,-1,23
 536 833 536 833 507 721 c 1,24,25
 472 595 472 595 439.5 461.5 c 128,-1,26
 407 328 407 328 373 173 c 1,27,28
 357 113 357 113 367 68.5 c 128,-1,29
 377 24 377 24 427 5 c 1,30,-1
 425 0 l 1,31,-1
 44 0 l 1,32,-1
 46 5 l 1,33,34
 106 23 106 23 147.5 65.5 c 128,-1,35
 189 108 189 108 212 169 c 1,36,37
 231 229 231 229 250.5 294.5 c 128,-1,38
 270 360 270 360 288.5 426 c 128,-1,39
 307 492 307 492 325 557.5 c 128,-1,40
 343 623 343 623 360 684 c 1,0,1
EndSplineSet
EndChar

StartChar: one
Encoding: 49 49 67
Width: 458
Flags: W
HStem: 0 5<63 69.2617 417.729 424>
VStem: 173.5 137.5<50.4663 153 974 1192.82>
LayerCount: 2
Fore
SplineSet
324 1347 m 1,0,1
 318 1264 318 1264 315 1169.5 c 128,-1,2
 312 1075 312 1075 311 974 c 128,-1,3
 310 873 310 873 310.5 766.5 c 128,-1,4
 311 660 311 660 311 554 c 0,5,6
 311 451 311 451 313 350 c 128,-1,7
 315 249 315 249 321 149 c 0,8,9
 324 95 324 95 348.5 58.5 c 128,-1,10
 373 22 373 22 424 5 c 1,11,-1
 424 0 l 1,12,-1
 63 0 l 1,13,-1
 63 5 l 1,14,15
 114 22 114 22 136 61 c 128,-1,16
 158 100 158 100 162 153 c 1,17,18
 169 314 169 314 173.5 452 c 128,-1,19
 178 590 178 590 178 721 c 0,20,21
 178 869 178 869 177.5 965 c 128,-1,22
 177 1061 177 1061 170.5 1116.5 c 128,-1,23
 164 1172 164 1172 149 1193.5 c 128,-1,24
 134 1215 134 1215 106 1215 c 0,25,26
 97 1215 97 1215 81.5 1211.5 c 128,-1,27
 66 1208 66 1208 50 1204.5 c 128,-1,28
 34 1201 34 1201 20.5 1197.5 c 128,-1,29
 7 1194 7 1194 2 1194 c 0,30,31
 -4 1194 -4 1194 -4 1197 c 0,32,33
 -4 1202 -4 1202 14 1212.5 c 128,-1,34
 32 1223 32 1223 63 1237 c 2,35,-1
 324 1347 l 1,0,1
EndSplineSet
EndChar

StartChar: slash
Encoding: 47 47 68
Width: 483
Flags: W
HStem: 0 21G<50 181.858> 1307 20G<302.142 434>
VStem: 50 384
LayerCount: 2
Fore
SplineSet
306 1327 m 1,0,-1
 434 1327 l 1,1,-1
 178 0 l 1,2,-1
 50 0 l 1,3,-1
 306 1327 l 1,0,-1
EndSplineSet
EndChar

StartChar: fraction
Encoding: 8260 8260 69
Width: 752
Flags: W
LayerCount: 2
Fore
SplineSet
629 1151 m 1,0,-1
 760 1152 l 1,1,-1
 127 224 l 1,2,-1
 -4 223 l 1,3,-1
 629 1151 l 1,0,-1
EndSplineSet
EndChar

StartChar: two
Encoding: 50 50 70
Width: 673
Flags: W
HStem: -1 107<160 515.305> 971 21G<186.686 203> 1217 109<243.769 461.512>
VStem: 490 142<878.805 1188.97> 566 5<235.458 246>
LayerCount: 2
Fore
SplineSet
395 106 m 2,0,1
 434 106 434 106 463.5 118 c 128,-1,2
 493 130 493 130 514 149.5 c 128,-1,3
 535 169 535 169 548 194.5 c 128,-1,4
 561 220 561 220 566 246 c 1,5,-1
 571 246 l 1,6,-1
 570 0 l 1,7,8
 541 0 541 0 491.5 -0.5 c 128,-1,9
 442 -1 442 -1 385 -1 c 2,10,-1
 167 -1 l 2,11,12
 112 -1 112 -1 61 0 c 1,13,-1
 16 126 l 1,14,15
 44 191 44 191 90.5 266 c 128,-1,16
 137 341 137 341 189.5 423 c 128,-1,17
 242 505 242 505 295.5 590.5 c 128,-1,18
 349 676 349 676 392.5 761 c 128,-1,19
 436 846 436 846 463 929 c 128,-1,20
 490 1012 490 1012 490 1088 c 0,21,22
 490 1121 490 1121 479 1145 c 128,-1,23
 468 1169 468 1169 450 1185 c 128,-1,24
 432 1201 432 1201 408 1209 c 128,-1,25
 384 1217 384 1217 359 1217 c 0,26,27
 329 1217 329 1217 299.5 1206.5 c 128,-1,28
 270 1196 270 1196 246 1175 c 128,-1,29
 222 1154 222 1154 207.5 1123 c 128,-1,30
 193 1092 193 1092 193 1051 c 0,31,32
 193 1014 193 1014 203 974 c 1,33,-1
 199 971 l 1,34,-1
 58 1200 l 1,35,36
 117 1263 117 1263 197 1294.5 c 128,-1,37
 277 1326 277 1326 357 1326 c 0,38,39
 411 1326 411 1326 461 1311 c 128,-1,40
 511 1296 511 1296 549 1266 c 128,-1,41
 587 1236 587 1236 609.5 1190.5 c 128,-1,42
 632 1145 632 1145 632 1084 c 0,43,44
 632 1019 632 1019 611 944.5 c 128,-1,45
 590 870 590 870 554 789 c 128,-1,46
 518 708 518 708 470.5 622 c 128,-1,47
 423 536 423 536 370.5 449 c 128,-1,48
 318 362 318 362 263.5 275.5 c 128,-1,49
 209 189 209 189 160 106 c 1,50,-1
 395 106 l 2,0,1
EndSplineSet
EndChar

StartChar: three
Encoding: 51 51 71
Width: 690
Flags: W
HStem: -29 105<214.969 406.393> 677 106<226 375.908> 1029 5<260.11 264> 1243 105<195.512 399.107>
VStem: 44 134<111.267 301 1061.62 1218.04> 448 150<855.232 1193.65> 478 150<163.519 590.485>
LayerCount: 2
Fore
SplineSet
226 783 m 1,0,1
 290 784 290 784 333 802 c 128,-1,2
 376 820 376 820 401.5 853 c 128,-1,3
 427 886 427 886 437.5 933.5 c 128,-1,4
 448 981 448 981 448 1042 c 0,5,6
 448 1093 448 1093 436 1131 c 128,-1,7
 424 1169 424 1169 403.5 1193.5 c 128,-1,8
 383 1218 383 1218 356.5 1230.5 c 128,-1,9
 330 1243 330 1243 301 1243 c 0,10,11
 268 1243 268 1243 245.5 1235 c 128,-1,12
 223 1227 223 1227 208.5 1213.5 c 128,-1,13
 194 1200 194 1200 187.5 1183 c 128,-1,14
 181 1166 181 1166 181 1149 c 0,15,16
 181 1117 181 1117 201.5 1086 c 128,-1,17
 222 1055 222 1055 264 1034 c 1,18,-1
 263 1029 l 1,19,-1
 44 1049 l 1,20,21
 44 1125 44 1125 69.5 1181.5 c 128,-1,22
 95 1238 95 1238 134.5 1275 c 128,-1,23
 174 1312 174 1312 222 1330 c 128,-1,24
 270 1348 270 1348 316 1348 c 0,25,26
 375 1348 375 1348 426.5 1328 c 128,-1,27
 478 1308 478 1308 516 1268.5 c 128,-1,28
 554 1229 554 1229 576 1171 c 128,-1,29
 598 1113 598 1113 598 1038 c 0,30,31
 598 926 598 926 554.5 848 c 128,-1,32
 511 770 511 770 438 725 c 1,33,34
 525 680 525 680 576.5 602 c 128,-1,35
 628 524 628 524 628 412 c 0,36,37
 628 306 628 306 604.5 224 c 128,-1,38
 581 142 581 142 538.5 85.5 c 128,-1,39
 496 29 496 29 437 0 c 128,-1,40
 378 -29 378 -29 307 -29 c 0,41,42
 261 -29 261 -29 214 -9.5 c 128,-1,43
 167 10 167 10 129.5 50.5 c 128,-1,44
 92 91 92 91 68 153 c 128,-1,45
 44 215 44 215 44 301 c 1,46,-1
 263 361 l 1,47,-1
 264 356 l 1,48,49
 228 335 228 335 203 301 c 128,-1,50
 178 267 178 267 178 237 c 0,51,52
 178 200 178 200 188 170.5 c 128,-1,53
 198 141 198 141 215 120 c 128,-1,54
 232 99 232 99 256 87.5 c 128,-1,55
 280 76 280 76 309 76 c 0,56,57
 387 76 387 76 432.5 158 c 128,-1,58
 478 240 478 240 478 408 c 0,59,60
 478 470 478 470 466 519 c 128,-1,61
 454 568 454 568 425 602.5 c 128,-1,62
 396 637 396 637 347.5 656 c 128,-1,63
 299 675 299 675 226 677 c 1,64,-1
 226 783 l 1,0,1
EndSplineSet
EndChar

StartChar: five
Encoding: 53 53 72
Width: 676
Flags: W
HStem: -29 115<221.296 407.36> 356 5<270.11 274> 1220 106.5<218 503.305>
VStem: 44 147<119.469 321> 478 150<165.195 638.933> 554 5<1080 1090.54>
LayerCount: 2
Fore
SplineSet
239 813 m 1,0,1
 318 835 318 835 388.5 822.5 c 128,-1,2
 459 810 459 810 512 757.5 c 128,-1,3
 565 705 565 705 596.5 610 c 128,-1,4
 628 515 628 515 628 372 c 0,5,6
 628 274 628 274 603.5 199 c 128,-1,7
 579 124 579 124 535.5 73.5 c 128,-1,8
 492 23 492 23 433 -3 c 128,-1,9
 374 -29 374 -29 306 -29 c 0,10,11
 262 -29 262 -29 215.5 -8 c 128,-1,12
 169 13 169 13 131 56.5 c 128,-1,13
 93 100 93 100 68.5 165.5 c 128,-1,14
 44 231 44 231 44 321 c 1,15,-1
 273 361 l 1,16,-1
 274 356 l 1,17,18
 232 334 232 334 211.5 303 c 128,-1,19
 191 272 191 272 191 240 c 0,20,21
 191 211 191 211 197.5 183.5 c 128,-1,22
 204 156 204 156 218.5 134.5 c 128,-1,23
 233 113 233 113 255.5 99.5 c 128,-1,24
 278 86 278 86 311 86 c 256,25,26
 344 86 344 86 374 103 c 128,-1,27
 404 120 404 120 427 155 c 128,-1,28
 450 190 450 190 464 243 c 128,-1,29
 478 296 478 296 478 368 c 0,30,31
 478 457 478 457 470 518 c 128,-1,32
 462 579 462 579 444 618.5 c 128,-1,33
 426 658 426 658 398 678.5 c 128,-1,34
 370 699 370 699 330 705.5 c 128,-1,35
 290 712 290 712 236.5 708 c 128,-1,36
 183 704 183 704 116 694 c 1,37,-1
 83 1326 l 1,38,39
 209 1327 209 1327 325 1326.5 c 128,-1,40
 441 1326 441 1326 559 1326 c 1,41,-1
 559 1080 l 1,42,-1
 554 1080 l 1,43,44
 549 1106 549 1106 536 1131.5 c 128,-1,45
 523 1157 523 1157 502 1176.5 c 128,-1,46
 481 1196 481 1196 451.5 1208 c 128,-1,47
 422 1220 422 1220 383 1220 c 2,48,-1
 218 1220 l 1,49,-1
 239 813 l 1,0,1
EndSplineSet
EndChar

StartChar: zero
Encoding: 48 48 73
Width: 865
Flags: W
HStem: -18 118<336.674 518.738> 599 77<302.535 559.404> 1200 117<340.439 518.321>
VStem: 64 156<307.404 992.64> 643 159<316.562 993.064>
LayerCount: 2
Fore
SplineSet
802 649 m 0,0,1
 802 493 802 493 772 369.5 c 128,-1,2
 742 246 742 246 691.5 160 c 128,-1,3
 641 74 641 74 575 28 c 128,-1,4
 509 -18 509 -18 437 -18 c 0,5,6
 357 -18 357 -18 289 27.5 c 128,-1,7
 221 73 221 73 171 158.5 c 128,-1,8
 121 244 121 244 92.5 368 c 128,-1,9
 64 492 64 492 64 649 c 0,10,11
 64 809 64 809 93 933.5 c 128,-1,12
 122 1058 122 1058 172 1143 c 128,-1,13
 222 1228 222 1228 290.5 1272.5 c 128,-1,14
 359 1317 359 1317 437 1317 c 0,15,16
 512 1317 512 1317 578.5 1272.5 c 128,-1,17
 645 1228 645 1228 694.5 1143 c 128,-1,18
 744 1058 744 1058 773 933.5 c 128,-1,19
 802 809 802 809 802 649 c 0,0,1
426 100 m 0,20,21
 480 100 480 100 520.5 146 c 128,-1,22
 561 192 561 192 588.5 268.5 c 128,-1,23
 616 345 616 345 629.5 443.5 c 128,-1,24
 643 542 643 542 643 646 c 0,25,26
 643 751 643 751 629 850.5 c 128,-1,27
 615 950 615 950 588 1028 c 128,-1,28
 561 1106 561 1106 520.5 1153 c 128,-1,29
 480 1200 480 1200 426 1200 c 0,30,31
 376 1200 376 1200 337.5 1152 c 128,-1,32
 299 1104 299 1104 273 1025 c 128,-1,33
 247 946 247 946 233.5 845 c 128,-1,34
 220 744 220 744 220 638 c 0,35,36
 220 569 220 569 225.5 502.5 c 128,-1,37
 231 436 231 436 242.5 376 c 128,-1,38
 254 316 254 316 271 265.5 c 128,-1,39
 288 215 288 215 311 178 c 128,-1,40
 334 141 334 141 362.5 120.5 c 128,-1,41
 391 100 391 100 426 100 c 0,20,21
560 703 m 1,42,-1
 560 572 l 1,43,44
 543 584 543 584 513.5 591.5 c 128,-1,45
 484 599 484 599 436 599 c 0,46,47
 381 599 381 599 349.5 590.5 c 128,-1,48
 318 582 318 582 302 571 c 1,49,-1
 302 702 l 1,50,51
 319 692 319 692 351.5 684 c 128,-1,52
 384 676 384 676 437 676 c 0,53,54
 481 676 481 676 511 683.5 c 128,-1,55
 541 691 541 691 560 703 c 1,42,-1
EndSplineSet
EndChar

StartChar: six
Encoding: 54 54 74
Width: 785
Flags: W
HStem: -16 106<322.561 503.071> 726 100<372.815 536.359> 1207 110<347.347 519.973>
VStem: 64 156<303.158 989.69> 568 126<989.4 1158.41> 593 144<206.725 662.883>
LayerCount: 2
Fore
SplineSet
413 -16 m 0,0,1
 346 -16 346 -16 294 15 c 128,-1,2
 242 46 242 46 203 97.5 c 128,-1,3
 164 149 164 149 137.5 217 c 128,-1,4
 111 285 111 285 94.5 359 c 128,-1,5
 78 433 78 433 71 508 c 128,-1,6
 64 583 64 583 64 649 c 0,7,8
 64 809 64 809 93.5 933.5 c 128,-1,9
 123 1058 123 1058 175 1143 c 128,-1,10
 227 1228 227 1228 296.5 1272.5 c 128,-1,11
 366 1317 366 1317 447 1317 c 0,12,13
 498 1317 498 1317 542.5 1294 c 128,-1,14
 587 1271 587 1271 621 1236 c 128,-1,15
 655 1201 655 1201 674.5 1158 c 128,-1,16
 694 1115 694 1115 694 1076 c 0,17,18
 694 1025 694 1025 654 992 c 1,19,-1
 525 906 l 1,20,-1
 522 911 l 1,21,22
 546 934 546 934 557 963 c 128,-1,23
 568 992 568 992 568 1022 c 0,24,25
 568 1056 568 1056 558 1089 c 128,-1,26
 548 1122 548 1122 530.5 1148.5 c 128,-1,27
 513 1175 513 1175 488.5 1191 c 128,-1,28
 464 1207 464 1207 436 1207 c 0,29,30
 401 1207 401 1207 371 1184.5 c 128,-1,31
 341 1162 341 1162 317 1122 c 128,-1,32
 293 1082 293 1082 275 1028 c 128,-1,33
 257 974 257 974 244.5 911 c 128,-1,34
 232 848 232 848 226 778 c 128,-1,35
 220 708 220 708 220 638 c 0,36,37
 220 583 220 583 223 521 c 128,-1,38
 226 459 226 459 234 398.5 c 128,-1,39
 242 338 242 338 256 282 c 128,-1,40
 270 226 270 226 291 183.5 c 128,-1,41
 312 141 312 141 342 115.5 c 128,-1,42
 372 90 372 90 413 90 c 0,43,44
 456 90 456 90 490 121 c 128,-1,45
 524 152 524 152 546.5 201.5 c 128,-1,46
 569 251 569 251 581 312.5 c 128,-1,47
 593 374 593 374 593 435 c 0,48,49
 593 492 593 492 585 544.5 c 128,-1,50
 577 597 577 597 560.5 637.5 c 128,-1,51
 544 678 544 678 518.5 702 c 128,-1,52
 493 726 493 726 459 726 c 0,53,54
 447 726 447 726 431.5 723.5 c 128,-1,55
 416 721 416 721 402.5 714 c 128,-1,56
 389 707 389 707 379.5 695 c 128,-1,57
 370 683 370 683 370 664 c 0,58,59
 370 643 370 643 378.5 618.5 c 128,-1,60
 387 594 387 594 406 563 c 1,61,-1
 268 677 l 1,62,63
 273 714 273 714 294 741.5 c 128,-1,64
 315 769 315 769 344.5 788 c 128,-1,65
 374 807 374 807 406.5 816.5 c 128,-1,66
 439 826 439 826 466 826 c 0,67,68
 536 826 536 826 587 793.5 c 128,-1,69
 638 761 638 761 671.5 707 c 128,-1,70
 705 653 705 653 721 583 c 128,-1,71
 737 513 737 513 737 437 c 0,72,73
 737 356 737 356 715.5 275 c 128,-1,74
 694 194 694 194 652.5 129.5 c 128,-1,75
 611 65 611 65 550.5 24.5 c 128,-1,76
 490 -16 490 -16 413 -16 c 0,0,1
EndSplineSet
EndChar

StartChar: nine
Encoding: 57 57 75
Width: 785
Flags: W
HStem: -16 110<265.007 437.869> 475 100<248.641 412.185> 1211 106<281.77 462.331>
VStem: 48 144<638.117 1094.27> 91 126<142.588 311.6> 565 156<311.415 997.842>
LayerCount: 2
Fore
SplineSet
372 1317 m 0,0,1
 439 1317 439 1317 491 1286 c 128,-1,2
 543 1255 543 1255 582 1203.5 c 128,-1,3
 621 1152 621 1152 647.5 1084 c 128,-1,4
 674 1016 674 1016 690.5 942 c 128,-1,5
 707 868 707 868 714 793 c 128,-1,6
 721 718 721 718 721 652 c 0,7,8
 721 492 721 492 691.5 367.5 c 128,-1,9
 662 243 662 243 610 158 c 128,-1,10
 558 73 558 73 488.5 28.5 c 128,-1,11
 419 -16 419 -16 338 -16 c 0,12,13
 287 -16 287 -16 242.5 7 c 128,-1,14
 198 30 198 30 164 65 c 128,-1,15
 130 100 130 100 110.5 143 c 128,-1,16
 91 186 91 186 91 225 c 0,17,18
 91 276 91 276 131 309 c 1,19,-1
 260 395 l 1,20,-1
 263 390 l 1,21,22
 239 367 239 367 228 338 c 128,-1,23
 217 309 217 309 217 279 c 0,24,25
 217 245 217 245 227 212 c 128,-1,26
 237 179 237 179 254.5 152.5 c 128,-1,27
 272 126 272 126 296 110 c 128,-1,28
 320 94 320 94 349 94 c 0,29,30
 402 94 402 94 442.5 143 c 128,-1,31
 483 192 483 192 510 272.5 c 128,-1,32
 537 353 537 353 551 455 c 128,-1,33
 565 557 565 557 565 663 c 0,34,35
 565 718 565 718 562 780 c 128,-1,36
 559 842 559 842 551 902.5 c 128,-1,37
 543 963 543 963 529 1019 c 128,-1,38
 515 1075 515 1075 494 1117.5 c 128,-1,39
 473 1160 473 1160 442.5 1185.5 c 128,-1,40
 412 1211 412 1211 372 1211 c 0,41,42
 328 1211 328 1211 294.5 1180 c 128,-1,43
 261 1149 261 1149 238.5 1099.5 c 128,-1,44
 216 1050 216 1050 204 988.5 c 128,-1,45
 192 927 192 927 192 866 c 0,46,47
 192 809 192 809 200 756.5 c 128,-1,48
 208 704 208 704 224.5 663.5 c 128,-1,49
 241 623 241 623 266.5 599 c 128,-1,50
 292 575 292 575 326 575 c 0,51,52
 338 575 338 575 353.5 577.5 c 128,-1,53
 369 580 369 580 382.5 587 c 128,-1,54
 396 594 396 594 405.5 606 c 128,-1,55
 415 618 415 618 415 637 c 0,56,57
 415 658 415 658 406.5 682.5 c 128,-1,58
 398 707 398 707 379 738 c 1,59,-1
 517 624 l 1,60,61
 512 587 512 587 491 559 c 128,-1,62
 470 531 470 531 440.5 512.5 c 128,-1,63
 411 494 411 494 378.5 484.5 c 128,-1,64
 346 475 346 475 319 475 c 0,65,66
 249 475 249 475 198 507.5 c 128,-1,67
 147 540 147 540 113.5 594 c 128,-1,68
 80 648 80 648 64 718 c 128,-1,69
 48 788 48 788 48 864 c 0,70,71
 48 945 48 945 69.5 1026 c 128,-1,72
 91 1107 91 1107 132.5 1171.5 c 128,-1,73
 174 1236 174 1236 234.5 1276.5 c 128,-1,74
 295 1317 295 1317 372 1317 c 0,0,1
EndSplineSet
EndChar

StartChar: eight
Encoding: 56 56 76
Width: 778
Flags: W
HStem: -29 106<273.074 488.738> 1243 104<295.966 487.159>
VStem: 62 150<140.87 556.294> 92 149<845.433 1185.79> 536 150<845.933 1193.64> 568 148<165.912 556.669>
LayerCount: 2
Fore
SplineSet
381 77 m 0,0,1
 429 77 429 77 464 101 c 128,-1,2
 499 125 499 125 522.5 164.5 c 128,-1,3
 546 204 546 204 557 255.5 c 128,-1,4
 568 307 568 307 568 362 c 0,5,6
 568 411 568 411 560.5 460 c 128,-1,7
 553 509 553 509 538 552 c 128,-1,8
 523 595 523 595 501 630 c 128,-1,9
 479 665 479 665 451 686 c 1,10,11
 382 680 382 680 336 653 c 128,-1,12
 290 626 290 626 262.5 580.5 c 128,-1,13
 235 535 235 535 223.5 471 c 128,-1,14
 212 407 212 407 212 328 c 0,15,16
 212 202 212 202 257.5 139.5 c 128,-1,17
 303 77 303 77 381 77 c 0,0,1
389 1347 m 256,18,19
 448 1347 448 1347 502 1327 c 128,-1,20
 556 1307 556 1307 597 1268 c 128,-1,21
 638 1229 638 1229 662 1171 c 128,-1,22
 686 1113 686 1113 686 1038 c 0,23,24
 686 926 686 926 642.5 848 c 128,-1,25
 599 770 599 770 526 725 c 1,26,27
 612 669 612 669 664 571.5 c 128,-1,28
 716 474 716 474 716 332 c 0,29,30
 716 244 716 244 692.5 176.5 c 128,-1,31
 669 109 669 109 625.5 63.5 c 128,-1,32
 582 18 582 18 520.5 -5.5 c 128,-1,33
 459 -29 459 -29 383 -29 c 0,34,35
 312 -29 312 -29 253 -5.5 c 128,-1,36
 194 18 194 18 151.5 63.5 c 128,-1,37
 109 109 109 109 85.5 176.5 c 128,-1,38
 62 244 62 244 62 332 c 0,39,40
 62 474 62 474 114 571.5 c 128,-1,41
 166 669 166 669 252 725 c 1,42,43
 179 770 179 770 135.5 848 c 128,-1,44
 92 926 92 926 92 1038 c 0,45,46
 92 1113 92 1113 116 1171 c 128,-1,47
 140 1229 140 1229 181 1268 c 128,-1,48
 222 1307 222 1307 276 1327 c 128,-1,49
 330 1347 330 1347 389 1347 c 256,18,19
389 1243 m 0,50,51
 352 1243 352 1243 324 1224 c 128,-1,52
 296 1205 296 1205 277.5 1173 c 128,-1,53
 259 1141 259 1141 250 1100 c 128,-1,54
 241 1059 241 1059 241 1016 c 0,55,56
 241 977 241 977 247 939 c 128,-1,57
 253 901 253 901 265 867.5 c 128,-1,58
 277 834 277 834 295 807.5 c 128,-1,59
 313 781 313 781 337 765 c 1,60,61
 394 771 394 771 432.5 792 c 128,-1,62
 471 813 471 813 494 848.5 c 128,-1,63
 517 884 517 884 526.5 932.5 c 128,-1,64
 536 981 536 981 536 1042 c 0,65,66
 536 1093 536 1093 524 1131 c 128,-1,67
 512 1169 512 1169 491.5 1193.5 c 128,-1,68
 471 1218 471 1218 444.5 1230.5 c 128,-1,69
 418 1243 418 1243 389 1243 c 0,50,51
EndSplineSet
EndChar

StartChar: plus
Encoding: 43 43 77
Width: 582
Flags: W
HStem: 486 106<53.817 236 342 527.059>
VStem: 236 106<302.848 486 592 776.059>
LayerCount: 2
Fore
SplineSet
219 777 m 1,0,-1
 361 777 l 1,1,2
 353 749 353 749 348.5 705 c 128,-1,3
 344 661 344 661 342 592 c 1,4,5
 407 592 407 592 452.5 595 c 128,-1,6
 498 598 498 598 528 610 c 1,7,-1
 528 468 l 1,8,9
 500 475 500 475 456 479.5 c 128,-1,10
 412 484 412 484 342 486 c 1,11,12
 344 415 344 415 348.5 371 c 128,-1,13
 353 327 353 327 361 302 c 1,14,-1
 219 302 l 1,15,16
 224 329 224 329 229 373.5 c 128,-1,17
 234 418 234 418 236 486 c 1,18,19
 166 485 166 485 122 480.5 c 128,-1,20
 78 476 78 476 53 468 c 1,21,-1
 53 610 l 1,22,23
 79 604 79 604 123.5 599 c 128,-1,24
 168 594 168 594 237 592 c 1,25,26
 237 656 237 656 234 701.5 c 128,-1,27
 231 747 231 747 219 777 c 1,0,-1
EndSplineSet
EndChar

StartChar: dagger
Encoding: 8224 8224 78
Width: 596
Flags: W
HStem: 0 21G<206 388> 586 87<37.9729 243 349 557.964> 943 20G<206 388>
VStem: 243 106<140.401 586 673 961.681>
LayerCount: 2
Fore
SplineSet
206 963 m 1,0,-1
 388 963 l 1,1,2
 371 921 371 921 360.5 852 c 128,-1,3
 350 783 350 783 349 672 c 1,4,5
 421 672 421 672 473.5 678 c 128,-1,6
 526 684 526 684 559 710 c 1,7,-1
 559 548 l 1,8,9
 528 563 528 563 477.5 573 c 128,-1,10
 427 583 427 583 349 586 c 1,11,12
 350 368 350 368 359.5 226 c 128,-1,13
 369 84 369 84 388 0 c 1,14,-1
 206 0 l 1,15,16
 219 85 219 85 230 228 c 128,-1,17
 241 371 241 371 243 586 c 1,18,19
 162 583 162 583 114 574 c 128,-1,20
 66 565 66 565 37 548 c 1,21,-1
 37 710 l 1,22,23
 68 698 68 698 116 687.5 c 128,-1,24
 164 677 164 677 244 673 c 1,25,26
 244 725 244 725 243.5 768.5 c 128,-1,27
 243 812 243 812 239.5 848 c 128,-1,28
 236 884 236 884 228 912 c 128,-1,29
 220 940 220 940 206 963 c 1,0,-1
EndSplineSet
EndChar

StartChar: dollar
Encoding: 36 36 79
Width: 661
Flags: W
HStem: -18 106<203.438 301.5> 971 21G<479 495.314> 1219 107<356.785 449.852>
VStem: 71 151<906.067 1179.67> 285 71<-128 88 100.5 1408> 422 164<126.724 416.713>
LayerCount: 2
Fore
SplineSet
287 88 m 0,0,1
 316 88 316 88 341 100.5 c 128,-1,2
 366 113 366 113 384 134 c 128,-1,3
 402 155 402 155 412 181 c 128,-1,4
 422 207 422 207 422 234 c 0,5,6
 422 308 422 308 396 374 c 128,-1,7
 370 440 370 440 331 502.5 c 128,-1,8
 292 565 292 565 246.5 627 c 128,-1,9
 201 689 201 689 162 753.5 c 128,-1,10
 123 818 123 818 97 888 c 128,-1,11
 71 958 71 958 71 1038 c 0,12,13
 71 1095 71 1095 92.5 1147 c 128,-1,14
 114 1199 114 1199 154 1239 c 128,-1,15
 194 1279 194 1279 251.5 1302.5 c 128,-1,16
 309 1326 309 1326 382 1326 c 0,17,18
 439 1326 439 1326 501 1293.5 c 128,-1,19
 563 1261 563 1261 624 1200 c 1,20,-1
 483 971 l 1,21,-1
 479 974 l 1,22,23
 489 1014 489 1014 489 1051 c 0,24,25
 489 1092 489 1092 477.5 1123.5 c 128,-1,26
 466 1155 466 1155 448.5 1176 c 128,-1,27
 431 1197 431 1197 410 1208 c 128,-1,28
 389 1219 389 1219 369 1219 c 0,29,30
 337 1219 337 1219 310 1207.5 c 128,-1,31
 283 1196 283 1196 263.5 1176.5 c 128,-1,32
 244 1157 244 1157 233 1130 c 128,-1,33
 222 1103 222 1103 222 1073 c 0,34,35
 222 1011 222 1011 249 945.5 c 128,-1,36
 276 880 276 880 316.5 813 c 128,-1,37
 357 746 357 746 404 677 c 128,-1,38
 451 608 451 608 491.5 539 c 128,-1,39
 532 470 532 470 559 401.5 c 128,-1,40
 586 333 586 333 586 266 c 0,41,42
 586 208 586 208 565.5 156.5 c 128,-1,43
 545 105 545 105 505.5 66 c 128,-1,44
 466 27 466 27 409 4.5 c 128,-1,45
 352 -18 352 -18 279 -18 c 0,46,47
 222 -18 222 -18 160 14.5 c 128,-1,48
 98 47 98 47 37 108 c 1,49,-1
 178 307 l 1,50,-1
 182 304 l 1,51,52
 174 286 174 286 171 268.5 c 128,-1,53
 168 251 168 251 168 234 c 0,54,55
 168 203 168 203 178.5 176 c 128,-1,56
 189 149 189 149 205.5 129.5 c 128,-1,57
 222 110 222 110 243.5 99 c 128,-1,58
 265 88 265 88 287 88 c 0,0,1
285 1408 m 1,59,-1
 356 1408 l 1,60,-1
 356 -128 l 1,61,-1
 285 -128 l 1,62,-1
 285 1408 l 1,59,-1
EndSplineSet
EndChar

StartChar: bar
Encoding: 124 124 80
Width: 362
Flags: W
VStem: 117 128<-128 1408>
LayerCount: 2
Fore
SplineSet
117 1408 m 1,0,-1
 245 1408 l 1,1,-1
 245 -128 l 1,2,-1
 117 -128 l 1,3,-1
 117 1408 l 1,0,-1
EndSplineSet
EndChar

StartChar: florin
Encoding: 402 402 81
Width: 512
Flags: W
HStem: -240 119<90.2637 196.471> 901 77<255 471.623> 918 60<18 105> 1279 109<250.792 354.945>
VStem: 97 137<981.306 1268.68> 208 139.5<-111.714 455.179>
LayerCount: 2
Fore
SplineSet
208 150 m 0,0,1
 198 234 198 234 190 300 c 128,-1,2
 182 366 182 366 175.5 419 c 128,-1,3
 169 472 169 472 163.5 515 c 128,-1,4
 158 558 158 558 154 597 c 0,5,6
 149 640 149 640 144 677.5 c 128,-1,7
 139 715 139 715 134 752 c 128,-1,8
 129 789 129 789 124 826.5 c 128,-1,9
 119 864 119 864 113 907 c 1,10,11
 84 909 84 909 66 910.5 c 128,-1,12
 48 912 48 912 37 914 c 0,13,14
 25 916 25 916 18 918 c 1,15,-1
 11 978 l 1,16,-1
 105 978 l 1,17,18
 92 1084 92 1084 97 1161.5 c 128,-1,19
 102 1239 102 1239 122.5 1289.5 c 128,-1,20
 143 1340 143 1340 178.5 1364 c 128,-1,21
 214 1388 214 1388 263 1388 c 0,22,23
 311 1388 311 1388 369 1368.5 c 128,-1,24
 427 1349 427 1349 497 1304 c 1,25,-1
 395 1089 l 1,26,-1
 392 1091 l 1,27,28
 396 1107 396 1107 393 1134 c 0,29,30
 389 1166 389 1166 378 1192.5 c 128,-1,31
 367 1219 367 1219 352 1238.5 c 128,-1,32
 337 1258 337 1258 319.5 1268.5 c 128,-1,33
 302 1279 302 1279 286 1279 c 0,34,35
 271 1279 271 1279 259 1269 c 128,-1,36
 247 1259 247 1259 240 1227.5 c 128,-1,37
 233 1196 233 1196 234 1136.5 c 128,-1,38
 235 1077 235 1077 247 978 c 1,39,-1
 318 978 l 2,40,41
 373 978 373 978 411.5 979.5 c 128,-1,42
 450 981 450 981 474 983 c 0,43,44
 502 985 502 985 520 988 c 1,45,-1
 472 878 l 1,46,47
 460 884 460 884 441 889 c 0,48,49
 424 894 424 894 396 897.5 c 128,-1,50
 368 901 368 901 326 901 c 2,51,-1
 255 901 l 1,52,53
 265 810 265 810 278 694.5 c 128,-1,54
 291 579 291 579 309 427 c 0,55,56
 313 393 313 393 319 345.5 c 128,-1,57
 325 298 325 298 330 254 c 0,58,59
 336 203 336 203 343 149 c 0,60,61
 355 48 355 48 347.5 -25.5 c 128,-1,62
 340 -99 340 -99 316 -146.5 c 128,-1,63
 292 -194 292 -194 253.5 -217 c 128,-1,64
 215 -240 215 -240 166 -240 c 0,65,66
 120 -240 120 -240 73 -225.5 c 128,-1,67
 26 -211 26 -211 -39 -176 c 1,68,-1
 62 39 l 1,69,-1
 65 37 l 1,70,71
 61 21 61 21 64 -6 c 0,72,73
 67 -31 67 -31 76.5 -52 c 128,-1,74
 86 -73 86 -73 99.5 -88.5 c 128,-1,75
 113 -104 113 -104 128.5 -112.5 c 128,-1,76
 144 -121 144 -121 158 -121 c 0,77,78
 173 -121 173 -121 186.5 -112 c 128,-1,79
 200 -103 200 -103 208 -74.5 c 128,-1,80
 216 -46 216 -46 217 7.5 c 128,-1,81
 218 61 218 61 208 150 c 0,0,1
EndSplineSet
EndChar

StartChar: ellipsis
Encoding: 8230 8230 82
Width: 846
Flags: W
HStem: -29 202<76.9094 231.155 352.909 507.155 628.909 783.155>
VStem: 47 202<0.909424 155.155> 323 202<0.909424 155.155> 599 202<0.909424 155.155>
CounterMasks: 1 70
LayerCount: 2
Fore
SplineSet
47 71 m 0,0,1
 47 92 47 92 55 110.5 c 128,-1,2
 63 129 63 129 76.5 143 c 128,-1,3
 90 157 90 157 108 165 c 128,-1,4
 126 173 126 173 147 173 c 256,5,6
 168 173 168 173 186.5 165 c 128,-1,7
 205 157 205 157 219 143 c 128,-1,8
 233 129 233 129 241 110.5 c 128,-1,9
 249 92 249 92 249 71 c 256,10,11
 249 50 249 50 241 32 c 128,-1,12
 233 14 233 14 219 0.5 c 128,-1,13
 205 -13 205 -13 186.5 -21 c 128,-1,14
 168 -29 168 -29 147 -29 c 0,15,16
 105 -29 105 -29 76 0 c 128,-1,17
 47 29 47 29 47 71 c 0,0,1
323 71 m 0,18,19
 323 92 323 92 331 110.5 c 128,-1,20
 339 129 339 129 352.5 143 c 128,-1,21
 366 157 366 157 384 165 c 128,-1,22
 402 173 402 173 423 173 c 256,23,24
 444 173 444 173 462.5 165 c 128,-1,25
 481 157 481 157 495 143 c 128,-1,26
 509 129 509 129 517 110.5 c 128,-1,27
 525 92 525 92 525 71 c 256,28,29
 525 50 525 50 517 32 c 128,-1,30
 509 14 509 14 495 0.5 c 128,-1,31
 481 -13 481 -13 462.5 -21 c 128,-1,32
 444 -29 444 -29 423 -29 c 0,33,34
 381 -29 381 -29 352 0 c 128,-1,35
 323 29 323 29 323 71 c 0,18,19
599 71 m 0,36,37
 599 92 599 92 607 110.5 c 128,-1,38
 615 129 615 129 628.5 143 c 128,-1,39
 642 157 642 157 660 165 c 128,-1,40
 678 173 678 173 699 173 c 256,41,42
 720 173 720 173 738.5 165 c 128,-1,43
 757 157 757 157 771 143 c 128,-1,44
 785 129 785 129 793 110.5 c 128,-1,45
 801 92 801 92 801 71 c 256,46,47
 801 50 801 50 793 32 c 128,-1,48
 785 14 785 14 771 0.5 c 128,-1,49
 757 -13 757 -13 738.5 -21 c 128,-1,50
 720 -29 720 -29 699 -29 c 0,51,52
 657 -29 657 -29 628 0 c 128,-1,53
 599 29 599 29 599 71 c 0,36,37
EndSplineSet
EndChar

StartChar: daggerdbl
Encoding: 8225 8225 83
Width: 656
Flags: W
HStem: 0 21G<236 418> 250 87<67.9729 273 379 587.964> 761 87<67.9729 273 379 587.964>
VStem: 273 106<1.224 250 337 761 848 1096.78>
LayerCount: 2
Fore
SplineSet
379 337 m 1,0,1
 457 340 457 340 507.5 350 c 128,-1,2
 558 360 558 360 589 375 c 1,3,-1
 589 213 l 1,4,5
 556 239 556 239 503.5 245 c 128,-1,6
 451 251 451 251 379 251 c 1,7,8
 380 155 380 155 390.5 95.5 c 128,-1,9
 401 36 401 36 418 0 c 1,10,-1
 236 0 l 1,11,12
 264 39 264 39 269 99.5 c 128,-1,13
 274 160 274 160 274 250 c 1,14,15
 194 246 194 246 146 235.5 c 128,-1,16
 98 225 98 225 67 213 c 1,17,-1
 67 375 l 1,18,19
 96 358 96 358 144 349 c 128,-1,20
 192 340 192 340 273 337 c 1,21,22
 273 418 273 418 273 465 c 128,-1,23
 273 512 273 512 273.5 536 c 128,-1,24
 274 560 274 560 274 564.5 c 128,-1,25
 274 569 274 569 274 564 c 128,-1,26
 274 559 274 559 274 549 c 128,-1,27
 274 539 274 539 274 534 c 128,-1,28
 274 529 274 529 274 533.5 c 128,-1,29
 274 538 274 538 273.5 562 c 128,-1,30
 273 586 273 586 273 633 c 128,-1,31
 273 680 273 680 273 761 c 1,32,33
 192 758 192 758 144 749 c 128,-1,34
 96 740 96 740 67 723 c 1,35,-1
 67 885 l 1,36,37
 98 873 98 873 146 862.5 c 128,-1,38
 194 852 194 852 274 848 c 1,39,40
 274 938 274 938 269 998.5 c 128,-1,41
 264 1059 264 1059 236 1098 c 1,42,-1
 418 1098 l 1,43,44
 401 1062 401 1062 390.5 1002.5 c 128,-1,45
 380 943 380 943 379 847 c 1,46,47
 451 847 451 847 503.5 853 c 128,-1,48
 556 859 556 859 589 885 c 1,49,-1
 589 723 l 1,50,51
 558 738 558 738 507.5 748 c 128,-1,52
 457 758 457 758 379 761 c 1,53,-1
 379 337 l 1,0,1
EndSplineSet
EndChar

StartChar: asterisk
Encoding: 42 42 84
Width: 939
Flags: W
HStem: 597 88<103.507 389 537 831.993>
LayerCount: 2
Fore
SplineSet
44 539 m 1,0,-1
 44 742 l 1,1,2
 70 736 70 736 103.5 727.5 c 128,-1,3
 137 719 137 719 179.5 710.5 c 128,-1,4
 222 702 222 702 274 695 c 128,-1,5
 326 688 326 688 389 685 c 1,6,7
 351 743 351 743 316.5 788.5 c 128,-1,8
 282 834 282 834 252 869.5 c 128,-1,9
 222 905 222 905 197 932 c 128,-1,10
 172 959 172 959 153 981 c 1,11,-1
 322 1076 l 1,12,13
 332 1048 332 1048 344 1011.5 c 128,-1,14
 356 975 356 975 372.5 931 c 128,-1,15
 389 887 389 887 412 834.5 c 128,-1,16
 435 782 435 782 468 722 c 1,17,18
 501 782 501 782 524 834.5 c 128,-1,19
 547 887 547 887 564 931 c 128,-1,20
 581 975 581 975 592.5 1011.5 c 128,-1,21
 604 1048 604 1048 615 1076 c 1,22,-1
 784 981 l 1,23,24
 764 959 764 959 737.5 932 c 128,-1,25
 711 905 711 905 679.5 869.5 c 128,-1,26
 648 834 648 834 612 788.5 c 128,-1,27
 576 743 576 743 537 684 c 1,28,29
 603 687 603 687 656.5 694 c 128,-1,30
 710 701 710 701 753.5 710 c 128,-1,31
 797 719 797 719 832 727.5 c 128,-1,32
 867 736 867 736 894 742 c 1,33,-1
 894 539 l 1,34,35
 866 545 866 545 831 553.5 c 128,-1,36
 796 562 796 562 752.5 571 c 128,-1,37
 709 580 709 580 655 587 c 128,-1,38
 601 594 601 594 535 597 c 1,39,40
 575 537 575 537 611 491.5 c 128,-1,41
 647 446 647 446 678.5 410.5 c 128,-1,42
 710 375 710 375 736.5 348 c 128,-1,43
 763 321 763 321 784 299 c 1,44,-1
 615 204 l 1,45,46
 605 231 605 231 593 267 c 128,-1,47
 581 303 581 303 564 347 c 128,-1,48
 547 391 547 391 524 442.5 c 128,-1,49
 501 494 501 494 468 554 c 1,50,51
 435 494 435 494 412 442.5 c 128,-1,52
 389 391 389 391 372 347 c 128,-1,53
 355 303 355 303 343 267 c 128,-1,54
 331 231 331 231 322 204 c 1,55,-1
 153 299 l 1,56,57
 173 321 173 321 198.5 348 c 128,-1,58
 224 375 224 375 254 410.5 c 128,-1,59
 284 446 284 446 318.5 491.5 c 128,-1,60
 353 537 353 537 392 597 c 1,61,62
 328 594 328 594 275.5 587 c 128,-1,63
 223 580 223 580 180.5 571 c 128,-1,64
 138 562 138 562 104.5 553.5 c 128,-1,65
 71 545 71 545 44 539 c 1,0,-1
EndSplineSet
EndChar

StartChar: quotesingle
Encoding: 39 39 85
Width: 280
Flags: W
HStem: 852 475<97 181>
VStem: 97 84<852 1252.98>
LayerCount: 2
Fore
SplineSet
97 852 m 1,0,1
 95 943 95 943 90 1015.5 c 128,-1,2
 85 1088 85 1088 77.5 1145.5 c 128,-1,3
 70 1203 70 1203 60 1247.5 c 128,-1,4
 50 1292 50 1292 37 1327 c 1,5,-1
 240 1327 l 1,6,7
 231 1291 231 1291 221.5 1246 c 128,-1,8
 212 1201 212 1201 204 1144 c 128,-1,9
 196 1087 196 1087 190 1015 c 128,-1,10
 184 943 184 943 181 852 c 1,11,-1
 97 852 l 1,0,1
EndSplineSet
EndChar

StartChar: four
Encoding: 52 52 86
Width: 808
Flags: W
HStem: 0 5<340 346.264 694.852 701> 319 107<140 446 591 716.429>
VStem: 442.5 152<43.4644 319> 772 5<555.458 566>
LayerCount: 2
Fore
SplineSet
590 426 m 1,0,1
 629 426 629 426 660.5 438 c 128,-1,2
 692 450 692 450 715 469.5 c 128,-1,3
 738 489 738 489 752.5 514.5 c 128,-1,4
 767 540 767 540 772 566 c 1,5,-1
 777 566 l 1,6,-1
 777 319 l 1,7,-1
 591 319 l 1,8,9
 593 276 593 276 594.5 233.5 c 128,-1,10
 596 191 596 191 598 149 c 1,11,12
 603 95 603 95 627 58.5 c 128,-1,13
 651 22 651 22 701 5 c 1,14,-1
 701 0 l 1,15,-1
 340 0 l 1,16,-1
 340 5 l 1,17,18
 391 22 391 22 413.5 61 c 128,-1,19
 436 100 436 100 439 153 c 0,20,21
 441 197 441 197 442.5 238 c 128,-1,22
 444 279 444 279 446 319 c 1,23,-1
 163 319 l 2,24,25
 98 319 98 319 41 320 c 1,26,-1
 -4 446 l 1,27,28
 22 476 22 476 54.5 528 c 128,-1,29
 87 580 87 580 122.5 644.5 c 128,-1,30
 158 709 158 709 194.5 781 c 128,-1,31
 231 853 231 853 266 924 c 0,32,33
 347 1089 347 1089 433 1280 c 1,34,-1
 601 1347 l 1,35,36
 590 1204 590 1204 589.5 1037 c 128,-1,37
 589 870 589 870 589 684 c 0,38,39
 589 618 589 618 589 554 c 128,-1,40
 589 490 589 490 590 426 c 1,0,1
140 426 m 1,41,-1
 450 426 l 1,42,43
 452 504 452 504 453.5 576.5 c 128,-1,44
 455 649 455 649 455 721 c 2,45,-1
 455 1055 l 1,46,47
 423 987 423 987 386.5 910 c 128,-1,48
 350 833 350 833 309.5 752 c 128,-1,49
 269 671 269 671 226.5 588.5 c 128,-1,50
 184 506 184 506 140 426 c 1,41,-1
EndSplineSet
EndChar

StartChar: dotlessi
Encoding: 305 305 87
Width: 433
Flags: W
HStem: 0 5<47 53.2617 401.73 408> 908 5<17 25.8281> 973 20G<235.25 302.5>
VStem: 146 150.5<47.5698 515.815> 161.5 134.5<56.2378 889.599>
LayerCount: 2
Fore
SplineSet
162 517 m 0,0,1
 162 610 162 610 161.5 675 c 128,-1,2
 161 740 161 740 157 783.5 c 128,-1,3
 153 827 153 827 144.5 852 c 128,-1,4
 136 877 136 877 119.5 889.5 c 128,-1,5
 103 902 103 902 78 905 c 128,-1,6
 53 908 53 908 17 908 c 1,7,-1
 17 913 l 1,8,-1
 308 993 l 1,9,10
 297 884 297 884 296.5 752.5 c 128,-1,11
 296 621 296 621 296 480 c 0,12,13
 296 424 296 424 296 386 c 128,-1,14
 296 348 296 348 296.5 314 c 128,-1,15
 297 280 297 280 299 242.5 c 128,-1,16
 301 205 301 205 305 149 c 0,17,18
 309 95 309 95 333 58.5 c 128,-1,19
 357 22 357 22 408 5 c 1,20,-1
 408 0 l 1,21,-1
 47 0 l 1,22,-1
 47 5 l 1,23,24
 98 22 98 22 120 61 c 128,-1,25
 142 100 142 100 146 153 c 1,26,27
 148 199 148 199 150.5 233.5 c 128,-1,28
 153 268 153 268 154.5 296 c 128,-1,29
 156 324 156 324 157.5 348 c 128,-1,30
 159 372 159 372 160 397 c 128,-1,31
 161 422 161 422 161.5 450.5 c 128,-1,32
 162 479 162 479 162 517 c 0,0,1
EndSplineSet
EndChar

StartChar: parenleft
Encoding: 40 40 88
Width: 474
Flags: W
HStem: -25 89<348.963 449> 1236 88<353.35 449>
VStem: 66 147<290.527 1000.12>
LayerCount: 2
Fore
SplineSet
449 1317 m 1,0,1
 449 1314 449 1314 449 1301 c 128,-1,2
 449 1288 449 1288 449 1273.5 c 128,-1,3
 449 1259 449 1259 448.5 1247.5 c 128,-1,4
 448 1236 448 1236 447 1236 c 0,5,6
 408 1236 408 1236 376 1212.5 c 128,-1,7
 344 1189 344 1189 318 1147 c 128,-1,8
 292 1105 292 1105 272.5 1048 c 128,-1,9
 253 991 253 991 239.5 924.5 c 128,-1,10
 226 858 226 858 219.5 784.5 c 128,-1,11
 213 711 213 711 213 637 c 0,12,13
 213 527 213 527 227.5 424 c 128,-1,14
 242 321 242 321 271 241 c 128,-1,15
 300 161 300 161 344.5 112.5 c 128,-1,16
 389 64 389 64 449 64 c 1,17,-1
 449 -18 l 1,18,19
 421 -25 421 -25 392 -25 c 0,20,21
 337 -25 337 -25 292 1.5 c 128,-1,22
 247 28 247 28 210.5 74.5 c 128,-1,23
 174 121 174 121 147 185 c 128,-1,24
 120 249 120 249 102 324 c 128,-1,25
 84 399 84 399 75 481.5 c 128,-1,26
 66 564 66 564 66 648 c 256,27,28
 66 732 66 732 75 815 c 128,-1,29
 84 898 84 898 102 973.5 c 128,-1,30
 120 1049 120 1049 147.5 1113 c 128,-1,31
 175 1177 175 1177 211 1224 c 128,-1,32
 247 1271 247 1271 292 1297.5 c 128,-1,33
 337 1324 337 1324 391 1324 c 0,34,35
 421 1324 421 1324 449 1317 c 1,0,1
EndSplineSet
EndChar

StartChar: parenright
Encoding: 41 41 89
Width: 474
Flags: W
HStem: -25 89<25 124.472> 1236 81<25 117.178>
VStem: 261 147<290.527 1000.12>
LayerCount: 2
Fore
SplineSet
25 1317 m 1,0,1
 53 1324 53 1324 83 1324 c 0,2,3
 137 1324 137 1324 182 1297.5 c 128,-1,4
 227 1271 227 1271 263 1224 c 128,-1,5
 299 1177 299 1177 326.5 1113 c 128,-1,6
 354 1049 354 1049 372 973.5 c 128,-1,7
 390 898 390 898 399 815 c 128,-1,8
 408 732 408 732 408 648 c 256,9,10
 408 564 408 564 399 481.5 c 128,-1,11
 390 399 390 399 372 324 c 128,-1,12
 354 249 354 249 327 185 c 128,-1,13
 300 121 300 121 263.5 74.5 c 128,-1,14
 227 28 227 28 181.5 1.5 c 128,-1,15
 136 -25 136 -25 82 -25 c 0,16,17
 53 -25 53 -25 25 -18 c 1,18,-1
 25 64 l 1,19,20
 85 64 85 64 129.5 112.5 c 128,-1,21
 174 161 174 161 203 241 c 128,-1,22
 232 321 232 321 246.5 424 c 128,-1,23
 261 527 261 527 261 637 c 0,24,25
 261 711 261 711 254.5 784.5 c 128,-1,26
 248 858 248 858 234.5 924.5 c 128,-1,27
 221 991 221 991 201.5 1048 c 128,-1,28
 182 1105 182 1105 156 1147 c 128,-1,29
 130 1189 130 1189 97.5 1212.5 c 128,-1,30
 65 1236 65 1236 27 1236 c 0,31,32
 25 1236 25 1236 25 1247.5 c 128,-1,33
 25 1259 25 1259 25 1273.5 c 128,-1,34
 25 1288 25 1288 25 1301 c 128,-1,35
 25 1314 25 1314 25 1317 c 1,0,1
EndSplineSet
EndChar

StartChar: comma
Encoding: 44 44 90
Width: 307
Flags: W
HStem: -288 415<64.5 141.957>
VStem: 42 216
LayerCount: 2
Fore
SplineSet
42 -288 m 1,0,1
 54 -209 54 -209 59 -146 c 128,-1,2
 64 -83 64 -83 64.5 -33 c 128,-1,3
 65 17 65 17 62 56 c 128,-1,4
 59 95 59 95 55 127 c 1,5,-1
 258 127 l 1,6,7
 241 67 241 67 221 -1 c 0,8,9
 204 -59 204 -59 179.5 -133.5 c 128,-1,10
 155 -208 155 -208 126 -288 c 1,11,-1
 42 -288 l 1,0,1
EndSplineSet
EndChar

StartChar: acute
Encoding: 180 180 91
Width: 282
Flags: W
HStem: 1023 415
VStem: 44 83<1039.55 1164.16>
LayerCount: 2
Fore
SplineSet
44 1043 m 1,0,1
 49 1120 49 1120 53 1191 c 128,-1,2
 57 1262 57 1262 61 1317 c 0,3,4
 65 1381 65 1381 69 1438 c 1,5,-1
 272 1438 l 1,6,7
 243 1370 243 1370 216 1299 c 0,8,9
 204 1269 204 1269 192 1234.5 c 128,-1,10
 180 1200 180 1200 168 1164.5 c 128,-1,11
 156 1129 156 1129 145.5 1093 c 128,-1,12
 135 1057 135 1057 127 1023 c 1,13,-1
 44 1043 l 1,0,1
EndSplineSet
EndChar

StartChar: oe
Encoding: 339 339 95
Width: 1150
Flags: W
HStem: -29 106<284.579 444.969 746.158 931.415> 885 107<284.579 445.584 736.185 900.496>
VStem: 63 150<194.95 770.313> 511 151<478 788.163> 959 137<123.068 310.085>
LayerCount: 2
Fore
SplineSet
877 341 m 1,0,-1
 1096 321 l 1,1,2
 1096 231 1096 231 1070.5 165.5 c 128,-1,3
 1045 100 1045 100 1005.5 56.5 c 128,-1,4
 966 13 966 13 918 -8 c 128,-1,5
 870 -29 870 -29 824 -29 c 0,6,7
 752 -29 752 -29 691 10.5 c 128,-1,8
 630 50 630 50 588 128 c 1,9,10
 546 50 546 50 489 10.5 c 128,-1,11
 432 -29 432 -29 365 -29 c 0,12,13
 301 -29 301 -29 246 5 c 128,-1,14
 191 39 191 39 150.5 104 c 128,-1,15
 110 169 110 169 86.5 264 c 128,-1,16
 63 359 63 359 63 482 c 256,17,18
 63 605 63 605 86.5 700 c 128,-1,19
 110 795 110 795 150.5 860 c 128,-1,20
 191 925 191 925 246 958.5 c 128,-1,21
 301 992 301 992 365 992 c 0,22,23
 431 992 431 992 488.5 952.5 c 128,-1,24
 546 913 546 913 587 836 c 1,25,26
 630 913 630 913 691 953 c 128,-1,27
 752 993 752 993 824 993 c 0,28,29
 879 993 879 993 925.5 963.5 c 128,-1,30
 972 934 972 934 1007 876.5 c 128,-1,31
 1042 819 1042 819 1063.5 733.5 c 128,-1,32
 1085 648 1085 648 1090 537 c 1,33,-1
 667 389 l 1,34,35
 680 225 680 225 725 150.5 c 128,-1,36
 770 76 770 76 839 76 c 0,37,38
 872 76 872 76 894.5 88.5 c 128,-1,39
 917 101 917 101 931.5 121.5 c 128,-1,40
 946 142 946 142 952.5 167.5 c 128,-1,41
 959 193 959 193 959 220 c 0,42,43
 959 252 959 252 938.5 283 c 128,-1,44
 918 314 918 314 876 336 c 1,45,-1
 877 341 l 1,0,-1
213 482 m 256,46,47
 213 281 213 281 253 179 c 128,-1,48
 293 77 293 77 365 77 c 0,49,50
 438 77 438 77 474.5 179 c 128,-1,51
 511 281 511 281 511 482 c 256,52,53
 511 683 511 683 474.5 784 c 128,-1,54
 438 885 438 885 365 885 c 0,55,56
 293 885 293 885 253 784 c 128,-1,57
 213 683 213 683 213 482 c 256,46,47
662 478 m 1,58,59
 691 489 691 489 734 506 c 128,-1,60
 777 523 777 523 842 553 c 0,61,62
 879 570 879 570 906 587 c 128,-1,63
 933 604 933 604 954 616 c 1,64,65
 944 755 944 755 911.5 821 c 128,-1,66
 879 887 879 887 824 887 c 0,67,68
 747 887 747 887 704.5 785 c 128,-1,69
 662 683 662 683 662 482 c 2,70,-1
 662 478 l 1,58,59
EndSplineSet
EndChar

StartChar: braceright
Encoding: 125 125 96
Width: 455
Flags: W
HStem: -29 88<28 110.704> 632 54<380.941 427> 1259 81<28 107.198>
VStem: 194 147<168.578 601.78 716.837 1149.42>
LayerCount: 2
Fore
SplineSet
341 417 m 0,0,1
 341 333 341 333 324.5 253 c 128,-1,2
 308 173 308 173 276 110.5 c 128,-1,3
 244 48 244 48 196.5 9.5 c 128,-1,4
 149 -29 149 -29 86 -29 c 0,5,6
 56 -29 56 -29 28 -22 c 1,7,-1
 28 -14 l 1,8,-1
 28 29 l 2,9,10
 28 41 28 41 28 50 c 128,-1,11
 28 59 28 59 30 59 c 0,12,13
 70 59 70 59 100.5 91 c 128,-1,14
 131 123 131 123 152 175 c 128,-1,15
 173 227 173 227 183.5 293.5 c 128,-1,16
 194 360 194 360 194 428 c 0,17,18
 194 500 194 500 219.5 563.5 c 128,-1,19
 245 627 245 627 294 659 c 1,20,21
 270 674 270 674 251 699 c 128,-1,22
 232 724 232 724 219.5 754.5 c 128,-1,23
 207 785 207 785 200.5 819.5 c 128,-1,24
 194 854 194 854 194 890 c 0,25,26
 194 958 194 958 183.5 1024.5 c 128,-1,27
 173 1091 173 1091 152 1143 c 128,-1,28
 131 1195 131 1195 100.5 1227 c 128,-1,29
 70 1259 70 1259 30 1259 c 0,30,31
 28 1259 28 1259 28 1267.5 c 128,-1,32
 28 1276 28 1276 28 1289 c 2,33,-1
 28 1332 l 1,34,-1
 28 1340 l 1,35,36
 56 1347 56 1347 86 1347 c 0,37,38
 149 1347 149 1347 196.5 1308.5 c 128,-1,39
 244 1270 244 1270 276 1207.5 c 128,-1,40
 308 1145 308 1145 324.5 1065 c 128,-1,41
 341 985 341 985 341 901 c 0,42,43
 341 854 341 854 346.5 815 c 128,-1,44
 352 776 352 776 363 747 c 128,-1,45
 374 718 374 718 390 702 c 128,-1,46
 406 686 406 686 427 686 c 1,47,-1
 427 632 l 1,48,49
 406 632 406 632 390 616 c 128,-1,50
 374 600 374 600 363 571 c 128,-1,51
 352 542 352 542 346.5 502.5 c 128,-1,52
 341 463 341 463 341 417 c 0,0,1
EndSplineSet
EndChar

StartChar: asciitilde
Encoding: 126 126 97
Width: 724
Flags: W
HStem: 815 136<210.328 647.12> 856 136<98.5342 534.843>
VStem: 45 655
LayerCount: 2
Fore
SplineSet
504 815 m 0,0,1
 463 815 463 815 424 821.5 c 128,-1,2
 385 828 385 828 345 835.5 c 128,-1,3
 305 843 305 843 263.5 849.5 c 128,-1,4
 222 856 222 856 177 856 c 0,5,6
 141 856 141 856 116.5 845.5 c 128,-1,7
 92 835 92 835 85 812 c 1,8,-1
 45 825 l 1,9,10
 47 869 47 869 63 900.5 c 128,-1,11
 79 932 79 932 105 952.5 c 128,-1,12
 131 973 131 973 166 982.5 c 128,-1,13
 201 992 201 992 241 992 c 256,14,15
 281 992 281 992 325 985.5 c 128,-1,16
 369 979 369 979 411.5 971.5 c 128,-1,17
 454 964 454 964 494.5 957.5 c 128,-1,18
 535 951 535 951 568 951 c 0,19,20
 605 951 605 951 628.5 961 c 128,-1,21
 652 971 652 971 660 994 c 1,22,-1
 700 982 l 1,23,24
 698 938 698 938 682 906 c 128,-1,25
 666 874 666 874 640 854 c 128,-1,26
 614 834 614 834 579 824.5 c 128,-1,27
 544 815 544 815 504 815 c 0,0,1
EndSplineSet
EndChar

StartChar: braceleft
Encoding: 123 123 98
Width: 455
Flags: W
HStem: -29 88<343.296 426> 632 54<27 73.0593> 1259 88<343.296 426>
VStem: 113 147<168.578 601.78 716.837 1149.42>
CounterMasks: 1 e0
LayerCount: 2
Fore
SplineSet
113 417 m 0,0,1
 113 463 113 463 107.5 502.5 c 128,-1,2
 102 542 102 542 91 571 c 128,-1,3
 80 600 80 600 64 616 c 128,-1,4
 48 632 48 632 27 632 c 1,5,-1
 27 686 l 1,6,7
 48 686 48 686 64 702 c 128,-1,8
 80 718 80 718 91 747 c 128,-1,9
 102 776 102 776 107.5 815 c 128,-1,10
 113 854 113 854 113 901 c 0,11,12
 113 985 113 985 129.5 1065 c 128,-1,13
 146 1145 146 1145 178 1207.5 c 128,-1,14
 210 1270 210 1270 257.5 1308.5 c 128,-1,15
 305 1347 305 1347 368 1347 c 0,16,17
 398 1347 398 1347 426 1340 c 1,18,-1
 426 1332 l 1,19,-1
 426 1289 l 2,20,21
 426 1276 426 1276 426 1267.5 c 128,-1,22
 426 1259 426 1259 424 1259 c 0,23,24
 384 1259 384 1259 353.5 1227 c 128,-1,25
 323 1195 323 1195 302 1143 c 128,-1,26
 281 1091 281 1091 270.5 1024.5 c 128,-1,27
 260 958 260 958 260 890 c 0,28,29
 260 854 260 854 253.5 819.5 c 128,-1,30
 247 785 247 785 234.5 754.5 c 128,-1,31
 222 724 222 724 203 699 c 128,-1,32
 184 674 184 674 160 659 c 1,33,34
 209 627 209 627 234.5 563.5 c 128,-1,35
 260 500 260 500 260 428 c 0,36,37
 260 360 260 360 270.5 293.5 c 128,-1,38
 281 227 281 227 302 175 c 128,-1,39
 323 123 323 123 353.5 91 c 128,-1,40
 384 59 384 59 424 59 c 0,41,42
 426 59 426 59 426 50 c 128,-1,43
 426 41 426 41 426 29 c 2,44,-1
 426 -14 l 1,45,-1
 426 -22 l 1,46,47
 398 -29 398 -29 368 -29 c 0,48,49
 305 -29 305 -29 257.5 9.5 c 128,-1,50
 210 48 210 48 178 110.5 c 128,-1,51
 146 173 146 173 129.5 253 c 128,-1,52
 113 333 113 333 113 417 c 0,0,1
EndSplineSet
EndChar

StartChar: bracketleft
Encoding: 91 91 99
Width: 510
Flags: W
HStem: 0 114<282 470.532> 1213 114<282 470.532>
VStem: 149 133<114.68 1212.32>
LayerCount: 2
Fore
SplineSet
282 114 m 1,0,1
 314 114 314 114 348 115.5 c 128,-1,2
 382 117 382 117 409 119 c 0,3,4
 441 121 441 121 470 124 c 1,5,-1
 484 0 l 1,6,-1
 54 0 l 1,7,-1
 54 5 l 1,8,9
 91 22 91 22 111 60.5 c 128,-1,10
 131 99 131 99 134 153 c 1,11,12
 145 273 145 273 147 388.5 c 128,-1,13
 149 504 149 504 149 616 c 0,14,15
 149 753 149 753 148 889 c 128,-1,16
 147 1025 147 1025 134 1174 c 1,17,18
 131 1228 131 1228 111 1266.5 c 128,-1,19
 91 1305 91 1305 54 1322 c 1,20,-1
 54 1327 l 1,21,-1
 484 1327 l 1,22,-1
 470 1203 l 1,23,24
 441 1206 441 1206 409 1208 c 0,25,26
 382 1210 382 1210 348 1211 c 128,-1,27
 314 1212 314 1212 282 1213 c 1,28,-1
 282 114 l 1,0,1
EndSplineSet
EndChar

StartChar: bracketright
Encoding: 93 93 100
Width: 509
Flags: W
HStem: -1 124<38.3814 228> 1203 124<38.3814 228>
VStem: 228 133<113.68 1212.32>
LayerCount: 2
Fore
SplineSet
228 1213 m 1,0,1
 195 1212 195 1212 161.5 1211 c 128,-1,2
 128 1210 128 1210 101 1208 c 0,3,4
 69 1206 69 1206 40 1203 c 1,5,-1
 26 1327 l 1,6,-1
 456 1327 l 1,7,-1
 456 1322 l 1,8,9
 419 1305 419 1305 399 1266.5 c 128,-1,10
 379 1228 379 1228 376 1174 c 1,11,12
 362 1025 362 1025 361.5 889 c 128,-1,13
 361 753 361 753 361 616 c 0,14,15
 361 504 361 504 363 388 c 128,-1,16
 365 272 365 272 376 152 c 1,17,18
 379 98 379 98 399 59.5 c 128,-1,19
 419 21 419 21 456 4 c 1,20,-1
 456 -1 l 1,21,-1
 26 -1 l 1,22,-1
 40 123 l 1,23,24
 69 120 69 120 101 118 c 0,25,26
 128 116 128 116 161.5 114.5 c 128,-1,27
 195 113 195 113 228 113 c 1,28,-1
 228 1213 l 1,0,1
EndSplineSet
EndChar

StartChar: backslash
Encoding: 92 92 101
Width: 483
Flags: W
HStem: 0 21G<301.142 433> 1307 20G<49 180.858>
VStem: 49 384
LayerCount: 2
Fore
SplineSet
433 0 m 1,0,-1
 305 0 l 1,1,-1
 49 1327 l 1,2,-1
 177 1327 l 1,3,-1
 433 0 l 1,0,-1
EndSplineSet
EndChar

StartChar: grave
Encoding: 96 96 102
Width: 282
Flags: W
HStem: 1023 415<143.643 214.494>
VStem: 155 83<1039.55 1164.16>
LayerCount: 2
Fore
SplineSet
238 1043 m 1,0,-1
 155 1023 l 1,1,2
 138 1091 138 1091 113.5 1164.5 c 128,-1,3
 89 1238 89 1238 66 1299 c 0,4,5
 39 1370 39 1370 10 1438 c 1,6,-1
 213 1438 l 1,7,8
 217 1381 217 1381 221 1317 c 0,9,10
 225 1262 225 1262 229 1191 c 128,-1,11
 233 1120 233 1120 238 1043 c 1,0,-1
EndSplineSet
EndChar

StartChar: tilde
Encoding: 732 732 104
Width: 630
Flags: W
HStem: 1110 136<207.875 535.12> 1151 136<96.5342 423.234>
VStem: 43 545
LayerCount: 2
Fore
SplineSet
392 1110 m 0,0,1
 364 1110 364 1110 337 1116.5 c 128,-1,2
 310 1123 310 1123 283.5 1130.5 c 128,-1,3
 257 1138 257 1138 230 1144.5 c 128,-1,4
 203 1151 203 1151 175 1151 c 0,5,6
 139 1151 139 1151 114.5 1140.5 c 128,-1,7
 90 1130 90 1130 83 1107 c 1,8,-1
 43 1120 l 1,9,10
 45 1164 45 1164 61 1195.5 c 128,-1,11
 77 1227 77 1227 103 1247.5 c 128,-1,12
 129 1268 129 1268 164 1277.5 c 128,-1,13
 199 1287 199 1287 239 1287 c 0,14,15
 267 1287 267 1287 296.5 1280.5 c 128,-1,16
 326 1274 326 1274 354.5 1266.5 c 128,-1,17
 383 1259 383 1259 409 1252.5 c 128,-1,18
 435 1246 435 1246 456 1246 c 0,19,20
 493 1246 493 1246 516.5 1256 c 128,-1,21
 540 1266 540 1266 548 1289 c 1,22,-1
 588 1277 l 1,23,24
 586 1233 586 1233 570 1201 c 128,-1,25
 554 1169 554 1169 528 1149 c 128,-1,26
 502 1129 502 1129 467 1119.5 c 128,-1,27
 432 1110 432 1110 392 1110 c 0,0,1
EndSplineSet
EndChar

StartChar: cent
Encoding: 162 162 106
Width: 737
Flags: W
HStem: -27 104<297.75 363 431 519.804> 883 108<292.175 363>
VStem: 50 150<209.454 760.555> 363 68<-192 -22.2029 83 883 986.594 1152>
LayerCount: 2
Fore
SplineSet
363 -26 m 1,0,1
 295 -17 295 -17 238 20 c 128,-1,2
 181 57 181 57 139 121.5 c 128,-1,3
 97 186 97 186 73.5 276.5 c 128,-1,4
 50 367 50 367 50 481 c 0,5,6
 50 599 50 599 73.5 692 c 128,-1,7
 97 785 97 785 139 850 c 128,-1,8
 181 915 181 915 238.5 950.5 c 128,-1,9
 296 986 296 986 363 991 c 1,10,-1
 363 1152 l 1,11,-1
 431 1152 l 1,12,-1
 431 989 l 1,13,14
 491 981 491 981 534.5 956 c 128,-1,15
 578 931 578 931 609.5 891.5 c 128,-1,16
 641 852 641 852 662.5 800 c 128,-1,17
 684 748 684 748 701 687 c 1,18,-1
 506 585 l 1,19,-1
 504 589 l 1,20,21
 524 614 524 614 532.5 639 c 128,-1,22
 541 664 541 664 541 688 c 0,23,24
 541 716 541 716 536 747 c 128,-1,25
 531 778 531 778 519 805.5 c 128,-1,26
 507 833 507 833 485.5 854 c 128,-1,27
 464 875 464 875 431 883 c 1,28,-1
 431 77 l 1,29,30
 465 81 465 81 493.5 99.5 c 128,-1,31
 522 118 522 118 544.5 146.5 c 128,-1,32
 567 175 567 175 583 212.5 c 128,-1,33
 599 250 599 250 609 292 c 1,34,-1
 662 146 l 1,35,36
 576 -13 576 -13 431 -27 c 1,37,-1
 431 -192 l 1,38,-1
 363 -192 l 1,39,-1
 363 -26 l 1,0,1
200 481 m 0,40,41
 200 306 200 306 242.5 206 c 128,-1,42
 285 106 285 106 363 83 c 1,43,-1
 363 883 l 1,44,45
 291 866 291 866 245.5 767 c 128,-1,46
 200 668 200 668 200 481 c 0,40,41
EndSplineSet
EndChar

StartChar: OE
Encoding: 338 338 107
Width: 1142
Flags: W
HStem: 0 118<357.009 627.436> 688 77<787 989.261> 1209 117<363.156 628> 1253 67.5<800 990.05>
VStem: 69 156<325.208 983.867> 628 159<121.815 688 765 1206.09> 1023 4<586 594.589 850.821 861> 1045 5<1115 1124.54> 1052 4<199.914 212>
LayerCount: 2
Fore
SplineSet
1045 1115 m 1,0,1
 1046 1150 1046 1150 1034.5 1177 c 128,-1,2
 1023 1204 1023 1204 994 1218 c 0,3,4
 952 1238 952 1238 904.5 1244.5 c 128,-1,5
 857 1251 857 1251 800 1253 c 1,6,7
 794 1129 794 1129 791 1007.5 c 128,-1,8
 788 886 788 886 787 765 c 1,9,10
 820 765 820 765 850.5 765 c 128,-1,11
 881 765 881 765 908 768 c 0,12,13
 959 773 959 773 987.5 798.5 c 128,-1,14
 1016 824 1016 824 1024 861 c 1,15,-1
 1027 861 l 1,16,-1
 1027 586 l 1,17,-1
 1023 586 l 1,18,19
 1015 626 1015 626 987 652.5 c 128,-1,20
 959 679 959 679 906 684 c 0,21,22
 880 687 880 687 851 687 c 128,-1,23
 822 687 822 687 787 688 c 1,24,-1
 787 684 l 2,25,26
 787 535 787 535 790.5 388.5 c 128,-1,27
 794 242 794 242 799 96 c 1,28,29
 817 99 817 99 842.5 101.5 c 128,-1,30
 868 104 868 104 896.5 108 c 128,-1,31
 925 112 925 112 953 119 c 128,-1,32
 981 126 981 126 1003 137.5 c 128,-1,33
 1025 149 1025 149 1038.5 167 c 128,-1,34
 1052 185 1052 185 1052 212 c 1,35,-1
 1056 212 l 1,36,37
 1064 163 1064 163 1071 124.5 c 128,-1,38
 1078 86 1078 86 1083 58 c 0,39,40
 1088 25 1088 25 1093 0 c 1,41,-1
 472 0 l 2,42,43
 385 0 385 0 311.5 44 c 128,-1,44
 238 88 238 88 184 171.5 c 128,-1,45
 130 255 130 255 99.5 375.5 c 128,-1,46
 69 496 69 496 69 649 c 0,47,48
 69 811 69 811 100 937.5 c 128,-1,49
 131 1064 131 1064 185.5 1150 c 128,-1,50
 240 1236 240 1236 313.5 1281 c 128,-1,51
 387 1326 387 1326 472 1326 c 0,52,53
 513 1326 513 1326 568 1324 c 128,-1,54
 623 1322 623 1322 698.5 1321 c 128,-1,55
 774 1320 774 1320 872.5 1320.5 c 128,-1,56
 971 1321 971 1321 1099 1327 c 1,57,58
 1094 1307 1094 1307 1087 1277 c 0,59,60
 1081 1251 1081 1251 1072 1211 c 128,-1,61
 1063 1171 1063 1171 1050 1114 c 1,62,-1
 1045 1115 l 1,0,1
461 118 m 0,63,64
 502 118 502 118 533 119 c 128,-1,65
 564 120 564 120 585 122 c 0,66,67
 610 124 610 124 628 127 c 1,68,-1
 628 1203 l 1,69,70
 610 1204 610 1204 585 1206 c 0,71,72
 564 1207 564 1207 533 1208 c 128,-1,73
 502 1209 502 1209 461 1209 c 0,74,75
 403 1209 403 1209 359 1160 c 128,-1,76
 315 1111 315 1111 285 1031 c 128,-1,77
 255 951 255 951 240 848.5 c 128,-1,78
 225 746 225 746 225 638 c 0,79,80
 225 538 225 538 239.5 444.5 c 128,-1,81
 254 351 254 351 283.5 278.5 c 128,-1,82
 313 206 313 206 357 162 c 128,-1,83
 401 118 401 118 461 118 c 0,63,64
EndSplineSet
EndChar

StartChar: quoteright
Encoding: 8217 8217 108
Width: 293
Flags: W
HStem: 912 415<80.5 157.957>
VStem: 58 216
LayerCount: 2
Fore
SplineSet
58 912 m 1,0,1
 70 991 70 991 75 1054 c 128,-1,2
 80 1117 80 1117 80.5 1167 c 128,-1,3
 81 1217 81 1217 78 1256 c 128,-1,4
 75 1295 75 1295 71 1327 c 1,5,-1
 274 1327 l 1,6,7
 257 1267 257 1267 237 1199 c 0,8,9
 220 1141 220 1141 195.5 1066.5 c 128,-1,10
 171 992 171 992 142 912 c 1,11,-1
 58 912 l 1,0,1
EndSplineSet
EndChar

StartChar: quotedblright
Encoding: 8221 8221 109
Width: 554
Flags: W
HStem: 912 415<79.5 156.957 341.5 418.957>
VStem: 57 478
LayerCount: 2
Fore
SplineSet
57 912 m 1,0,1
 69 991 69 991 74 1054 c 128,-1,2
 79 1117 79 1117 79.5 1167 c 128,-1,3
 80 1217 80 1217 77 1256 c 128,-1,4
 74 1295 74 1295 70 1327 c 1,5,-1
 273 1327 l 1,6,7
 256 1267 256 1267 236 1199 c 0,8,9
 219 1141 219 1141 194.5 1066.5 c 128,-1,10
 170 992 170 992 141 912 c 1,11,-1
 57 912 l 1,0,1
319 912 m 1,12,13
 331 991 331 991 336 1054 c 128,-1,14
 341 1117 341 1117 341.5 1167 c 128,-1,15
 342 1217 342 1217 339 1256 c 128,-1,16
 336 1295 336 1295 332 1327 c 1,17,-1
 535 1327 l 1,18,19
 518 1267 518 1267 498 1199 c 0,20,21
 481 1141 481 1141 456.5 1066.5 c 128,-1,22
 432 992 432 992 403 912 c 1,23,-1
 319 912 l 1,12,13
EndSplineSet
EndChar

StartChar: quotedblleft
Encoding: 8220 8220 110
Width: 566
Flags: W
HStem: 912 415<147.043 224.5 409.043 486.5>
VStem: 31 478
LayerCount: 2
Fore
SplineSet
509 1327 m 1,0,1
 497 1247 497 1247 492 1184.5 c 128,-1,2
 487 1122 487 1122 486.5 1072 c 128,-1,3
 486 1022 486 1022 489 983 c 128,-1,4
 492 944 492 944 496 912 c 1,5,-1
 293 912 l 1,6,7
 310 972 310 972 330 1040 c 0,8,9
 347 1098 347 1098 371.5 1172 c 128,-1,10
 396 1246 396 1246 425 1327 c 1,11,-1
 509 1327 l 1,0,1
247 1327 m 1,12,13
 235 1247 235 1247 230 1184.5 c 128,-1,14
 225 1122 225 1122 224.5 1072 c 128,-1,15
 224 1022 224 1022 227 983 c 128,-1,16
 230 944 230 944 234 912 c 1,17,-1
 31 912 l 1,18,19
 48 972 48 972 68 1040 c 0,20,21
 85 1098 85 1098 109.5 1172 c 128,-1,22
 134 1246 134 1246 163 1327 c 1,23,-1
 247 1327 l 1,12,13
EndSplineSet
EndChar

StartChar: quoteleft
Encoding: 8216 8216 111
Width: 304
Flags: W
HStem: 912 415<148.043 225.5>
VStem: 32 216
LayerCount: 2
Fore
SplineSet
248 1327 m 1,0,1
 236 1247 236 1247 231 1184.5 c 128,-1,2
 226 1122 226 1122 225.5 1072 c 128,-1,3
 225 1022 225 1022 228 983 c 128,-1,4
 231 944 231 944 235 912 c 1,5,-1
 32 912 l 1,6,7
 49 972 49 972 69 1040 c 0,8,9
 86 1098 86 1098 110.5 1172 c 128,-1,10
 135 1246 135 1246 164 1327 c 1,11,-1
 248 1327 l 1,0,1
EndSplineSet
EndChar

StartChar: quotesinglbase
Encoding: 8218 8218 112
Width: 305
Flags: W
HStem: -287 415<64.5 141.957>
VStem: 42 216
LayerCount: 2
Fore
SplineSet
42 -287 m 1,0,1
 54 -208 54 -208 59 -145 c 128,-1,2
 64 -82 64 -82 64.5 -32 c 128,-1,3
 65 18 65 18 62 57 c 128,-1,4
 59 96 59 96 55 128 c 1,5,-1
 258 128 l 1,6,7
 241 68 241 68 221 0 c 0,8,9
 204 -58 204 -58 179.5 -132.5 c 128,-1,10
 155 -207 155 -207 126 -287 c 1,11,-1
 42 -287 l 1,0,1
EndSplineSet
EndChar

StartChar: bullet
Encoding: 8226 8226 113
Width: 617
Flags: W
HStem: 256 512<154.938 462.008>
VStem: 52 512<357.621 667.496>
LayerCount: 2
Fore
SplineSet
52 513 m 256,0,1
 52 575 52 575 72 622.5 c 128,-1,2
 92 670 92 670 127 702.5 c 128,-1,3
 162 735 162 735 209 751.5 c 128,-1,4
 256 768 256 768 311 768 c 0,5,6
 363 768 363 768 409 751.5 c 128,-1,7
 455 735 455 735 489.5 702.5 c 128,-1,8
 524 670 524 670 544 622.5 c 128,-1,9
 564 575 564 575 564 513 c 256,10,11
 564 451 564 451 544 403 c 128,-1,12
 524 355 524 355 489.5 322.5 c 128,-1,13
 455 290 455 290 409 273 c 128,-1,14
 363 256 363 256 311 256 c 0,15,16
 256 256 256 256 209 273 c 128,-1,17
 162 290 162 290 127 322.5 c 128,-1,18
 92 355 92 355 72 403 c 128,-1,19
 52 451 52 451 52 513 c 256,0,1
EndSplineSet
EndChar

StartChar: ring
Encoding: 730 730 114
Width: 530
Flags: W
HStem: 1088 75<170.057 361.248> 1446 73<170.113 358.524>
VStem: 39 88<1199.51 1410.2> 402 89<1197.05 1410.28>
LayerCount: 2
Fore
SplineSet
265 1519 m 256,0,1
 308 1519 308 1519 348.5 1505 c 128,-1,2
 389 1491 389 1491 420.5 1464 c 128,-1,3
 452 1437 452 1437 471.5 1396.5 c 128,-1,4
 491 1356 491 1356 491 1304 c 0,5,6
 491 1251 491 1251 471.5 1210.5 c 128,-1,7
 452 1170 452 1170 420 1143 c 128,-1,8
 388 1116 388 1116 347.5 1102 c 128,-1,9
 307 1088 307 1088 265 1088 c 256,10,11
 223 1088 223 1088 182.5 1102 c 128,-1,12
 142 1116 142 1116 110 1143 c 128,-1,13
 78 1170 78 1170 58.5 1210.5 c 128,-1,14
 39 1251 39 1251 39 1304 c 0,15,16
 39 1356 39 1356 58.5 1396.5 c 128,-1,17
 78 1437 78 1437 109.5 1464 c 128,-1,18
 141 1491 141 1491 181.5 1505 c 128,-1,19
 222 1519 222 1519 265 1519 c 256,0,1
265 1163 m 1,20,21
 300 1164 300 1164 325.5 1176 c 128,-1,22
 351 1188 351 1188 368 1207.5 c 128,-1,23
 385 1227 385 1227 393.5 1251.5 c 128,-1,24
 402 1276 402 1276 402 1302 c 0,25,26
 402 1329 402 1329 393 1355 c 128,-1,27
 384 1381 384 1381 367 1401 c 128,-1,28
 350 1421 350 1421 324.5 1433.5 c 128,-1,29
 299 1446 299 1446 265 1446 c 256,30,31
 231 1446 231 1446 205.5 1434 c 128,-1,32
 180 1422 180 1422 162.5 1402 c 128,-1,33
 145 1382 145 1382 136 1356.5 c 128,-1,34
 127 1331 127 1331 127 1304 c 0,35,36
 127 1278 127 1278 135.5 1253.5 c 128,-1,37
 144 1229 144 1229 161 1209.5 c 128,-1,38
 178 1190 178 1190 204 1177.5 c 128,-1,39
 230 1165 230 1165 265 1163 c 1,20,21
EndSplineSet
EndChar

StartChar: exclamdown
Encoding: 161 161 117
Width: 383
Flags: W
HStem: 0 21G<72 313> 973 20G<153 227> 1145 181<130.815 257.669>
VStem: 72 241<0 247.352> 104 181<1171.82 1298.67> 143.5 94.5<185.355 991.777> 154 71<581.875 993>
LayerCount: 2
Fore
SplineSet
72 5 m 1,0,1
 82 28 82 28 90.5 74 c 128,-1,2
 99 120 99 120 105.5 181.5 c 128,-1,3
 112 243 112 243 118 316.5 c 128,-1,4
 124 390 124 390 128.5 467 c 128,-1,5
 133 544 133 544 136.5 621 c 128,-1,6
 140 698 140 698 143.5 768 c 128,-1,7
 147 838 147 838 149.5 896 c 128,-1,8
 152 954 152 954 154 993 c 1,9,-1
 225 993 l 1,10,11
 229 957 229 957 232 900.5 c 128,-1,12
 235 844 235 844 238 775.5 c 128,-1,13
 241 707 241 707 244.5 630 c 128,-1,14
 248 553 248 553 252 476 c 128,-1,15
 256 399 256 399 261.5 325 c 128,-1,16
 267 251 267 251 274.5 188 c 128,-1,17
 282 125 282 125 291.5 77.5 c 128,-1,18
 301 30 301 30 313 5 c 1,19,-1
 313 0 l 1,20,-1
 72 0 l 1,21,-1
 72 5 l 1,0,1
104 1235 m 256,22,23
 104 1273 104 1273 130 1299.5 c 128,-1,24
 156 1326 156 1326 194 1326 c 256,25,26
 232 1326 232 1326 258.5 1299.5 c 128,-1,27
 285 1273 285 1273 285 1235 c 256,28,29
 285 1197 285 1197 258.5 1171 c 128,-1,30
 232 1145 232 1145 194 1145 c 256,31,32
 156 1145 156 1145 130 1171 c 128,-1,33
 104 1197 104 1197 104 1235 c 256,22,23
EndSplineSet
EndChar

StartChar: brokenbar
Encoding: 166 166 118
Width: 370
Flags: W
VStem: 121 128<-128 512 768 1408>
LayerCount: 2
Fore
SplineSet
121 1408 m 1,0,-1
 249 1408 l 1,1,-1
 249 768 l 1,2,-1
 121 768 l 1,3,-1
 121 1408 l 1,0,-1
121 512 m 1,4,-1
 249 512 l 1,5,-1
 249 -128 l 1,6,-1
 121 -128 l 1,7,-1
 121 512 l 1,4,-1
EndSplineSet
EndChar

StartChar: fi
Encoding: 64257 64257 119
Width: 1010
Flags: W
HStem: 0 5<28 34.2637 382.729 389 624 630.262 978.73 985> 901 77<44.2202 139 281 730.117> 918 60<44 138.127> 1145 181<726.815 853.669> 1279 109<317.952 419.329>
VStem: 140 138<51.8276 901 978 1263.09> 700 181<1171.82 1298.67> 723 150.5<47.5698 515.815> 738.5 134.5<56.2378 893.622>
LayerCount: 2
Fore
SplineSet
739 517 m 0,0,1
 739 610 739 610 738.5 676 c 128,-1,2
 738 742 738 742 736 786 c 128,-1,3
 734 830 734 830 731 856 c 128,-1,4
 728 882 728 882 723 894 c 1,5,6
 673 899 673 899 606.5 900 c 128,-1,7
 540 901 540 901 441 901 c 2,8,-1
 280 901 l 1,9,10
 279 810 279 810 278.5 694.5 c 128,-1,11
 278 579 278 579 278 427 c 0,12,13
 278 393 278 393 278 363.5 c 128,-1,14
 278 334 278 334 279 302.5 c 128,-1,15
 280 271 280 271 281.5 234 c 128,-1,16
 283 197 283 197 286 149 c 0,17,18
 289 95 289 95 313.5 58.5 c 128,-1,19
 338 22 338 22 389 5 c 1,20,-1
 389 0 l 1,21,-1
 28 0 l 1,22,-1
 28 5 l 1,23,24
 79 22 79 22 101.5 61 c 128,-1,25
 124 100 124 100 127 153 c 0,26,27
 132 237 132 237 135 302.5 c 128,-1,28
 138 368 138 368 140 420.5 c 128,-1,29
 142 473 142 473 142.5 515.5 c 128,-1,30
 143 558 143 558 143 597 c 0,31,32
 143 640 143 640 142.5 677.5 c 128,-1,33
 142 715 142 715 141.5 752 c 128,-1,34
 141 789 141 789 140 826.5 c 128,-1,35
 139 864 139 864 139 907 c 1,36,37
 111 909 111 909 93 910.5 c 128,-1,38
 75 912 75 912 64 914 c 0,39,40
 51 916 51 916 44 918 c 1,41,-1
 44 978 l 1,42,-1
 139 978 l 1,43,44
 139 1191 139 1191 193.5 1289.5 c 128,-1,45
 248 1388 248 1388 346 1388 c 0,46,47
 394 1388 394 1388 449.5 1368.5 c 128,-1,48
 505 1349 505 1349 570 1304 c 1,49,-1
 443 1089 l 1,50,-1
 440 1091 l 1,51,52
 446 1107 446 1107 446 1134 c 0,53,54
 446 1166 446 1166 438 1192.5 c 128,-1,55
 430 1219 430 1219 417 1238.5 c 128,-1,56
 404 1258 404 1258 388 1268.5 c 128,-1,57
 372 1279 372 1279 356 1279 c 0,58,59
 341 1279 341 1279 327.5 1269 c 128,-1,60
 314 1259 314 1259 303.5 1227.5 c 128,-1,61
 293 1196 293 1196 287 1136.5 c 128,-1,62
 281 1077 281 1077 281 978 c 1,63,-1
 442 978 l 2,64,65
 560 978 560 978 643.5 980 c 128,-1,66
 727 982 727 982 781 985 c 0,67,68
 843 988 843 988 885 992 c 1,69,70
 874 883 874 883 873.5 752 c 128,-1,71
 873 621 873 621 873 480 c 0,72,73
 873 424 873 424 873 386 c 128,-1,74
 873 348 873 348 873.5 314 c 128,-1,75
 874 280 874 280 876 242.5 c 128,-1,76
 878 205 878 205 882 149 c 0,77,78
 886 95 886 95 910 58.5 c 128,-1,79
 934 22 934 22 985 5 c 1,80,-1
 985 0 l 1,81,-1
 624 0 l 1,82,-1
 624 5 l 1,83,84
 675 22 675 22 697 61 c 128,-1,85
 719 100 719 100 723 153 c 1,86,87
 725 199 725 199 727.5 233.5 c 128,-1,88
 730 268 730 268 731.5 296 c 128,-1,89
 733 324 733 324 734.5 348 c 128,-1,90
 736 372 736 372 737 397 c 128,-1,91
 738 422 738 422 738.5 450.5 c 128,-1,92
 739 479 739 479 739 517 c 0,0,1
700 1235 m 256,93,94
 700 1273 700 1273 726 1299.5 c 128,-1,95
 752 1326 752 1326 790 1326 c 256,96,97
 828 1326 828 1326 854.5 1299.5 c 128,-1,98
 881 1273 881 1273 881 1235 c 256,99,100
 881 1197 881 1197 854.5 1171 c 128,-1,101
 828 1145 828 1145 790 1145 c 256,102,103
 752 1145 752 1145 726 1171 c 128,-1,104
 700 1197 700 1197 700 1235 c 256,93,94
EndSplineSet
EndChar

StartChar: circumflex
Encoding: 710 710 121
Width: 486
Flags: W
HStem: 1088 314
VStem: 27 432
LayerCount: 2
Fore
SplineSet
309 1402 m 1,0,-1
 459 1088 l 1,1,-1
 309 1088 l 1,2,-1
 243 1336 l 1,3,-1
 177 1088 l 1,4,-1
 27 1088 l 1,5,-1
 177 1402 l 1,6,-1
 309 1402 l 1,0,-1
EndSplineSet
EndChar

StartChar: paragraph
Encoding: 182 182 123
Width: 988
Flags: W
HStem: 0 5<307 313.27 925.738 932> 1199 128<568.192 674> 1322 5<924.944 932>
VStem: 38 515<780.406 1139.4> 414 143<42.875 627> 674 145<53.8809 1199.82>
LayerCount: 2
Fore
SplineSet
413 1327 m 2,0,-1
 932 1327 l 1,1,-1
 932 1322 l 1,2,3
 886 1308 886 1308 861.5 1274.5 c 128,-1,4
 837 1241 837 1241 832 1194 c 0,5,6
 821 1068 821 1068 819 953 c 128,-1,7
 817 838 817 838 817 721 c 0,8,9
 817 656 817 656 818 589 c 128,-1,10
 819 522 819 522 821 452 c 128,-1,11
 823 382 823 382 826 308 c 128,-1,12
 829 234 829 234 833 153 c 1,13,14
 837 100 837 100 859 61 c 128,-1,15
 881 22 881 22 932 5 c 1,16,-1
 932 0 l 1,17,-1
 641 0 l 1,18,-1
 641 5 l 1,19,20
 657 22 657 22 664.5 58.5 c 128,-1,21
 672 95 672 95 674 149 c 1,22,23
 675 219 675 219 676 296.5 c 128,-1,24
 677 374 677 374 678 452.5 c 128,-1,25
 679 531 679 531 679.5 608.5 c 128,-1,26
 680 686 680 686 681 757 c 1,27,-1
 674 1201 l 1,28,29
 626 1199 626 1199 600 1199 c 128,-1,30
 574 1199 574 1199 568 1194 c 1,31,32
 556 1068 556 1068 554.5 953 c 128,-1,33
 553 838 553 838 553 721 c 0,34,35
 553 656 553 656 554 589 c 128,-1,36
 555 522 555 522 557 452 c 128,-1,37
 559 382 559 382 562 308 c 128,-1,38
 565 234 565 234 569 153 c 1,39,40
 570 100 570 100 574.5 61 c 128,-1,41
 579 22 579 22 588 5 c 1,42,-1
 588 0 l 1,43,-1
 307 0 l 1,44,-1
 307 5 l 1,45,46
 358 22 358 22 382 58.5 c 128,-1,47
 406 95 406 95 410 149 c 1,48,49
 411 204 411 204 412 265 c 128,-1,50
 413 326 413 326 414 387.5 c 128,-1,51
 415 449 415 449 415.5 510 c 128,-1,52
 416 571 416 571 417 627 c 1,53,54
 341 623 341 623 283.5 637 c 128,-1,55
 226 651 226 651 184 676.5 c 128,-1,56
 142 702 142 702 113.5 736.5 c 128,-1,57
 85 771 85 771 68.5 807.5 c 128,-1,58
 52 844 52 844 45 880.5 c 128,-1,59
 38 917 38 917 38 947 c 0,60,61
 38 1039 38 1039 68 1110 c 128,-1,62
 98 1181 98 1181 149.5 1229 c 128,-1,63
 201 1277 201 1277 269 1302 c 128,-1,64
 337 1327 337 1327 413 1327 c 2,0,-1
EndSplineSet
EndChar

StartChar: mu
Encoding: 181 181 124
Width: 869
Flags: W
HStem: -319 5<38 44.2695 392.729 399> -29 107<340.171 506.239> 51 5<866.565 875> 966 20G<279.5 329 715.5 765>
VStem: 156 142<-199.831 -8 118.062 829.633> 589 143<179.016 829.711>
LayerCount: 2
Fore
SplineSet
153 411 m 0,0,1
 156 513 156 513 156 587 c 0,2,3
 156 668 156 668 150 721 c 128,-1,4
 144 774 144 774 128.5 805 c 128,-1,5
 113 836 113 836 85 848.5 c 128,-1,6
 57 861 57 861 12 861 c 1,7,-1
 12 866 l 1,8,-1
 333 986 l 1,9,10
 325 973 325 973 319.5 958 c 128,-1,11
 314 943 314 943 310 921 c 128,-1,12
 306 899 306 899 303.5 869 c 128,-1,13
 301 839 301 839 300 795 c 128,-1,14
 299 751 299 751 298.5 692 c 128,-1,15
 298 633 298 633 298 554 c 0,16,17
 298 447 298 447 300.5 359.5 c 128,-1,18
 303 272 303 272 313.5 209.5 c 128,-1,19
 324 147 324 147 346 112.5 c 128,-1,20
 368 78 368 78 407 78 c 0,21,22
 443 78 443 78 476 98 c 128,-1,23
 509 118 509 118 534 159.5 c 128,-1,24
 559 201 559 201 574 263.5 c 128,-1,25
 589 326 589 326 589 411 c 0,26,27
 589 547 589 547 587.5 634.5 c 128,-1,28
 586 722 586 722 573 772 c 128,-1,29
 560 822 560 822 531.5 841.5 c 128,-1,30
 503 861 503 861 448 861 c 1,31,-1
 448 866 l 1,32,-1
 769 986 l 1,33,34
 761 971 761 971 755 954 c 128,-1,35
 749 937 749 937 745 911.5 c 128,-1,36
 741 886 741 886 738.5 850 c 128,-1,37
 736 814 736 814 734.5 761.5 c 128,-1,38
 733 709 733 709 732.5 638 c 128,-1,39
 732 567 732 567 732 472 c 0,40,41
 732 345 732 345 734 264.5 c 128,-1,42
 736 184 736 184 749 137.5 c 128,-1,43
 762 91 762 91 791 73.5 c 128,-1,44
 820 56 820 56 875 56 c 1,45,-1
 875 51 l 1,46,-1
 604 -29 l 1,47,48
 612 -2 612 -2 613 33.5 c 128,-1,49
 614 69 614 69 614 107 c 1,50,51
 587 65 587 65 555.5 38.5 c 128,-1,52
 524 12 524 12 491 -3 c 128,-1,53
 458 -18 458 -18 425.5 -23.5 c 128,-1,54
 393 -29 393 -29 366 -29 c 0,55,56
 344 -29 344 -29 325 -23.5 c 128,-1,57
 306 -18 306 -18 288 -8 c 1,58,59
 290 -41 290 -41 291.5 -80 c 128,-1,60
 293 -119 293 -119 296 -170 c 0,61,62
 299 -224 299 -224 323.5 -260.5 c 128,-1,63
 348 -297 348 -297 399 -314 c 1,64,-1
 399 -319 l 1,65,-1
 38 -319 l 1,66,-1
 38 -314 l 1,67,68
 55 -308 55 -308 69 -297 c 128,-1,69
 83 -286 83 -286 94 -259.5 c 128,-1,70
 105 -233 105 -233 114 -185.5 c 128,-1,71
 123 -138 123 -138 130 -59.5 c 128,-1,72
 137 19 137 19 142.5 134 c 128,-1,73
 148 249 148 249 153 411 c 0,0,1
EndSplineSet
EndChar

StartChar: numbersign
Encoding: 35 35 125
Width: 847
Flags: W
HStem: 0 21G<50 181.848 394 525.836> 395 105<47 126 274 470 619 711.28> 904 105<142 224 372 568 717 805.778> 1307 20G<302.139 434 646.164 778>
LayerCount: 2
Fore
SplineSet
470 394 m 1,0,1
 455 394 455 394 437 394 c 128,-1,2
 419 394 419 394 394 394.5 c 128,-1,3
 369 395 369 395 335.5 395 c 128,-1,4
 302 395 302 395 254 395 c 1,5,-1
 178 0 l 1,6,-1
 50 0 l 1,7,-1
 126 395 l 1,8,-1
 47 395 l 1,9,-1
 47 508 l 1,10,11
 84 505 84 505 147 502 c 1,12,-1
 224 904 l 1,13,-1
 142 904 l 1,14,-1
 142 1017 l 1,15,16
 161 1015 161 1015 186 1014 c 128,-1,17
 211 1013 211 1013 245 1011 c 1,18,-1
 306 1327 l 1,19,-1
 434 1327 l 1,20,-1
 372 1009 l 1,21,22
 416 1009 416 1009 449 1009 c 128,-1,23
 482 1009 482 1009 507 1009 c 128,-1,24
 532 1009 532 1009 551.5 1009 c 128,-1,25
 571 1009 571 1009 589 1009 c 1,26,-1
 650 1327 l 1,27,-1
 778 1327 l 1,28,-1
 717 1012 l 1,29,30
 768 1013 768 1013 807 1018 c 1,31,-1
 807 895 l 1,32,33
 785 897 785 897 757.5 898 c 128,-1,34
 730 899 730 899 695 900 c 1,35,-1
 619 502 l 1,36,37
 646 504 646 504 669 505.5 c 128,-1,38
 692 507 692 507 712 509 c 1,39,-1
 712 386 l 1,40,41
 689 388 689 388 661 389 c 128,-1,42
 633 390 633 390 597 391 c 1,43,-1
 522 0 l 1,44,-1
 394 0 l 1,45,-1
 470 394 l 1,0,1
274 500 m 1,46,47
 319 500 319 500 351.5 500 c 128,-1,48
 384 500 384 500 409 500 c 128,-1,49
 434 500 434 500 453.5 500 c 128,-1,50
 473 500 473 500 490 500 c 1,51,-1
 568 903 l 1,52,53
 552 903 552 903 534 903 c 128,-1,54
 516 903 516 903 491.5 903.5 c 128,-1,55
 467 904 467 904 433 904 c 128,-1,56
 399 904 399 904 352 904 c 1,57,-1
 274 500 l 1,46,47
EndSplineSet
EndChar

StartChar: percent
Encoding: 37 37 126
Width: 1370
Flags: W
HStem: -28 87<956.59 1122.5> 552 87<249.59 415.497> 681 87<956.59 1122.5> 1261 87<249.59 415.497>
VStem: 40 151<722.461 1179.64> 470 151<722.461 1179.64> 747 151<142.461 599.642> 1177 151<142.461 599.642>
LayerCount: 2
Fore
SplineSet
191 951 m 0,0,1
 191 797 191 797 228 718 c 128,-1,2
 265 639 265 639 334 639 c 0,3,4
 402 639 402 639 436 718 c 128,-1,5
 470 797 470 797 470 951 c 0,6,7
 470 1104 470 1104 436 1182.5 c 128,-1,8
 402 1261 402 1261 334 1261 c 0,9,10
 265 1261 265 1261 228 1182.5 c 128,-1,11
 191 1104 191 1104 191 951 c 0,0,1
40 951 m 256,12,13
 40 1047 40 1047 62.5 1121 c 128,-1,14
 85 1195 85 1195 125 1245.5 c 128,-1,15
 165 1296 165 1296 218.5 1322 c 128,-1,16
 272 1348 272 1348 334 1348 c 0,17,18
 393 1348 393 1348 445.5 1322 c 128,-1,19
 498 1296 498 1296 537 1245.5 c 128,-1,20
 576 1195 576 1195 598.5 1121 c 128,-1,21
 621 1047 621 1047 621 951 c 256,22,23
 621 855 621 855 598.5 780.5 c 128,-1,24
 576 706 576 706 537 655.5 c 128,-1,25
 498 605 498 605 445.5 578.5 c 128,-1,26
 393 552 393 552 334 552 c 0,27,28
 272 552 272 552 218.5 578.5 c 128,-1,29
 165 605 165 605 125 655.5 c 128,-1,30
 85 706 85 706 62.5 780.5 c 128,-1,31
 40 855 40 855 40 951 c 256,12,13
1038 1151 m 1,32,-1
 1169 1152 l 1,33,-1
 385 224 l 1,34,-1
 254 223 l 1,35,-1
 1038 1151 l 1,32,-1
898 371 m 0,36,37
 898 217 898 217 935 138 c 128,-1,38
 972 59 972 59 1041 59 c 0,39,40
 1109 59 1109 59 1143 138 c 128,-1,41
 1177 217 1177 217 1177 371 c 0,42,43
 1177 524 1177 524 1143 602.5 c 128,-1,44
 1109 681 1109 681 1041 681 c 0,45,46
 972 681 972 681 935 602.5 c 128,-1,47
 898 524 898 524 898 371 c 0,36,37
747 371 m 256,48,49
 747 467 747 467 769.5 541 c 128,-1,50
 792 615 792 615 832 665.5 c 128,-1,51
 872 716 872 716 925.5 742 c 128,-1,52
 979 768 979 768 1041 768 c 0,53,54
 1100 768 1100 768 1152.5 742 c 128,-1,55
 1205 716 1205 716 1244 665.5 c 128,-1,56
 1283 615 1283 615 1305.5 541 c 128,-1,57
 1328 467 1328 467 1328 371 c 256,58,59
 1328 275 1328 275 1305.5 200.5 c 128,-1,60
 1283 126 1283 126 1244 75.5 c 128,-1,61
 1205 25 1205 25 1152.5 -1.5 c 128,-1,62
 1100 -28 1100 -28 1041 -28 c 0,63,64
 979 -28 979 -28 925.5 -1.5 c 128,-1,65
 872 25 872 25 832 75.5 c 128,-1,66
 792 126 792 126 769.5 200.5 c 128,-1,67
 747 275 747 275 747 371 c 256,48,49
EndSplineSet
EndChar

StartChar: ordmasculine
Encoding: 186 186 127
Width: 683
Flags: W
HStem: 552 87<260.59 426.497> 1261 87<260.59 426.497>
VStem: 51 151<722.461 1179.64> 481 151<722.461 1179.64>
LayerCount: 2
Fore
SplineSet
202 951 m 0,0,1
 202 797 202 797 239 718 c 128,-1,2
 276 639 276 639 345 639 c 0,3,4
 413 639 413 639 447 718 c 128,-1,5
 481 797 481 797 481 951 c 0,6,7
 481 1104 481 1104 447 1182.5 c 128,-1,8
 413 1261 413 1261 345 1261 c 0,9,10
 276 1261 276 1261 239 1182.5 c 128,-1,11
 202 1104 202 1104 202 951 c 0,0,1
51 951 m 256,12,13
 51 1047 51 1047 73.5 1121 c 128,-1,14
 96 1195 96 1195 136 1245.5 c 128,-1,15
 176 1296 176 1296 229.5 1322 c 128,-1,16
 283 1348 283 1348 345 1348 c 0,17,18
 404 1348 404 1348 456.5 1322 c 128,-1,19
 509 1296 509 1296 548 1245.5 c 128,-1,20
 587 1195 587 1195 609.5 1121 c 128,-1,21
 632 1047 632 1047 632 951 c 256,22,23
 632 855 632 855 609.5 780.5 c 128,-1,24
 587 706 587 706 548 655.5 c 128,-1,25
 509 605 509 605 456.5 578.5 c 128,-1,26
 404 552 404 552 345 552 c 0,27,28
 283 552 283 552 229.5 578.5 c 128,-1,29
 176 605 176 605 136 655.5 c 128,-1,30
 96 706 96 706 73.5 780.5 c 128,-1,31
 51 855 51 855 51 951 c 256,12,13
EndSplineSet
EndChar

StartChar: perthousand
Encoding: 8240 8240 128
Width: 2048
Flags: W
HStem: -28 87<970.59 1136.5 1637.59 1803.5> 552 87<250.59 416.497> 681 87<970.59 1136.5 1637.59 1803.5> 1261 87<250.59 416.497>
VStem: 41 151<722.461 1179.64> 471 151<722.461 1179.64> 761 151<142.461 599.642> 1191 151<142.461 599.642> 1428 151<142.461 599.642> 1858 151<142.461 599.642>
LayerCount: 2
Fore
SplineSet
192 951 m 0,0,1
 192 797 192 797 229 718 c 128,-1,2
 266 639 266 639 335 639 c 0,3,4
 403 639 403 639 437 718 c 128,-1,5
 471 797 471 797 471 951 c 0,6,7
 471 1104 471 1104 437 1182.5 c 128,-1,8
 403 1261 403 1261 335 1261 c 0,9,10
 266 1261 266 1261 229 1182.5 c 128,-1,11
 192 1104 192 1104 192 951 c 0,0,1
41 951 m 256,12,13
 41 1047 41 1047 63.5 1121 c 128,-1,14
 86 1195 86 1195 126 1245.5 c 128,-1,15
 166 1296 166 1296 219.5 1322 c 128,-1,16
 273 1348 273 1348 335 1348 c 0,17,18
 394 1348 394 1348 446.5 1322 c 128,-1,19
 499 1296 499 1296 538 1245.5 c 128,-1,20
 577 1195 577 1195 599.5 1121 c 128,-1,21
 622 1047 622 1047 622 951 c 256,22,23
 622 855 622 855 599.5 780.5 c 128,-1,24
 577 706 577 706 538 655.5 c 128,-1,25
 499 605 499 605 446.5 578.5 c 128,-1,26
 394 552 394 552 335 552 c 0,27,28
 273 552 273 552 219.5 578.5 c 128,-1,29
 166 605 166 605 126 655.5 c 128,-1,30
 86 706 86 706 63.5 780.5 c 128,-1,31
 41 855 41 855 41 951 c 256,12,13
1039 1151 m 1,32,-1
 1170 1152 l 1,33,-1
 386 224 l 1,34,-1
 255 223 l 1,35,-1
 1039 1151 l 1,32,-1
912 371 m 0,36,37
 912 217 912 217 949 138 c 128,-1,38
 986 59 986 59 1055 59 c 0,39,40
 1123 59 1123 59 1157 138 c 128,-1,41
 1191 217 1191 217 1191 371 c 0,42,43
 1191 524 1191 524 1157 602.5 c 128,-1,44
 1123 681 1123 681 1055 681 c 0,45,46
 986 681 986 681 949 602.5 c 128,-1,47
 912 524 912 524 912 371 c 0,36,37
761 371 m 256,48,49
 761 467 761 467 783.5 541 c 128,-1,50
 806 615 806 615 846 665.5 c 128,-1,51
 886 716 886 716 939.5 742 c 128,-1,52
 993 768 993 768 1055 768 c 0,53,54
 1114 768 1114 768 1166.5 742 c 128,-1,55
 1219 716 1219 716 1258 665.5 c 128,-1,56
 1297 615 1297 615 1319.5 541 c 128,-1,57
 1342 467 1342 467 1342 371 c 256,58,59
 1342 275 1342 275 1319.5 200.5 c 128,-1,60
 1297 126 1297 126 1258 75.5 c 128,-1,61
 1219 25 1219 25 1166.5 -1.5 c 128,-1,62
 1114 -28 1114 -28 1055 -28 c 0,63,64
 993 -28 993 -28 939.5 -1.5 c 128,-1,65
 886 25 886 25 846 75.5 c 128,-1,66
 806 126 806 126 783.5 200.5 c 128,-1,67
 761 275 761 275 761 371 c 256,48,49
1579 371 m 0,68,69
 1579 217 1579 217 1616 138 c 128,-1,70
 1653 59 1653 59 1722 59 c 0,71,72
 1790 59 1790 59 1824 138 c 128,-1,73
 1858 217 1858 217 1858 371 c 0,74,75
 1858 524 1858 524 1824 602.5 c 128,-1,76
 1790 681 1790 681 1722 681 c 0,77,78
 1653 681 1653 681 1616 602.5 c 128,-1,79
 1579 524 1579 524 1579 371 c 0,68,69
1428 371 m 256,80,81
 1428 467 1428 467 1450.5 541 c 128,-1,82
 1473 615 1473 615 1513 665.5 c 128,-1,83
 1553 716 1553 716 1606.5 742 c 128,-1,84
 1660 768 1660 768 1722 768 c 0,85,86
 1781 768 1781 768 1833.5 742 c 128,-1,87
 1886 716 1886 716 1925 665.5 c 128,-1,88
 1964 615 1964 615 1986.5 541 c 128,-1,89
 2009 467 2009 467 2009 371 c 256,90,91
 2009 275 2009 275 1986.5 200.5 c 128,-1,92
 1964 126 1964 126 1925 75.5 c 128,-1,93
 1886 25 1886 25 1833.5 -1.5 c 128,-1,94
 1781 -28 1781 -28 1722 -28 c 0,95,96
 1660 -28 1660 -28 1606.5 -1.5 c 128,-1,97
 1553 25 1553 25 1513 75.5 c 128,-1,98
 1473 126 1473 126 1450.5 200.5 c 128,-1,99
 1428 275 1428 275 1428 371 c 256,80,81
EndSplineSet
EndChar

StartChar: twosuperior
Encoding: 178 178 129
Width: 538
Flags: W
HStem: 383 77<156 401.625> 1249 77<189.969 340.921>
VStem: 360 121<974.007 1232.77> 434 4<552.323 560>
LayerCount: 2
Fore
SplineSet
303 460 m 2,0,1
 333 460 333 460 355.5 468.5 c 128,-1,2
 378 477 378 477 394 491 c 128,-1,3
 410 505 410 505 420 523 c 128,-1,4
 430 541 430 541 434 560 c 1,5,-1
 438 560 l 1,6,-1
 437 385 l 1,7,8
 414 385 414 385 377 384.5 c 128,-1,9
 340 384 340 384 296 384 c 0,10,11
 255 384 255 384 214.5 383.5 c 128,-1,12
 174 383 174 383 141 383 c 2,13,-1
 66 383 l 1,14,-1
 34 474 l 1,15,16
 54 520 54 520 85.5 573.5 c 128,-1,17
 117 627 117 627 153.5 685 c 128,-1,18
 190 743 190 743 226.5 804 c 128,-1,19
 263 865 263 865 293 925.5 c 128,-1,20
 323 986 323 986 341.5 1044.5 c 128,-1,21
 360 1103 360 1103 360 1157 c 0,22,23
 360 1204 360 1204 335 1226.5 c 128,-1,24
 310 1249 310 1249 277 1249 c 0,25,26
 256 1249 256 1249 235 1241.5 c 128,-1,27
 214 1234 214 1234 197.5 1219 c 128,-1,28
 181 1204 181 1204 170.5 1182 c 128,-1,29
 160 1160 160 1160 160 1131 c 0,30,31
 160 1119 160 1119 161.5 1105 c 128,-1,32
 163 1091 163 1091 167 1076 c 1,33,-1
 164 1074 l 1,34,-1
 64 1237 l 1,35,36
 106 1282 106 1282 162.5 1304 c 128,-1,37
 219 1326 219 1326 276 1326 c 0,38,39
 316 1326 316 1326 353.5 1315.5 c 128,-1,40
 391 1305 391 1305 419 1283.5 c 128,-1,41
 447 1262 447 1262 464 1230 c 128,-1,42
 481 1198 481 1198 481 1155 c 0,43,44
 481 1109 481 1109 466.5 1056 c 128,-1,45
 452 1003 452 1003 427 945 c 128,-1,46
 402 887 402 887 369.5 826.5 c 128,-1,47
 337 766 337 766 301 704 c 128,-1,48
 265 642 265 642 227.5 580.5 c 128,-1,49
 190 519 190 519 156 460 c 1,50,-1
 303 460 l 2,0,1
EndSplineSet
EndChar

StartChar: threesuperior
Encoding: 179 179 130
Width: 552
Flags: W
HStem: 384 73<183.242 297.198> 878 74<178 280.992> 1274 74<176.392 295.042>
VStem: 51 113<488.458 615 1138 1252.86> 323 135<986.138 1247.48> 351 128<505.053 821.559>
LayerCount: 2
Fore
SplineSet
178 952 m 1,0,1
 220 953 220 953 247.5 965.5 c 128,-1,2
 275 978 275 978 292 1001 c 128,-1,3
 309 1024 309 1024 316 1057.5 c 128,-1,4
 323 1091 323 1091 323 1133 c 0,5,6
 323 1205 323 1205 295 1239.5 c 128,-1,7
 267 1274 267 1274 230 1274 c 0,8,9
 195 1274 195 1274 180.5 1253.5 c 128,-1,10
 166 1233 166 1233 166 1208 c 0,11,12
 166 1186 166 1186 175.5 1164 c 128,-1,13
 185 1142 185 1142 204 1128 c 1,14,-1
 204 1124 l 1,15,-1
 51 1138 l 1,16,17
 51 1192 51 1192 68.5 1231.5 c 128,-1,18
 86 1271 86 1271 113.5 1297 c 128,-1,19
 141 1323 141 1323 175 1335.5 c 128,-1,20
 209 1348 209 1348 241 1348 c 0,21,22
 287 1348 287 1348 326.5 1334 c 128,-1,23
 366 1320 366 1320 395 1292 c 128,-1,24
 424 1264 424 1264 441 1223.5 c 128,-1,25
 458 1183 458 1183 458 1131 c 0,26,27
 458 1052 458 1052 422 998 c 128,-1,28
 386 944 386 944 326 912 c 1,29,30
 395 877 395 877 437 818 c 128,-1,31
 479 759 479 759 479 672 c 0,32,33
 479 602 479 602 461 548.5 c 128,-1,34
 443 495 443 495 411 458.5 c 128,-1,35
 379 422 379 422 333.5 403 c 128,-1,36
 288 384 288 384 234 384 c 0,37,38
 202 384 202 384 169 397.5 c 128,-1,39
 136 411 136 411 110 439.5 c 128,-1,40
 84 468 84 468 67.5 511.5 c 128,-1,41
 51 555 51 555 51 615 c 1,42,-1
 204 657 l 1,43,-1
 204 653 l 1,44,45
 187 639 187 639 175.5 615 c 128,-1,46
 164 591 164 591 164 570 c 0,47,48
 164 518 164 518 184.5 487.5 c 128,-1,49
 205 457 205 457 236 457 c 0,50,51
 260 457 260 457 281 475.5 c 128,-1,52
 302 494 302 494 317.5 525 c 128,-1,53
 333 556 333 556 342 594.5 c 128,-1,54
 351 633 351 633 351 674 c 0,55,56
 351 713 351 713 341.5 749.5 c 128,-1,57
 332 786 332 786 311.5 814.5 c 128,-1,58
 291 843 291 843 258 860.5 c 128,-1,59
 225 878 225 878 178 878 c 1,60,-1
 178 952 l 1,0,1
EndSplineSet
EndChar

StartChar: onesuperior
Encoding: 185 185 131
Width: 406
Flags: W
HStem: 384 4<73 78.5029 345.485 351>
VStem: 155 115<408.66 1237.01>
LayerCount: 2
Fore
SplineSet
279 1347 m 1,0,1
 276 1288 276 1288 274 1220.5 c 128,-1,2
 272 1153 272 1153 271 1080.5 c 128,-1,3
 270 1008 270 1008 270 932 c 128,-1,4
 270 856 270 856 270 780 c 0,5,6
 270 707 270 707 271 635 c 128,-1,7
 272 563 272 563 277 491 c 0,8,9
 279 453 279 453 297 426 c 128,-1,10
 315 399 315 399 351 388 c 1,11,-1
 351 384 l 1,12,-1
 73 384 l 1,13,-1
 73 388 l 1,14,15
 109 399 109 399 125 427 c 128,-1,16
 141 455 141 455 143 493 c 0,17,18
 149 609 149 609 152 707 c 128,-1,19
 155 805 155 805 155 899 c 0,20,21
 155 1005 155 1005 154.5 1073.5 c 128,-1,22
 154 1142 154 1142 149.5 1182 c 128,-1,23
 145 1222 145 1222 134.5 1237.5 c 128,-1,24
 124 1253 124 1253 103 1253 c 0,25,26
 97 1253 97 1253 86 1250.5 c 128,-1,27
 75 1248 75 1248 63.5 1245.5 c 128,-1,28
 52 1243 52 1243 42.5 1240.5 c 128,-1,29
 33 1238 33 1238 29 1238 c 256,30,31
 25 1238 25 1238 25 1240 c 0,32,33
 25 1243 25 1243 37.5 1250.5 c 128,-1,34
 50 1258 50 1258 73 1268 c 1,35,-1
 279 1347 l 1,0,1
EndSplineSet
EndChar

StartChar: foursuperior
Encoding: 8308 8308 135
Width: 609
Flags: W
HStem: 384 4<253 258.506 506.638 512> 609 76<109 329 434 528.935>
VStem: 335 96<409.445 609 685 1137> 563 4<778.323 786>
LayerCount: 2
Fore
SplineSet
432 685 m 1,0,1
 460 685 460 685 483 693.5 c 128,-1,2
 506 702 506 702 522.5 716.5 c 128,-1,3
 539 731 539 731 549 749 c 128,-1,4
 559 767 559 767 563 786 c 1,5,-1
 567 786 l 1,6,-1
 567 609 l 1,7,-1
 434 609 l 1,8,9
 435 577 435 577 435.5 549.5 c 128,-1,10
 436 522 436 522 438 491 c 1,11,12
 442 453 442 453 459.5 426.5 c 128,-1,13
 477 400 477 400 512 388 c 1,14,-1
 512 384 l 1,15,-1
 253 384 l 1,16,-1
 253 388 l 1,17,18
 289 400 289 400 305.5 428.5 c 128,-1,19
 322 457 322 457 324 495 c 0,20,21
 326 526 326 526 327 553 c 128,-1,22
 328 580 328 580 329 609 c 1,23,-1
 38 609 l 1,24,-1
 6 699 l 1,25,26
 24 721 24 721 47.5 758.5 c 128,-1,27
 71 796 71 796 96.5 842.5 c 128,-1,28
 122 889 122 889 148.5 940.5 c 128,-1,29
 175 992 175 992 200 1043 c 0,30,31
 258 1162 258 1162 320 1298 c 1,32,-1
 441 1347 l 1,33,34
 433 1244 433 1244 432 1124.5 c 128,-1,35
 431 1005 431 1005 431 871 c 0,36,37
 431 823 431 823 431 777.5 c 128,-1,38
 431 732 431 732 432 685 c 1,0,1
109 685 m 1,39,-1
 332 685 l 1,40,41
 335 797 335 797 335 897 c 2,42,-1
 335 1137 l 1,43,44
 312 1088 312 1088 286 1032.5 c 128,-1,45
 260 977 260 977 231.5 919 c 128,-1,46
 203 861 203 861 172 801.5 c 128,-1,47
 141 742 141 742 109 685 c 1,39,-1
EndSplineSet
EndChar

StartChar: germandbls
Encoding: 223 223 136
Width: 750
Flags: W
HStem: -170 110<309 416.096> 0 21G<33 321> 776 113<338 411.328> 1216 110<313.347 413.447>
VStem: 137 148.5<50.4663 1202.37> 441 149<923.638 1196.91> 541 149<101.443 602.822>
LayerCount: 2
Fore
SplineSet
33 0 m 1,0,-1
 33 5 l 1,1,2
 79 22 79 22 98.5 61 c 128,-1,3
 118 100 118 100 122 153 c 0,4,5
 133 296 133 296 137 440.5 c 128,-1,6
 141 585 141 585 141 743 c 0,7,8
 141 764 141 764 140.5 804 c 128,-1,9
 140 844 140 844 139 888 c 128,-1,10
 138 932 138 932 137.5 972.5 c 128,-1,11
 137 1013 137 1013 137 1035 c 0,12,13
 137 1105 137 1105 153 1159.5 c 128,-1,14
 169 1214 169 1214 196.5 1251 c 128,-1,15
 224 1288 224 1288 262 1307 c 128,-1,16
 300 1326 300 1326 345 1326 c 0,17,18
 394 1326 394 1326 438.5 1307 c 128,-1,19
 483 1288 483 1288 517 1251 c 128,-1,20
 551 1214 551 1214 570.5 1159.5 c 128,-1,21
 590 1105 590 1105 590 1035 c 0,22,23
 590 972 590 972 546.5 925 c 128,-1,24
 503 878 503 878 429 849 c 1,25,26
 487 816 487 816 535.5 769 c 128,-1,27
 584 722 584 722 618 661 c 128,-1,28
 652 600 652 600 671 524.5 c 128,-1,29
 690 449 690 449 690 359 c 0,30,31
 690 235 690 235 659 137 c 128,-1,32
 628 39 628 39 576.5 -29.5 c 128,-1,33
 525 -98 525 -98 457 -134 c 128,-1,34
 389 -170 389 -170 315 -170 c 2,35,-1
 309 -170 l 1,36,-1
 309 -60 l 1,37,38
 370 -56 370 -56 414 -18 c 128,-1,39
 458 20 458 20 486.5 79 c 128,-1,40
 515 138 515 138 528 210.5 c 128,-1,41
 541 283 541 283 541 356 c 256,42,43
 541 429 541 429 528 502.5 c 128,-1,44
 515 576 515 576 489.5 635.5 c 128,-1,45
 464 695 464 695 426 733.5 c 128,-1,46
 388 772 388 772 338 776 c 1,47,-1
 338 889 l 1,48,49
 366 892 366 892 385.5 906.5 c 128,-1,50
 405 921 405 921 417.5 942 c 128,-1,51
 430 963 430 963 435.5 988.5 c 128,-1,52
 441 1014 441 1014 441 1038 c 0,53,54
 441 1068 441 1068 436 1099.5 c 128,-1,55
 431 1131 431 1131 420.5 1157 c 128,-1,56
 410 1183 410 1183 394 1199.5 c 128,-1,57
 378 1216 378 1216 356 1216 c 0,58,59
 337 1216 337 1216 323 1193 c 128,-1,60
 309 1170 309 1170 299.5 1114 c 128,-1,61
 290 1058 290 1058 285.5 965 c 128,-1,62
 281 872 281 872 281 731 c 2,63,-1
 282 424 l 2,64,65
 282 357 282 357 282 299.5 c 128,-1,66
 282 242 282 242 285 191 c 128,-1,67
 288 140 288 140 296 94 c 128,-1,68
 304 48 304 48 321 5 c 1,69,-1
 321 0 l 1,70,-1
 33 0 l 1,0,-1
EndSplineSet
EndChar

